<svg width="33" height="24" viewBox="0 0 33 24" fill="none" xmlns="http://www.w3.org/2000/svg">
<g clip-path="url(#clip0_73_873)">
<path d="M1.69296 1.01877C2.09296 0.850017 2.51796 0.743767 2.94921 0.750017C11.6992 0.750017 20.4492 0.750017 29.1992 0.750017C29.6305 0.743767 30.0617 0.850017 30.4555 1.02502C28.3242 3.17502 26.1617 5.30002 24.018 7.44377C22.1992 9.25002 20.3805 11.0625 18.568 12.8688C18.343 13.0813 18.1367 13.3188 17.893 13.5125C17.1742 14.15 16.1117 14.3563 15.1992 14.05C14.743 13.9125 14.3492 13.6313 14.0117 13.3063C9.99296 9.30627 5.97421 5.30627 1.94921 1.30627C1.86171 1.21252 1.76796 1.12502 1.69296 1.01877Z" fill="#FEC248"/>
<path d="M0.349219 2.36255C3.59297 5.5688 6.82422 8.78755 10.0617 12C6.82422 15.2125 3.59297 18.4313 0.349219 21.6376C0.199219 21.2938 0.0992188 20.9251 0.0742188 20.5438V3.4563C0.0992188 3.07505 0.199219 2.7063 0.349219 2.36255Z" fill="#0C9A41"/>
<path d="M22.0867 12C25.3242 8.78755 28.5492 5.56255 31.7992 2.36255C31.9492 2.7063 32.0554 3.07505 32.0742 3.4563V20.55C32.0492 20.925 31.9492 21.3 31.7992 21.6438C28.5554 18.4313 25.3242 15.2125 22.0867 12Z" fill="#0C9A41"/>
<path d="M3.93046 20.7312C6.41796 18.2625 8.89921 15.7937 11.3867 13.325C11.868 13.8 12.3367 14.2812 12.818 14.75C13.518 15.4312 14.4367 15.8812 15.3992 16.0187C16.768 16.225 18.218 15.7875 19.2305 14.8437C19.7555 14.35 20.2492 13.8312 20.7617 13.325C22.7555 15.3062 24.7492 17.2875 26.743 19.2687C27.9805 20.5062 29.2367 21.725 30.4617 22.975C30.068 23.15 29.6367 23.2562 29.2055 23.25C20.4555 23.25 11.7055 23.25 2.95546 23.25C2.51796 23.2562 2.09296 23.15 1.69296 22.975C2.41796 22.2125 3.18671 21.4812 3.93046 20.7312Z" fill="#0C9A41"/>
</g>
<defs>
<clipPath id="clip0_73_873">
<rect width="32" height="22.5" fill="white" transform="translate(0.0742188 0.75)"/>
</clipPath>
</defs>
</svg>
