<svg width="33" height="26" viewBox="0 0 33 26" fill="none" xmlns="http://www.w3.org/2000/svg">
<g clip-path="url(#clip0_73_889)">
<path d="M4.93049 0.603154C5.38049 0.384404 5.89299 0.340654 6.38674 0.346904C9.34299 0.346904 12.3055 0.346904 15.2617 0.346904C15.4367 0.334404 15.6055 0.403154 15.7117 0.546904C16.4617 1.4344 17.2055 2.32815 17.9555 3.21565C21.5992 3.21565 25.2367 3.21565 28.8805 3.21565C29.2555 3.21565 29.6305 3.20315 29.9992 3.2719C30.543 3.3844 31.043 3.6719 31.4117 4.09065C31.8305 4.5469 32.043 5.1594 32.068 5.77815V19.8032C32.0367 20.2907 31.893 20.7719 31.6117 21.1719C31.2055 21.7844 30.5242 22.1844 29.8055 22.2844C29.8055 18.0469 29.8055 13.8032 29.8055 9.56565C29.8117 9.0594 29.7992 8.5469 29.6367 8.06565C29.2742 6.8469 28.2367 5.86565 27.0055 5.56565C26.4742 5.4219 25.9242 5.45315 25.3805 5.45315C21.9492 5.45315 18.5117 5.45315 15.0805 5.45315C14.5242 4.79065 13.968 4.1344 13.418 3.4719C13.2117 3.2219 13.0055 2.95315 12.718 2.79065C12.4492 2.62815 12.1305 2.5844 11.818 2.5844C9.03674 2.5844 6.25549 2.5844 3.47424 2.5844C3.59924 1.74065 4.14924 0.965654 4.93049 0.603154Z" fill="#DF2DB1"/>
<path d="M1.53672 3.95943C1.93672 3.75943 2.38672 3.69068 2.83047 3.69068C5.84922 3.69068 8.87422 3.69068 11.893 3.69068C12.0555 3.67818 12.218 3.75318 12.318 3.88443C13.0742 4.77818 13.818 5.67193 14.5742 6.55943C18.4117 6.55943 22.243 6.55318 26.0805 6.56568C27.0617 6.55318 28.018 7.13443 28.4367 8.02193C28.6867 8.51568 28.718 9.07818 28.7055 9.62193C28.7055 14.0407 28.7055 18.4532 28.7055 22.8719C28.6992 23.2344 28.668 23.6094 28.5367 23.9532C28.2805 24.6719 27.6805 25.2657 26.9492 25.5094C26.4867 25.6719 25.993 25.6594 25.5117 25.6594C18.0742 25.6594 10.6367 25.6594 3.19922 25.6594C2.68672 25.6657 2.15547 25.6657 1.67422 25.4594C0.742969 25.0907 0.105469 24.1407 0.0742188 23.1469V6.24068C0.0992188 5.28443 0.667969 4.36568 1.53672 3.95943Z" fill="#0C9A41"/>
</g>
<defs>
<clipPath id="clip0_73_889">
<rect width="32" height="25.3062" fill="white" transform="translate(0.0742188 0.346924)"/>
</clipPath>
</defs>
</svg>
