<svg width="23" height="30" viewBox="0 0 23 30" fill="none" xmlns="http://www.w3.org/2000/svg">
<g clip-path="url(#clip0_73_895)">
<path d="M2.61133 0H14.1367C14.1367 2.05078 14.1367 4.10742 14.1367 6.1582C14.1309 6.93164 14.4941 7.69336 15.0977 8.18555C15.5781 8.58984 16.2051 8.80078 16.832 8.79492C18.8652 8.79492 20.8926 8.79492 22.9258 8.79492C22.9258 14.9883 22.9258 21.1816 22.9258 27.3691C22.9316 28.2715 22.4336 29.1562 21.6602 29.6191C21.3086 29.8418 20.9043 29.9531 20.4941 30.0059H2.48242C2.02539 29.9355 1.57422 29.8008 1.19922 29.5254C0.501951 29.0391 0.068357 28.207 0.0742164 27.3633C0.0742164 19.1602 0.0742164 10.957 0.0742164 2.75391C0.0742164 2.4375 0.103513 2.12109 0.203123 1.82227C0.525388 0.791016 1.5332 0.0351562 2.61133 0ZM6.0625 12.3809C5.61718 12.457 5.2832 12.9199 5.35937 13.3652C5.41211 13.7871 5.80469 14.127 6.23242 14.1211C9.72461 14.1211 13.2227 14.1211 16.7207 14.1211C16.9961 14.1328 17.2773 14.0215 17.4531 13.8047C17.6641 13.5586 17.7227 13.1953 17.5879 12.9023C17.459 12.5859 17.125 12.3633 16.7852 12.3633C13.3691 12.3633 9.94726 12.3633 6.53125 12.3633C6.36718 12.3633 6.21484 12.3516 6.0625 12.3809ZM6.0625 15.8965C5.51758 15.9844 5.17773 16.6406 5.43554 17.1328C5.58203 17.4551 5.93359 17.6543 6.28515 17.6367C9.7832 17.6367 13.2754 17.6367 16.7734 17.6367C17.1367 17.6367 17.4883 17.3965 17.5996 17.0508C17.7578 16.6465 17.5469 16.1426 17.1484 15.9668C16.9258 15.8496 16.668 15.8848 16.4277 15.8789C13.1465 15.8789 9.86523 15.8789 6.58398 15.8789C6.4082 15.8789 6.23242 15.8672 6.0625 15.8965ZM6.0625 19.4121C5.61718 19.4883 5.2832 19.9512 5.35937 20.3965C5.41211 20.8184 5.80469 21.1582 6.23242 21.1523C9.63086 21.1523 13.0293 21.1523 16.4277 21.1523C16.6973 21.1523 16.9961 21.1816 17.2305 21.0234C17.6523 20.7832 17.7871 20.1738 17.5 19.7812C17.3301 19.5234 17.0195 19.3828 16.7148 19.3945C13.334 19.3945 9.95898 19.3945 6.57812 19.3945C6.4082 19.3945 6.23242 19.3828 6.0625 19.4121ZM6.0625 22.9277C5.61718 23.0039 5.2832 23.4668 5.35937 23.918C5.41211 24.3398 5.80469 24.6797 6.22656 24.6738C8.55273 24.6738 10.873 24.6738 13.1992 24.6738C13.4863 24.6855 13.7852 24.5566 13.9551 24.3223C14.1602 24.0586 14.1895 23.6719 14.0312 23.3789C13.8848 23.0977 13.5742 22.9102 13.2578 22.916C11.0137 22.916 8.76367 22.916 6.51953 22.916C6.36719 22.9102 6.21484 22.9043 6.0625 22.9277Z" fill="#0C9A41"/>
<path d="M15.8945 0.521484C18.0683 2.68945 20.2363 4.86328 22.4101 7.03125C20.5293 7.03125 18.6543 7.03125 16.7734 7.03125C16.4101 7.03125 16.0644 6.79102 15.9472 6.44531C15.8828 6.27539 15.8945 6.09375 15.8945 5.91797C15.8945 4.11914 15.8945 2.32031 15.8945 0.521484Z" fill="#41E88D"/>
</g>
<defs>
<clipPath id="clip0_73_895">
<rect width="22.8516" height="30" fill="white" transform="translate(0.0742188)"/>
</clipPath>
</defs>
</svg>
