<svg width="128" height="129" viewBox="0 0 128 129" fill="none" xmlns="http://www.w3.org/2000/svg">
<path d="M69.9785 23.8914V32.895C69.9785 35.3822 71.993 37.3967 74.4803 37.3967H83.4838C85.9711 37.3967 87.9856 39.4113 87.9856 41.8985V59.9057C87.9856 62.393 85.9711 64.4075 83.4838 64.4075H74.4803C71.993 64.4075 69.9785 62.393 69.9785 59.9057V41.8985C69.9785 39.4113 67.9639 37.3967 65.4767 37.3967H48.7666C44.85 37.3967 42.8017 42.0533 45.4493 44.9401L48.6146 48.3924C50.6601 50.044 51.9713 52.5706 51.9713 55.4011C51.9713 55.4968 51.9656 55.5896 51.9628 55.6825H51.9713V87.1951C51.9713 89.6823 53.9858 91.6969 56.4731 91.6969H101.491C103.978 91.6969 105.993 89.6823 105.993 87.1951V42.1771C105.993 39.6899 108.007 37.6753 110.495 37.6753H119.498C121.985 37.6753 124 39.6899 124 42.1771V87.1979C124 89.6851 121.985 91.6997 119.498 91.6997H110.495C108.007 91.6997 105.993 93.7142 105.993 96.2015V105.205C105.993 107.692 103.978 109.707 101.491 109.707H56.4731C53.9858 109.707 51.9713 107.692 51.9713 105.205V96.2015C51.9713 93.7142 49.9567 91.6997 47.4695 91.6997H38.4659C35.9786 91.6997 33.9641 89.6851 33.9641 87.1979V59.0588L4.5139 26.9329C1.86909 24.0461 3.91742 19.3896 7.83398 19.3896H65.4767C67.9639 19.3896 69.9785 21.4041 69.9785 23.8914Z" fill="#F46246"/>
</svg>
