<svg width="455" height="81" viewBox="0 0 455 81" fill="none" xmlns="http://www.w3.org/2000/svg">
<path d="M0.693359 63.0223V4.56382H21.354L33.366 35.3946H34.9676L46.8996 4.56382H67.9606V63.0223H53.2259V13.1324L55.5482 13.2925L40.4932 51.2505H26.9596L11.8245 13.2925L14.307 13.1324V63.0223H0.693359Z" fill="#0C9A41"/>
<path d="M105.691 63.0223V50.0493H103.288V36.1954C103.288 34.1667 102.808 32.6719 101.847 31.711C100.939 30.6966 99.4179 30.1894 97.2824 30.1894C96.2681 30.1894 94.7733 30.2161 92.7979 30.2695C90.8226 30.3229 88.7406 30.403 86.5517 30.5098C84.3629 30.6165 82.3608 30.7233 80.5457 30.8301V18.6579C81.827 18.5511 83.3485 18.4444 85.1103 18.3376C86.872 18.2308 88.6872 18.1507 90.5557 18.0973C92.4776 18.044 94.2394 18.0173 95.841 18.0173C100.379 18.0173 104.223 18.6846 107.373 20.0193C110.576 21.3539 113.005 23.3559 114.66 26.0253C116.368 28.6946 117.222 32.0847 117.222 36.1954V63.0223H105.691ZM91.6768 64.1434C88.5804 64.1434 85.831 63.5828 83.4286 62.4617C81.0262 61.3406 79.131 59.739 77.7429 57.6569C76.4082 55.5214 75.7409 52.9856 75.7409 50.0493C75.7409 46.7393 76.6218 44.07 78.3835 42.0413C80.1453 39.9592 82.5744 38.4377 85.6708 37.4767C88.7673 36.5158 92.3175 36.0353 96.3215 36.0353H104.89V43.5628H96.3215C94.3462 43.5628 92.8246 44.07 91.7569 45.0843C90.6892 46.0453 90.1553 47.3533 90.1553 49.0083C90.1553 50.6099 90.6892 51.9178 91.7569 52.9322C92.8246 53.8931 94.3462 54.3736 96.3215 54.3736C97.6028 54.3736 98.7239 54.1601 99.6848 53.733C100.699 53.2525 101.527 52.4517 102.167 51.3306C102.808 50.2095 103.182 48.6612 103.288 46.6859L106.652 49.8891C106.385 52.9322 105.637 55.5214 104.41 57.6569C103.235 59.739 101.58 61.3406 99.4446 62.4617C97.3625 63.5828 94.7733 64.1434 91.6768 64.1434Z" fill="#0C9A41"/>
<path d="M121.906 63.0223L134.959 39.1584L134.639 41.2405L122.306 18.8181H138.002L145.129 33.3126H146.41L153.137 18.8181H167.872L156.1 41.6409L156.42 39.8791L170.274 63.0223H154.578L145.93 47.5668H144.649L136.641 63.0223H121.906Z" fill="#0C9A41"/>
<path d="M177.732 63.0223V18.8181H192.307V63.0223H177.732ZM172.127 29.3886V18.8181H192.307V29.3886H172.127ZM183.738 15.2945C181.069 15.2945 179.094 14.6272 177.812 13.2925C176.584 11.9045 175.97 10.1427 175.97 8.00726C175.97 5.87179 176.584 4.13672 177.812 2.80205C179.094 1.414 181.042 0.719971 183.658 0.719971C186.328 0.719971 188.276 1.414 189.504 2.80205C190.732 4.13672 191.346 5.87179 191.346 8.00726C191.346 10.1427 190.732 11.9045 189.504 13.2925C188.276 14.6272 186.354 15.2945 183.738 15.2945Z" fill="#0C9A41"/>
<path d="M202.771 79.0383V18.8181H214.303V37.8771H213.021C213.181 33.5528 214.036 29.8691 215.584 26.8261C217.185 23.783 219.348 21.4874 222.07 19.9392C224.793 18.3376 227.916 17.5368 231.44 17.5368C234.483 17.5368 237.232 18.0973 239.688 19.2185C242.144 20.2862 244.253 21.8344 246.014 23.8631C247.776 25.8384 249.111 28.1874 250.018 30.9102C250.979 33.6329 251.46 36.6225 251.46 39.8791V41.8011C251.46 45.0576 251.033 48.074 250.178 50.8501C249.324 53.5728 248.043 55.9752 246.335 58.0573C244.626 60.086 242.517 61.6609 240.008 62.782C237.552 63.9032 234.723 64.4637 231.52 64.4637C228.103 64.4637 225.087 63.7964 222.471 62.4617C219.855 61.0737 217.773 59.0183 216.224 56.2955C214.73 53.5194 213.929 50.0493 213.822 45.8851L217.346 50.2095V79.0383H202.771ZM227.115 52.4517C229.037 52.4517 230.719 51.9712 232.16 51.0103C233.655 49.9959 234.803 48.6079 235.604 46.8461C236.458 45.0843 236.885 43.0823 236.885 40.8401C236.885 38.5445 236.458 36.5692 235.604 34.9142C234.803 33.2058 233.682 31.8978 232.241 30.9902C230.799 30.0293 229.091 29.5488 227.115 29.5488C225.354 29.5488 223.699 29.9492 222.15 30.75C220.656 31.5508 219.428 32.7253 218.467 34.2735C217.506 35.8217 217.025 37.6903 217.025 39.8791V42.6019C217.025 44.6839 217.532 46.4724 218.547 47.9672C219.561 49.4087 220.842 50.5298 222.391 51.3306C223.939 52.078 225.514 52.4517 227.115 52.4517Z" fill="#0C9A41"/>
<path d="M285.965 63.0223V50.0493H283.562V36.1954C283.562 34.1667 283.082 32.6719 282.121 31.711C281.213 30.6966 279.692 30.1894 277.556 30.1894C276.542 30.1894 275.047 30.2161 273.072 30.2695C271.097 30.3229 269.015 30.403 266.826 30.5098C264.637 30.6165 262.635 30.7233 260.82 30.8301V18.6579C262.101 18.5511 263.622 18.4444 265.384 18.3376C267.146 18.2308 268.961 18.1507 270.83 18.0973C272.752 18.044 274.513 18.0173 276.115 18.0173C280.653 18.0173 284.497 18.6846 287.647 20.0193C290.85 21.3539 293.279 23.3559 294.934 26.0253C296.642 28.6946 297.496 32.0847 297.496 36.1954V63.0223H285.965ZM271.951 64.1434C268.854 64.1434 266.105 63.5828 263.703 62.4617C261.3 61.3406 259.405 59.739 258.017 57.6569C256.682 55.5214 256.015 52.9856 256.015 50.0493C256.015 46.7393 256.896 44.07 258.658 42.0413C260.419 39.9592 262.848 38.4377 265.945 37.4767C269.041 36.5158 272.591 36.0353 276.595 36.0353H285.164V43.5628H276.595C274.62 43.5628 273.099 44.07 272.031 45.0843C270.963 46.0453 270.429 47.3533 270.429 49.0083C270.429 50.6099 270.963 51.9178 272.031 52.9322C273.099 53.8931 274.62 54.3736 276.595 54.3736C277.877 54.3736 278.998 54.1601 279.959 53.733C280.973 53.2525 281.801 52.4517 282.441 51.3306C283.082 50.2095 283.456 48.6612 283.562 46.6859L286.926 49.8891C286.659 52.9322 285.911 55.5214 284.684 57.6569C283.509 59.739 281.854 61.3406 279.719 62.4617C277.637 63.5828 275.047 64.1434 271.951 64.1434Z" fill="#0C9A41"/>
<path d="M324.682 80.72C322.493 80.72 320.225 80.6399 317.875 80.4797C315.58 80.3196 313.498 80.106 311.629 79.8391V67.6669C313.498 67.8805 315.58 68.0673 317.875 68.2275C320.171 68.441 322.28 68.5478 324.202 68.5478C327.512 68.5478 330.208 68.2008 332.29 67.5068C334.425 66.8127 336 65.745 337.015 64.3036C338.029 62.8621 338.536 61.0203 338.536 58.778V49.8091L340.778 45.0043C340.672 48.7413 339.951 51.9979 338.616 54.774C337.282 57.4967 335.36 59.6055 332.85 61.1003C330.395 62.5952 327.405 63.3426 323.881 63.3426C320.892 63.3426 318.196 62.8087 315.793 61.741C313.391 60.6733 311.336 59.1784 309.627 57.2565C307.972 55.2812 306.691 52.9589 305.783 50.2895C304.876 47.6202 304.422 44.7106 304.422 41.5608V39.6389C304.422 36.4891 304.903 33.5795 305.863 30.9102C306.824 28.1874 308.213 25.8384 310.028 23.8631C311.843 21.8344 313.978 20.2862 316.434 19.2185C318.943 18.0973 321.719 17.5368 324.762 17.5368C328.286 17.5368 331.329 18.3376 333.892 19.9392C336.454 21.4874 338.456 23.7563 339.898 26.746C341.339 29.7357 342.113 33.366 342.22 37.6369L340.618 38.1974V18.8181H352.15V57.8171C352.15 63.2625 351.135 67.6669 349.107 71.0303C347.078 74.3936 344.008 76.8494 339.898 78.3976C335.84 79.9459 330.768 80.72 324.682 80.72ZM328.766 51.3306C330.528 51.3306 332.103 50.9302 333.491 50.1294C334.933 49.3286 336.08 48.1808 336.935 46.6859C337.789 45.1377 338.216 43.2959 338.216 41.1604V39.2385C338.216 37.1564 337.762 35.3946 336.854 33.9532C336 32.5118 334.852 31.4173 333.411 30.6699C331.97 29.9225 330.421 29.5488 328.766 29.5488C326.844 29.5488 325.136 30.0026 323.641 30.9102C322.2 31.8177 321.052 33.099 320.198 34.754C319.397 36.409 318.997 38.3576 318.997 40.5998C318.997 42.8421 319.397 44.764 320.198 46.3656C321.052 47.9672 322.2 49.1951 323.641 50.0493C325.136 50.9035 326.844 51.3306 328.766 51.3306Z" fill="#0C9A41"/>
<path d="M384.046 64.6239C380.149 64.6239 376.679 64.0366 373.636 62.8621C370.593 61.6876 368.003 60.0593 365.868 57.9772C363.786 55.8951 362.184 53.4927 361.063 50.77C359.995 48.0473 359.461 45.1377 359.461 42.0413V40.1194C359.461 36.9162 360.022 33.9265 361.143 31.1504C362.318 28.3743 363.973 25.9452 366.108 23.8631C368.244 21.781 370.833 20.1527 373.876 18.9782C376.919 17.8037 380.309 17.2165 384.046 17.2165C387.837 17.2165 391.227 17.8037 394.216 18.9782C397.259 20.1527 399.849 21.781 401.984 23.8631C404.119 25.9452 405.748 28.3743 406.869 31.1504C408.043 33.9265 408.631 36.9162 408.631 40.1194V42.0413C408.631 45.1377 408.07 48.0473 406.949 50.77C405.881 53.4927 404.28 55.8951 402.144 57.9772C400.062 60.0593 397.5 61.6876 394.456 62.8621C391.413 64.0366 387.943 64.6239 384.046 64.6239ZM384.046 52.4517C386.288 52.4517 388.13 51.9712 389.572 51.0103C391.066 50.0493 392.188 48.7146 392.935 47.0063C393.682 45.2445 394.056 43.2692 394.056 41.0803C394.056 38.7847 393.656 36.7827 392.855 35.0743C392.107 33.3126 390.986 31.9245 389.491 30.9102C387.997 29.8958 386.182 29.3886 384.046 29.3886C381.911 29.3886 380.095 29.8958 378.601 30.9102C377.106 31.9245 375.958 33.3126 375.157 35.0743C374.41 36.7827 374.036 38.7847 374.036 41.0803C374.036 43.2692 374.41 45.2445 375.157 47.0063C375.905 48.7146 377.026 50.0493 378.521 51.0103C380.015 51.9712 381.857 52.4517 384.046 52.4517Z" fill="#0C9A41"/>
<path d="M433.897 64.4637C427.491 64.4637 422.446 63.1557 418.762 60.5398C415.078 57.8705 413.103 54.1334 412.836 49.3286H425.649C425.862 50.6632 426.69 51.8111 428.131 52.772C429.573 53.733 431.602 54.2135 434.217 54.2135C436.086 54.2135 437.688 53.9465 439.022 53.4127C440.41 52.8254 441.104 51.8911 441.104 50.6099C441.104 49.4887 440.57 48.5812 439.503 47.8871C438.435 47.1397 436.486 46.6326 433.657 46.3656L430.614 46.0453C424.955 45.458 420.791 43.9098 418.121 41.4006C415.452 38.8915 414.117 35.7417 414.117 31.9512C414.117 28.6946 414.918 26.0253 416.52 23.9432C418.121 21.8077 420.337 20.2061 423.166 19.1384C425.996 18.0707 429.226 17.5368 432.856 17.5368C438.782 17.5368 443.56 18.8448 447.19 21.4607C450.821 24.0233 452.743 27.7337 452.956 32.5918H440.143C439.93 31.2572 439.209 30.1361 437.981 29.2285C436.753 28.2675 434.992 27.787 432.696 27.787C431.041 27.787 429.68 28.0807 428.612 28.6679C427.598 29.2552 427.09 30.0827 427.09 31.1504C427.09 32.2715 427.571 33.099 428.532 33.6329C429.546 34.1668 431.148 34.5671 433.337 34.8341L436.38 35.1544C442.039 35.7417 446.39 37.3166 449.433 39.8791C452.529 42.3883 454.077 45.6983 454.077 49.8091C454.077 52.8521 453.25 55.4681 451.595 57.6569C449.993 59.8458 447.671 61.5274 444.628 62.702C441.638 63.8765 438.061 64.4637 433.897 64.4637Z" fill="#0C9A41"/>
<path d="M156.955 36.4431L128.901 61.4526L136.406 49.7994H138.908L139.444 48.6341H131.671L132.207 48.0963H137.746L139.444 44.421H135.066L135.602 43.8832H145.698L147.127 42.449H140.516L142.303 39.3116H134.083L137.032 35.0985H133.19L133.815 34.471H144.447L145.698 33.2161H137.746L138.908 32.0507H142.303L142.928 31.4233H135.602L136.406 30.6165H140.069L143.553 25.3278H147.283L149.159 23.4453H135.066L137.032 21.4732H150.2L152.165 19.5012H142.928L144.447 17.9773H165.71L150.879 36.4431H156.955Z" fill="#F6BB41"/>
</svg>
