<svg width="32" height="33" viewBox="0 0 32 33" fill="none" xmlns="http://www.w3.org/2000/svg">
<path fill-rule="evenodd" clip-rule="evenodd" d="M25.3519 28.9809C24.7933 29.1988 23.9533 29.4561 22.4071 29.5265C21.3741 29.5742 20.7876 29.5981 19.491 29.6093V20.4955H22.4393L22.8807 16.9401H19.4909V14.6701C19.4909 13.6407 19.7661 12.9393 21.1874 12.9393L23 12.9384V9.75849C22.6865 9.71524 21.6104 9.61841 20.3587 9.61841C17.7451 9.61841 15.9559 11.2753 15.9559 14.3181V16.9401H13V20.4955H15.9559V29.6183H16.5278C16.3587 29.6184 16.183 29.6184 16.0004 29.6184C11.7658 29.6184 11.2636 29.603 9.59215 29.5265C8.04592 29.4561 7.20596 29.1988 6.64728 28.9809C5.90701 28.6927 5.37846 28.3496 4.82364 27.7948C4.26882 27.24 3.92573 26.7122 3.6375 25.9719C3.42114 25.4132 3.16227 24.5733 3.09195 23.027C3.01545 21.3541 3 20.8518 3 16.6188C3 12.3842 3.01545 11.8835 3.09195 10.2106C3.16227 8.66433 3.41959 7.82437 3.6375 7.26569C3.92573 6.52541 4.26805 5.99687 4.82364 5.44205C5.37923 4.88723 5.90701 4.54259 6.64728 4.25591C7.20751 4.03955 8.04592 3.78068 9.59215 3.71036C11.2651 3.63541 11.7658 3.61841 16.0004 3.61841C20.2334 3.61841 20.7357 3.63386 22.4079 3.71036C23.9541 3.78068 24.794 4.038 25.3527 4.25591C26.0938 4.54259 26.6215 4.88723 27.1764 5.44205C27.7304 5.99841 28.0743 6.52619 28.3625 7.26646C28.5789 7.82669 28.8377 8.6651 28.908 10.2113C28.983 11.8843 29 12.385 29 16.6196C29 20.8541 28.9845 21.3556 28.9073 23.027C28.837 24.5733 28.5796 25.4132 28.3617 25.9719C28.075 26.7122 27.7312 27.24 27.1756 27.7948C26.62 28.3496 26.0922 28.6927 25.3519 28.9809Z" fill="#0C9A41"/>
</svg>
