<svg width="32" height="33" viewBox="0 0 32 33" fill="none" xmlns="http://www.w3.org/2000/svg">
<path fill-rule="evenodd" clip-rule="evenodd" d="M25.3519 28.9809C24.7933 29.1988 23.9533 29.4561 22.4071 29.5265C20.7357 29.6037 20.2334 29.6184 16.0004 29.6184C11.7658 29.6184 11.2636 29.603 9.59215 29.5265C8.04592 29.4561 7.20596 29.1988 6.64728 28.9809C5.90701 28.6927 5.37846 28.3496 4.82364 27.7948C4.26882 27.24 3.92573 26.7122 3.6375 25.9719C3.42114 25.4132 3.16227 24.5733 3.09195 23.027C3.01545 21.3541 3 20.8518 3 16.6188C3 12.3842 3.01545 11.8835 3.09195 10.2106C3.16227 8.66433 3.41959 7.82437 3.6375 7.26569C3.92573 6.52541 4.26805 5.99687 4.82364 5.44205C5.37923 4.88723 5.90701 4.54259 6.64728 4.25591C7.20751 4.03955 8.04592 3.78068 9.59215 3.71036C11.2651 3.63541 11.7658 3.61841 16.0004 3.61841C20.2334 3.61841 20.7357 3.63386 22.4079 3.71036C23.9541 3.78068 24.794 4.038 25.3527 4.25591C26.0938 4.54259 26.6215 4.88723 27.1764 5.44205C27.7304 5.99841 28.0743 6.52619 28.3625 7.26646C28.5789 7.82669 28.8377 8.6651 28.908 10.2113C28.983 11.8843 29 12.385 29 16.6196C29 20.8541 28.9845 21.3556 28.9073 23.027C28.837 24.5733 28.5796 25.4132 28.3617 25.9719C28.075 26.7122 27.7312 27.24 27.1756 27.7948C26.62 28.3496 26.0922 28.6927 25.3519 28.9809ZM15.973 13.4538C17.7511 13.4538 19.1922 14.8956 19.1922 16.6738C19.1922 18.4519 17.7511 19.8937 15.973 19.8937C14.1948 19.8937 12.753 18.4519 12.753 16.6738C12.753 14.8956 14.1948 13.4538 15.973 13.4538ZM15.973 21.6336C18.7123 21.6336 20.9328 19.4131 20.9328 16.6738H20.9327C20.9327 13.9343 18.7123 11.7139 15.973 11.7139C13.2336 11.7139 11.0131 13.9344 11.0131 16.6738C11.0131 19.4131 13.2336 21.6336 15.973 21.6336ZM11.7807 12.1613C11.908 11.9706 11.9759 11.7465 11.9758 11.5173C11.9755 11.21 11.8533 10.9154 11.636 10.6981C11.4187 10.4809 11.124 10.3588 10.8167 10.3586H10.8162C10.587 10.3587 10.3629 10.4268 10.1724 10.5542C9.9818 10.6817 9.83331 10.8628 9.74567 11.0746C9.65802 11.2864 9.63516 11.5195 9.67998 11.7443C9.72479 11.9691 9.83527 12.1756 9.99743 12.3377C10.1596 12.4997 10.3662 12.61 10.591 12.6546C10.8159 12.6993 11.0489 12.6762 11.2607 12.5884C11.4725 12.5006 11.6534 12.352 11.7807 12.1613ZM21.669 24.2038C21.3288 24.3364 20.817 24.4932 19.8753 24.5361V24.5363C18.8574 24.5831 18.5524 24.5924 15.973 24.5924C13.3935 24.5924 13.0877 24.5831 12.0695 24.5363C11.1278 24.4935 10.6158 24.3366 10.2758 24.204C9.82483 24.0284 9.50261 23.819 9.16477 23.4815C8.82693 23.144 8.61783 22.8222 8.44227 22.3712C8.31052 22.0311 8.15288 21.5192 8.10999 20.5775C8.06317 19.5585 8.05382 19.2535 8.05382 16.6741C8.05382 14.0946 8.06317 13.7896 8.10999 12.7706C8.1528 11.8289 8.30967 11.3169 8.44227 10.9769C8.61783 10.5259 8.82647 10.2037 9.16477 9.86586C9.50307 9.52803 9.82483 9.31815 10.2758 9.14336C10.6168 9.012 11.1278 8.85397 12.0695 8.81109C13.0885 8.76472 13.3947 8.75476 15.973 8.75476C18.5513 8.75476 18.8571 8.76411 19.8753 8.81093C20.817 8.85374 21.329 9.01061 21.669 9.14321C22.1207 9.318 22.4422 9.52741 22.78 9.86571C23.1179 10.204 23.327 10.5258 23.5025 10.9767C23.6339 11.3177 23.7919 11.8287 23.8348 12.7705C23.8808 13.7895 23.891 14.0945 23.891 16.6739C23.891 19.2534 23.8816 19.5592 23.8348 20.5773C23.792 21.5191 23.6351 22.0311 23.5025 22.3711C23.3277 22.822 23.1183 23.1435 22.78 23.4813C22.4417 23.8192 22.12 24.0283 21.669 24.2038ZM22.2998 7.52179C21.6861 7.28302 20.9835 7.11997 19.9552 7.07314H19.9548C18.9244 7.02554 18.5945 7.01465 15.9718 7.01465C13.3491 7.01465 13.02 7.02608 11.9899 7.07314C10.9624 7.1192 10.2602 7.28302 9.64541 7.52179C9.01107 7.76837 8.47186 8.09832 7.93513 8.63591C7.39839 9.1735 7.06828 9.71186 6.82101 10.347C6.58223 10.9606 6.41919 11.6632 6.37236 12.6915C6.32553 13.7214 6.31464 14.0507 6.31464 16.6738C6.31464 19.2969 6.32553 19.6253 6.37236 20.656C6.41841 21.6843 6.58223 22.3865 6.82101 23.0005C7.06828 23.6357 7.39754 24.1749 7.93513 24.7116C8.47271 25.2483 9.01107 25.5784 9.64618 25.8257C10.2602 26.0645 10.9624 26.2275 11.9907 26.2744C13.0206 26.322 13.3499 26.3329 15.973 26.3329C18.5961 26.3329 18.9248 26.3212 19.9552 26.2744C20.9835 26.2275 21.685 26.0645 22.2998 25.8257C22.9356 25.5784 23.4733 25.2481 24.0108 24.7116C24.5483 24.1751 24.8784 23.6357 25.1249 23.0005C25.3637 22.3865 25.5268 21.6844 25.5736 20.656C25.6212 19.6261 25.6321 19.2969 25.6321 16.6738C25.6321 14.0507 25.6212 13.7214 25.5736 12.6915C25.5268 11.6632 25.3637 10.961 25.1249 10.347C24.8784 9.71108 24.5484 9.17265 24.0108 8.63591C23.4732 8.09917 22.9349 7.76837 22.2998 7.52179Z" fill="#0C9A41"/>
</svg>
