<svg width="32" height="33" viewBox="0 0 32 33" fill="none" xmlns="http://www.w3.org/2000/svg">
<path fill-rule="evenodd" clip-rule="evenodd" d="M25.3519 28.9809C24.7933 29.1988 23.9533 29.4561 22.4071 29.5265C20.7357 29.6037 20.2334 29.6184 16.0004 29.6184C11.7658 29.6184 11.2636 29.603 9.59215 29.5265C8.04592 29.4561 7.20596 29.1988 6.64728 28.9809C5.90701 28.6927 5.37846 28.3496 4.82364 27.7948C4.26882 27.24 3.92573 26.7122 3.6375 25.9719C3.42114 25.4132 3.16227 24.5733 3.09195 23.027C3.01545 21.3541 3 20.8518 3 16.6188C3 12.3842 3.01545 11.8835 3.09195 10.2106C3.16227 8.66433 3.41959 7.82437 3.6375 7.26569C3.92573 6.52541 4.26805 5.99687 4.82364 5.44205C5.37923 4.88723 5.90701 4.54259 6.64728 4.25591C7.20751 4.03955 8.04592 3.78068 9.59215 3.71036C11.2651 3.63541 11.7658 3.61841 16.0004 3.61841C20.2334 3.61841 20.7357 3.63386 22.4079 3.71036C23.9541 3.78068 24.794 4.038 25.3527 4.25591C26.0938 4.54259 26.6215 4.88723 27.1764 5.44205C27.7304 5.99841 28.0743 6.52619 28.3625 7.26646C28.5789 7.82669 28.8377 8.6651 28.908 10.2113C28.983 11.8843 29 12.385 29 16.6196C29 20.8541 28.9845 21.3556 28.9073 23.027C28.837 24.5733 28.5796 25.4132 28.3617 25.9719C28.075 26.7122 27.7312 27.24 27.1756 27.7948C26.62 28.3496 26.0922 28.6927 25.3519 28.9809ZM19.3589 10.6184V10.6213C19.3589 10.6242 19.2925 10.6352 19.1596 10.6545C19.0268 10.6737 18.8632 10.7146 18.6691 10.7771C18.4749 10.8396 18.2628 10.931 18.0329 11.0513C17.803 11.1715 17.5986 11.3086 17.4197 11.4625C17.2409 11.6164 17.0953 11.7655 16.9829 11.9098C16.8705 12.054 16.7795 12.1824 16.71 12.295C16.6415 12.4085 16.5715 12.559 16.5 12.7466C16.4285 12.9342 16.3748 13.1193 16.339 13.3021C16.3033 13.4849 16.2854 13.6844 16.2854 13.9009C16.2854 14.1173 16.2956 14.2856 16.3161 14.4059L16.3467 14.5862L16.3513 14.6079L16.3544 14.6295L16.2471 14.6266C16.1755 14.6237 16.0427 14.6127 15.8485 14.5934C15.6544 14.5742 15.3656 14.5309 14.9824 14.4636C14.5992 14.3962 14.3284 14.3409 14.17 14.2977C14.0116 14.2544 13.7357 14.163 13.3422 14.0235C12.9488 13.884 12.5809 13.7277 12.2385 13.5546C11.8962 13.3814 11.5845 13.2059 11.3034 13.028C11.0224 12.85 10.795 12.6937 10.6213 12.559C10.4476 12.4244 10.3454 12.3392 10.3147 12.3036C10.284 12.2671 10.2585 12.245 10.2381 12.2373C10.2176 12.2305 10.1129 12.1382 9.92381 11.9603C9.73475 11.7823 9.57124 11.6212 9.43327 11.4769L9.22633 11.2605L9.22328 11.2561L9.21867 11.2533L9.211 11.2388L9.20334 11.2244L9.19874 11.2215L9.19567 11.2172L9.19262 11.2129L9.18801 11.21L9.18341 11.2071L9.18034 11.2028L9.17729 11.1984L9.17268 11.1955L9.16808 11.1984L9.16501 11.2028L9.16196 11.2071L9.15735 11.21L9.14968 11.2316L9.14202 11.2533L9.01172 11.5274C8.92487 11.7102 8.85843 11.8833 8.81244 12.0468C8.76646 12.2103 8.7358 12.357 8.72047 12.4869C8.70514 12.6167 8.70004 12.773 8.70514 12.9558C8.71026 13.1386 8.73325 13.3237 8.77412 13.5113C8.815 13.6989 8.87479 13.885 8.95347 14.0697C9.03318 14.2553 9.10882 14.4083 9.18034 14.5285C9.25139 14.6481 9.33346 14.7615 9.42561 14.8676C9.51758 14.9734 9.60956 15.0744 9.70153 15.1706C9.79351 15.2668 9.88139 15.3452 9.96519 15.4058C10.05 15.4654 10.094 15.4962 10.097 15.4981L10.1001 15.5024L10.1154 15.5096L10.1307 15.5169L10.1338 15.5212L10.1384 15.5241L10.143 15.527L10.1461 15.5313L10.1614 15.5385L10.1767 15.5457L10.1798 15.55L10.1844 15.5529L10.189 15.5558L10.1921 15.5601L10.1951 15.5645L10.1997 15.5674L10.2043 15.5702L10.2074 15.5746H10.0694L10.0005 15.5674C9.95446 15.5625 9.81396 15.5361 9.5789 15.488C9.34386 15.4399 9.14714 15.3822 8.98873 15.3149L8.75113 15.2139L8.7358 15.2066L8.72047 15.1994L8.70514 15.1922L8.68981 15.185L8.67448 15.1807L8.65915 15.1778L8.68676 15.4808C8.70419 15.6831 8.74113 15.8835 8.79711 16.0796C8.85333 16.2768 8.93764 16.4836 9.05005 16.7C9.16247 16.9164 9.29021 17.1064 9.43327 17.2699C9.57636 17.4334 9.70766 17.5671 9.82723 17.671C9.94721 17.7735 10.0742 17.8684 10.2074 17.9553C10.3403 18.0418 10.5191 18.1308 10.7439 18.2222C10.9687 18.3136 11.1067 18.3665 11.1578 18.3809C11.2089 18.3953 11.2447 18.4049 11.2651 18.4098L11.2958 18.417L11.3264 18.4242L11.3571 18.4314L11.3877 18.4386L11.4184 18.4458L11.4153 18.4502L11.4107 18.453L11.4061 18.4559L11.4031 18.4603L11.3647 18.4675L11.3264 18.4747L11.2958 18.4819C11.2753 18.4867 11.2191 18.4963 11.1271 18.5107C11.0352 18.5252 10.8691 18.5348 10.6289 18.5396C10.3888 18.5444 10.2125 18.5396 10.1001 18.5252L9.93147 18.5035L9.90848 18.4992L9.88548 18.4963L9.88855 18.5107L9.89315 18.5252L9.90081 18.5468L9.90848 18.5685L10.0357 18.8311C10.1195 19.0071 10.2074 19.1624 10.2994 19.2971C10.3913 19.4318 10.4997 19.5631 10.6243 19.691C10.75 19.818 10.8522 19.9161 10.9309 19.9853C11.0106 20.0555 11.1399 20.1436 11.3188 20.2494C11.4976 20.3552 11.6816 20.4466 11.8706 20.5235C12.0597 20.6005 12.236 20.6582 12.3995 20.6967C12.563 20.7351 12.683 20.7568 12.7597 20.7616C12.8363 20.7664 12.9155 20.7712 12.9973 20.776L13.1199 20.7832L13.1169 20.7876L13.1123 20.7904L13.1077 20.8049L13.1046 20.8193L13.0893 20.8222L13.0739 20.8265L13.0709 20.8308L13.0663 20.8337L13.0617 20.8366L13.0586 20.8409L13.0556 20.8453L13.0509 20.8482L13.0463 20.851L13.0433 20.8554L12.6907 21.079C12.4557 21.2281 12.2809 21.3301 12.1665 21.3849C12.051 21.4407 11.8568 21.5253 11.584 21.6388C11.3101 21.7514 11.0096 21.8485 10.6826 21.9303C10.3556 22.012 10.072 22.0698 9.83183 22.1034C9.59168 22.1371 9.35663 22.1587 9.12669 22.1684C8.89675 22.178 8.6796 22.178 8.4752 22.1684C8.27082 22.1587 8.14563 22.1515 8.09964 22.1467L8.03066 22.1395L8.01533 22.1352L8 22.1323V22.1611H8.00766L8.01228 22.164L8.01533 22.1684L8.01839 22.1727L8.02299 22.1756L8.02761 22.1785L8.03066 22.1828L8.04599 22.19L8.06132 22.1972L8.06438 22.2015L8.06898 22.2044L8.0736 22.2073L8.07665 22.2116L8.21461 22.291C8.30658 22.3439 8.38936 22.3881 8.46294 22.4237C8.53755 22.4603 8.7215 22.5469 9.01479 22.6834C9.30911 22.821 9.66321 22.9571 10.0771 23.0918C10.491 23.2264 10.8027 23.3178 11.0122 23.3659C11.2217 23.414 11.5104 23.4621 11.8783 23.5102C12.2462 23.5583 12.4582 23.5847 12.5144 23.5896C12.5706 23.5944 12.6422 23.5992 12.729 23.604L12.8593 23.6112V23.6184H13.8557V23.6112L14.3999 23.5607C14.7627 23.527 15.0872 23.4861 15.3733 23.4381C15.6595 23.39 15.9558 23.3226 16.2624 23.2361C16.569 23.1495 16.8602 23.0557 17.1362 22.9547C17.4121 22.8537 17.6686 22.744 17.9057 22.6257C18.1438 22.5084 18.3472 22.404 18.5158 22.3126C18.6844 22.2213 18.8694 22.1073 19.0707 21.9707C19.273 21.8331 19.4621 21.6956 19.6379 21.558C19.8147 21.4215 19.9148 21.3426 19.9383 21.3214C19.9608 21.2993 20.0937 21.1742 20.3369 20.9463C20.5791 20.7173 20.7794 20.5115 20.9378 20.3287C21.0962 20.146 21.252 19.9512 21.4053 19.7444C21.5586 19.5376 21.7272 19.2851 21.9112 18.9869C22.0951 18.6887 22.2714 18.352 22.44 17.9769C22.6087 17.6018 22.7517 17.217 22.8693 16.8226C22.9868 16.4283 23.0737 16.0748 23.1298 15.7621C23.1861 15.4495 23.2244 15.1586 23.2448 14.8892C23.2653 14.6199 23.277 14.3785 23.2801 14.1649C23.2821 13.9504 23.3792 13.7696 23.5713 13.6224C23.7624 13.4762 23.9576 13.3093 24.1569 13.1217C24.3562 12.9342 24.4645 12.8269 24.4819 12.8C24.5003 12.774 24.5146 12.7596 24.5248 12.7567C24.535 12.7548 24.604 12.673 24.7317 12.5114C24.8595 12.3508 24.9244 12.269 24.9264 12.2661L24.931 12.2632L24.9387 12.2488L24.9463 12.2344L24.951 12.2315L24.954 12.2272L24.9571 12.2228L24.9617 12.22L24.9663 12.2171L24.9693 12.2127L24.9724 12.2084L24.977 12.2055L24.9816 12.2026L24.9847 12.1983L24.9923 12.194L25 12.1911V12.1622L24.9693 12.1651L24.9387 12.1695L24.9234 12.1767L24.908 12.1839L24.8927 12.1911L24.8774 12.1983L24.8544 12.2055L24.8084 12.22L24.3945 12.3498C24.1339 12.4316 23.8605 12.5013 23.5744 12.559L23.1452 12.6456H23.0685L23.0716 12.6413L23.0762 12.6384L23.0808 12.6355L23.0839 12.6312L23.0869 12.6268L23.0915 12.624L23.0961 12.6211L23.0992 12.6167L23.1145 12.6095L23.1298 12.6023L23.1329 12.598L23.1375 12.5951L23.1421 12.5922L23.1452 12.5879L23.1605 12.5807L23.1758 12.5735L23.2525 12.5258C23.3036 12.4951 23.347 12.4614 23.3828 12.4248C23.4186 12.3893 23.4916 12.3267 23.602 12.2373C23.7113 12.1488 23.835 12.018 23.9729 11.8448C24.1109 11.6717 24.2259 11.501 24.3179 11.3326C24.4098 11.1643 24.4584 11.0681 24.4635 11.044C24.4686 11.02 24.4737 11.0008 24.4788 10.9863L24.4865 10.9647L24.4941 10.9503L24.5018 10.9358L24.5095 10.9142L24.5171 10.8925L24.5217 10.8709L24.5248 10.8493L24.5095 10.8521L24.4941 10.8565L24.4911 10.8608L24.4865 10.8637L24.4819 10.8666L24.4788 10.8709L24.4635 10.8781L24.4482 10.8853L24.4328 10.8925L24.4175 10.8998L24.4144 10.9041C24.4114 10.906 24.3858 10.9205 24.3378 10.9474C24.2887 10.9733 24.1518 11.0344 23.927 11.1306C23.7021 11.2268 23.4748 11.3134 23.2448 11.3903C23.0149 11.4673 22.8003 11.5274 22.601 11.5707C22.4017 11.614 22.2551 11.5909 22.1611 11.5014C22.066 11.4129 21.9587 11.3293 21.8391 11.2504C21.7186 11.1705 21.5842 11.0921 21.436 11.0152C21.2878 10.9382 21.1345 10.8709 20.9761 10.8132C20.8177 10.7555 20.6414 10.7088 20.4473 10.6732L20.156 10.6184H19.3589Z" fill="#0C9A41"/>
</svg>
