<?xml version="1.0" encoding="UTF-8"?><svg id="Capa_1" xmlns="http://www.w3.org/2000/svg" xmlns:xlink="http://www.w3.org/1999/xlink" viewBox="0 0 24 24"><defs><style>.cls-1{fill:#8974b2;}.cls-2{fill:#ecabcd;}.cls-3{fill:url(#Degradado_sin_nombre_41);}.cls-4{fill:#c895c3;}.cls-5{fill:#3055a1;}.cls-6{fill:#c191c1;}.cls-7{fill:#c392c1;}.cls-8{fill:#ce99c4;}.cls-9{fill:#e8a8cc;}.cls-10{fill:#7f70b0;}.cls-11{fill:#d39cc6;}.cls-12{fill:#3456a1;}.cls-13{fill:#b38abd;}.cls-14{fill:#b289bc;}.cls-15{fill:#dda2c9;}.cls-16{fill:#6f6aad;}.cls-17{fill:#6e69ac;}.cls-18{fill:#8a75b2;}.cls-19{fill:#505ea6;}.cls-20{fill:#b58abd;}.cls-21{fill:#5761a8;}.cls-22{fill:#756cae;}.cls-23{fill:#8271b0;}.cls-24{fill:#a683b9;}.cls-25{fill:#3957a2;}.cls-26{fill:#6766ab;}.cls-27{fill:#987bb5;}.cls-28{fill:#7c6faf;}.cls-29{fill:#bf90c0;}.cls-30{fill:#3e59a3;}.cls-31{fill:#a280b8;}.cls-32{fill:#f0aece;}.cls-33{fill:#c593c2;}.cls-34{fill:#9379b4;}.cls-35{fill:#a984ba;}.cls-36{fill:#f1aecf;}.cls-37{fill:#efadce;}.cls-38{fill:#465ba4;}.cls-39{fill:#d59dc6;}.cls-40{fill:#9d7eb7;}.cls-41{fill:#3857a2;}.cls-42{fill:#6d69ac;}.cls-43{fill:#947ab5;}.cls-44{fill:#736bad;}.cls-45{fill:#dca1c8;}.cls-46{fill:#6b68ac;}.cls-47{fill:#997cb6;}.cls-48{fill:#d19bc5;}.cls-49{fill:#d69dc7;}.cls-50{fill:#3356a1;}.cls-51{fill:#bd8fc0;}.cls-52{fill:#e1a4ca;}.cls-53{fill:#b088bc;}.cls-54{fill:#8b75b2;}.cls-55{fill:#6566ab;}.cls-56{fill:#6164aa;}.cls-57{fill:#9479b4;}.cls-58{fill:#445ba4;}.cls-59{fill:#5a62a8;}.cls-60{fill:#b88cbe;}.cls-61{fill:#b289bd;}.cls-62{fill:#7b6eaf;}.cls-63{fill:#8372b1;}.cls-64{fill:#3f59a3;}.cls-65{fill:#dfa3c9;}.cls-66{fill:#9f7fb7;}.cls-67{fill:#3a58a2;}.cls-68{fill:#dca1c9;}.cls-69{fill:#8673b1;}.cls-70{fill:#3557a2;}.cls-71{fill:#ad86bb;}.cls-72{fill:#8774b2;}.cls-73{fill:#c795c2;}.cls-74{fill:#535fa7;}.cls-75{fill:#9b7db6;}.cls-76{fill:#aa85ba;}.cls-77{fill:#e0a3ca;}.cls-78{fill:#cb97c3;}.cls-79{fill:#a07fb7;}.cls-80{fill:#e3a5cb;}.cls-81{fill:#8c76b3;}.cls-82{fill:#5d63a9;}.cls-83{fill:#eaaacd;}.cls-84{fill:#8874b2;}.cls-85{fill:#425aa4;}.cls-86{fill:#9e7eb7;}.cls-87{fill:#7e70b0;}.cls-88{fill:#435aa4;}.cls-89{fill:#e9a9cc;}.cls-90{fill:#edabcd;}.cls-91{fill:#f4b0cf;}.cls-92{fill:#6c68ac;}.cls-93{fill:#d79ec7;}.cls-94{fill:#6967ab;}.cls-95{fill:#af87bc;}.cls-96{fill:#ab85bb;}.cls-97{fill:#515fa7;}.cls-98{fill:#d89fc7;}.cls-99{fill:#5861a8;}.cls-100{fill:#8e76b3;}.cls-101{fill:#ad87bb;}.cls-102{fill:#cb97c4;}.cls-103{fill:#967ab5;}.cls-104{fill:#cf99c5;}.cls-105{fill:#475ca5;}.cls-106{fill:#f2aecf;}.cls-107{fill:#dea2c9;}.cls-108{fill:#e4a6cb;}.cls-109{fill:#977bb5;}.cls-110{fill:#e7a8cc;}.cls-111{fill:#4f5ea6;}.cls-112{fill:#a783b9;}.cls-113{fill:#e6a7cb;}.cls-114{fill:#5961a8;}.cls-115{fill:#766cae;}.cls-116{fill:#4b5da5;}.cls-117{fill:#d49cc6;}.cls-118{fill:#786dae;}.cls-119{fill:#ca96c3;}.cls-120{fill:#7b6faf;}.cls-121{fill:#776dae;}.cls-122{fill:#daa0c8;}.cls-123{fill:#e5a7cb;}.cls-124{fill:#b98dbe;}.cls-125{fill:#3657a2;}.cls-126{fill:#be8fc0;}.cls-127{fill:#5c62a9;}.cls-128{fill:#edacce;}.cls-129{fill:#c493c1;}.cls-130{fill:#8472b1;}.cls-131{fill:#6265aa;}.cls-132{fill:#8572b1;}.cls-133{fill:#3156a1;}.cls-134{fill:#d99fc7;}.cls-135{clip-path:url(#clippath);}.cls-136{fill:#8773b1;}.cls-137{fill:#6365aa;}.cls-138{fill:#b78cbe;}.cls-139{fill:#8171b0;}.cls-140{fill:#eaa9cc;}.cls-141{fill:#c594c2;}.cls-142{fill:#6465aa;}.cls-143{fill:#957ab5;}.cls-144{fill:#7d6fb0;}.cls-145{fill:#c292c1;}.cls-146{fill:#3b58a3;}.cls-147{fill:#a582b9;}.cls-148{fill:none;}.cls-149{fill:#b48abd;}.cls-150{fill:#5e63a9;}.cls-151{fill:#e2a5ca;}.cls-152{fill:#4c5da6;}.cls-153{fill:#ac86bb;}.cls-154{fill:#a180b8;}.cls-155{fill:#455ba4;}.cls-156{fill:#796daf;}.cls-157{fill:#a883ba;}.cls-158{fill:#8d76b3;}.cls-159{fill:#b188bc;}.cls-160{fill:#9078b4;}.cls-161{fill:#5f64a9;}.cls-162{fill:#5660a7;}.cls-163{fill:url(#Degradado_sin_nombre_9);}.cls-164{fill:#6867ab;}.cls-165{fill:#9278b4;}.cls-166{fill:#6a67ab;}.cls-167{fill:#9a7cb6;}.cls-168{fill:#ebaacd;}.cls-169{fill:#cc98c4;}.cls-170{fill:#ae87bb;}.cls-171{fill:#525fa7;}.cls-172{fill:#706aad;}.cls-173{fill:#a481b9;}.cls-174{fill:#495ca5;}.cls-175{fill:url(#Degradado_sin_nombre_40);}.cls-176{fill:#9178b4;}.cls-177{fill:#c996c3;}.cls-178{fill:#415aa3;}.cls-179{fill:#5560a7;}.cls-180{fill:#cd98c4;}.cls-181{fill:#d09ac5;}.cls-182{fill:#ba8dbf;}.cls-183{fill:#eeacce;}.cls-184{fill:#dba0c8;}.cls-185{fill:#6666ab;}.cls-186{fill:#6064a9;}.cls-187{fill:#f0adce;}.cls-188{fill:#5460a7;}.cls-189{fill:#2e55a0;}.cls-190{fill:#f3afcf;}.cls-191{fill:#b68bbe;}.cls-192{fill:#f2afcf;}.cls-193{fill:#5b62a8;}.cls-194{fill:#726bad;}.cls-195{fill:#9c7db6;}.cls-196{fill:#716aad;}.cls-197{fill:#8f77b3;}.cls-198{fill:#8070b0;}.cls-199{fill:#4d5da6;}.cls-200{fill:#d29bc6;}.cls-201{fill:#7a6eaf;}.cls-202{fill:#4e5ea6;}.cls-203{fill:#746cae;}.cls-204{fill:#3c58a3;}.cls-205{fill:#2f55a1;}.cls-206{fill:#c091c0;}.cls-207{fill:#c694c2;}.cls-208{fill:#4a5ca5;}.cls-209{fill:#bb8ebf;}.cls-210{fill:#a381b8;}.cls-211{fill:#4059a3;}.cls-212{fill:#bc8ebf;}</style><linearGradient id="Degradado_sin_nombre_40" x1="5.64" y1="21.09" x2="5.64" y2="9.27" gradientUnits="userSpaceOnUse"><stop offset="0" stop-color="#3c63ad"/><stop offset="1" stop-color="#025d31"/></linearGradient><linearGradient id="Degradado_sin_nombre_9" x1="11.14" y1="10.23" x2="20.13" y2="19.22" gradientUnits="userSpaceOnUse"><stop offset="0" stop-color="#ba9ac8"/><stop offset="1" stop-color="#28af87"/></linearGradient><clipPath id="clippath"><rect class="cls-148" x="13.82" y="2.91" width="3.63" height="3.65"/></clipPath><linearGradient id="Degradado_sin_nombre_41" x1="2" y1="8.82" x2="11.09" y2="8.82" gradientUnits="userSpaceOnUse"><stop offset="0" stop-color="#2e55a0"/><stop offset="1" stop-color="#f4b0cf"/></linearGradient></defs><rect class="cls-175" x="3.82" y="9.27" width="3.64" height="11.82"/><path class="cls-163" d="M15.64,21.09c-3.51,0-6.36-2.85-6.36-6.36s2.85-6.36,6.36-6.36,6.36,2.85,6.36,6.36-2.85,6.36-6.36,6.36Zm0-9.09c-1.5,0-2.73,1.22-2.73,2.73s1.22,2.73,2.73,2.73,2.73-1.22,2.73-2.73-1.22-2.73-2.73-2.73Z"/><g class="cls-135"><rect class="cls-189" x="17.43" y="2.91" width=".02" height="3.65"/><rect class="cls-205" x="17.42" y="2.91" width=".02" height="3.65"/><rect class="cls-5" x="17.4" y="2.91" width=".02" height="3.65"/><rect class="cls-133" x="17.39" y="2.91" width=".02" height="3.65"/><rect class="cls-50" x="17.37" y="2.91" width=".02" height="3.65"/><rect class="cls-12" x="17.35" y="2.91" width=".02" height="3.65"/><rect class="cls-70" x="17.34" y="2.91" width=".02" height="3.65"/><rect class="cls-125" x="17.32" y="2.91" width=".02" height="3.65"/><rect class="cls-41" x="17.31" y="2.91" width=".02" height="3.65"/><rect class="cls-25" x="17.29" y="2.91" width=".02" height="3.65"/><rect class="cls-67" x="17.28" y="2.91" width=".02" height="3.65"/><rect class="cls-146" x="17.26" y="2.91" width=".02" height="3.65"/><rect class="cls-204" x="17.24" y="2.91" width=".02" height="3.65"/><rect class="cls-30" x="17.23" y="2.91" width=".02" height="3.65"/><rect class="cls-64" x="17.21" y="2.91" width=".02" height="3.65"/><rect class="cls-211" x="17.2" y="2.91" width=".02" height="3.65"/><rect class="cls-178" x="17.18" y="2.91" width=".02" height="3.65"/><rect class="cls-85" x="17.16" y="2.91" width=".02" height="3.65"/><rect class="cls-88" x="17.15" y="2.91" width=".02" height="3.65"/><rect class="cls-58" x="17.13" y="2.91" width=".02" height="3.65"/><rect class="cls-155" x="17.12" y="2.91" width=".02" height="3.65"/><rect class="cls-38" x="17.1" y="2.91" width=".02" height="3.65"/><rect class="cls-105" x="17.08" y="2.91" width=".02" height="3.65"/><rect class="cls-174" x="17.07" y="2.91" width=".02" height="3.65"/><rect class="cls-208" x="17.05" y="2.91" width=".02" height="3.65"/><rect class="cls-116" x="17.04" y="2.91" width=".02" height="3.65"/><rect class="cls-152" x="17.02" y="2.91" width=".02" height="3.65"/><rect class="cls-199" x="17" y="2.91" width=".02" height="3.65"/><rect class="cls-202" x="16.99" y="2.91" width=".02" height="3.65"/><rect class="cls-111" x="16.97" y="2.91" width=".02" height="3.65"/><rect class="cls-19" x="16.96" y="2.91" width=".02" height="3.65"/><rect class="cls-97" x="16.94" y="2.91" width=".02" height="3.65"/><rect class="cls-171" x="16.93" y="2.91" width=".02" height="3.65"/><rect class="cls-74" x="16.91" y="2.91" width=".02" height="3.65"/><rect class="cls-188" x="16.89" y="2.91" width=".02" height="3.65"/><rect class="cls-179" x="16.88" y="2.91" width=".02" height="3.65"/><rect class="cls-162" x="16.86" y="2.91" width=".02" height="3.65"/><rect class="cls-21" x="16.85" y="2.91" width=".02" height="3.65"/><rect class="cls-99" x="16.83" y="2.91" width=".02" height="3.65"/><rect class="cls-114" x="16.81" y="2.91" width=".02" height="3.65"/><rect class="cls-59" x="16.8" y="2.91" width=".02" height="3.65"/><rect class="cls-193" x="16.78" y="2.91" width=".02" height="3.65"/><rect class="cls-127" x="16.77" y="2.91" width=".02" height="3.65"/><rect class="cls-82" x="16.75" y="2.91" width=".02" height="3.65"/><rect class="cls-150" x="16.73" y="2.91" width=".02" height="3.65"/><rect class="cls-161" x="16.72" y="2.91" width=".02" height="3.65"/><rect class="cls-186" x="16.7" y="2.91" width=".02" height="3.65"/><rect class="cls-56" x="16.69" y="2.91" width=".02" height="3.65"/><rect class="cls-131" x="16.67" y="2.91" width=".02" height="3.65"/><rect class="cls-137" x="16.65" y="2.91" width=".02" height="3.65"/><rect class="cls-142" x="16.64" y="2.91" width=".02" height="3.65"/><rect class="cls-55" x="16.62" y="2.91" width=".02" height="3.65"/><rect class="cls-185" x="16.61" y="2.91" width=".02" height="3.65"/><rect class="cls-26" x="16.59" y="2.91" width=".02" height="3.65"/><rect class="cls-164" x="16.58" y="2.91" width=".02" height="3.65"/><rect class="cls-94" x="16.56" y="2.91" width=".02" height="3.65"/><rect class="cls-166" x="16.54" y="2.91" width=".02" height="3.65"/><rect class="cls-46" x="16.53" y="2.91" width=".02" height="3.65"/><rect class="cls-92" x="16.51" y="2.91" width=".02" height="3.65"/><rect class="cls-42" x="16.5" y="2.91" width=".02" height="3.65"/><rect class="cls-42" x="16.48" y="2.91" width=".02" height="3.65"/><rect class="cls-17" x="16.46" y="2.91" width=".02" height="3.65"/><rect class="cls-16" x="16.45" y="2.91" width=".02" height="3.65"/><rect class="cls-172" x="16.43" y="2.91" width=".02" height="3.65"/><rect class="cls-196" x="16.42" y="2.91" width=".02" height="3.65"/><rect class="cls-194" x="16.4" y="2.91" width=".02" height="3.65"/><rect class="cls-44" x="16.38" y="2.91" width=".02" height="3.65"/><rect class="cls-203" x="16.37" y="2.91" width=".02" height="3.65"/><rect class="cls-22" x="16.35" y="2.91" width=".02" height="3.65"/><rect class="cls-115" x="16.34" y="2.91" width=".02" height="3.65"/><rect class="cls-121" x="16.32" y="2.91" width=".02" height="3.65"/><rect class="cls-118" x="16.3" y="2.91" width=".02" height="3.65"/><rect class="cls-156" x="16.29" y="2.91" width=".02" height="3.65"/><rect class="cls-201" x="16.27" y="2.91" width=".02" height="3.65"/><rect class="cls-62" x="16.26" y="2.91" width=".02" height="3.65"/><rect class="cls-120" x="16.24" y="2.91" width=".02" height="3.65"/><rect class="cls-28" x="16.23" y="2.91" width=".02" height="3.65"/><rect class="cls-144" x="16.21" y="2.91" width=".02" height="3.65"/><rect class="cls-87" x="16.19" y="2.91" width=".02" height="3.65"/><rect class="cls-10" x="16.18" y="2.91" width=".02" height="3.65"/><rect class="cls-198" x="16.16" y="2.91" width=".02" height="3.65"/><rect class="cls-139" x="16.15" y="2.91" width=".02" height="3.65"/><rect class="cls-23" x="16.13" y="2.91" width=".02" height="3.65"/><rect class="cls-63" x="16.11" y="2.91" width=".02" height="3.65"/><rect class="cls-130" x="16.1" y="2.91" width=".02" height="3.65"/><rect class="cls-132" x="16.08" y="2.91" width=".02" height="3.65"/><rect class="cls-69" x="16.07" y="2.91" width=".02" height="3.65"/><rect class="cls-136" x="16.05" y="2.91" width=".02" height="3.65"/><rect class="cls-72" x="16.03" y="2.91" width=".02" height="3.65"/><rect class="cls-84" x="16.02" y="2.91" width=".02" height="3.65"/><rect class="cls-1" x="16" y="2.91" width=".02" height="3.65"/><rect class="cls-18" x="15.99" y="2.91" width=".02" height="3.65"/><rect class="cls-54" x="15.97" y="2.91" width=".02" height="3.65"/><rect class="cls-81" x="15.95" y="2.91" width=".02" height="3.65"/><rect class="cls-158" x="15.94" y="2.91" width=".02" height="3.65"/><rect class="cls-100" x="15.92" y="2.91" width=".02" height="3.65"/><rect class="cls-197" x="15.91" y="2.91" width=".02" height="3.65"/><rect class="cls-197" x="15.89" y="2.91" width=".02" height="3.65"/><rect class="cls-160" x="15.88" y="2.91" width=".02" height="3.65"/><rect class="cls-176" x="15.86" y="2.91" width=".02" height="3.65"/><rect class="cls-165" x="15.84" y="2.91" width=".02" height="3.65"/><rect class="cls-34" x="15.83" y="2.91" width=".02" height="3.65"/><rect class="cls-57" x="15.81" y="2.91" width=".02" height="3.65"/><rect class="cls-43" x="15.8" y="2.91" width=".02" height="3.65"/><rect class="cls-143" x="15.78" y="2.91" width=".02" height="3.65"/><rect class="cls-103" x="15.76" y="2.91" width=".02" height="3.65"/><rect class="cls-109" x="15.75" y="2.91" width=".02" height="3.65"/><rect class="cls-27" x="15.73" y="2.91" width=".02" height="3.65"/><rect class="cls-47" x="15.72" y="2.91" width=".02" height="3.65"/><rect class="cls-47" x="15.7" y="2.91" width=".02" height="3.65"/><rect class="cls-167" x="15.68" y="2.91" width=".02" height="3.65"/><rect class="cls-75" x="15.67" y="2.91" width=".02" height="3.65"/><rect class="cls-195" x="15.65" y="2.91" width=".02" height="3.65"/><rect class="cls-40" x="15.64" y="2.91" width=".02" height="3.65"/><rect class="cls-40" x="15.62" y="2.91" width=".02" height="3.65"/><rect class="cls-86" x="15.6" y="2.91" width=".02" height="3.65"/><rect class="cls-66" x="15.59" y="2.91" width=".02" height="3.65"/><rect class="cls-79" x="15.57" y="2.91" width=".02" height="3.65"/><rect class="cls-154" x="15.56" y="2.91" width=".02" height="3.65"/><rect class="cls-154" x="15.54" y="2.91" width=".02" height="3.65"/><rect class="cls-31" x="15.53" y="2.91" width=".02" height="3.65"/><rect class="cls-210" x="15.51" y="2.91" width=".02" height="3.65"/><rect class="cls-173" x="15.49" y="2.91" width=".02" height="3.65"/><rect class="cls-147" x="15.48" y="2.91" width=".02" height="3.65"/><rect class="cls-147" x="15.46" y="2.91" width=".02" height="3.65"/><rect class="cls-24" x="15.45" y="2.91" width=".02" height="3.65"/><rect class="cls-112" x="15.43" y="2.91" width=".02" height="3.65"/><rect class="cls-157" x="15.41" y="2.91" width=".02" height="3.65"/><rect class="cls-35" x="15.4" y="2.91" width=".02" height="3.65"/><rect class="cls-35" x="15.38" y="2.91" width=".02" height="3.65"/><rect class="cls-76" x="15.37" y="2.91" width=".02" height="3.65"/><rect class="cls-96" x="15.35" y="2.91" width=".02" height="3.65"/><rect class="cls-153" x="15.33" y="2.91" width=".02" height="3.65"/><rect class="cls-71" x="15.32" y="2.91" width=".02" height="3.65"/><rect class="cls-101" x="15.3" y="2.91" width=".02" height="3.65"/><rect class="cls-170" x="15.29" y="2.91" width=".02" height="3.65"/><rect class="cls-95" x="15.27" y="2.91" width=".02" height="3.65"/><rect class="cls-53" x="15.25" y="2.91" width=".02" height="3.65"/><rect class="cls-159" x="15.24" y="2.91" width=".02" height="3.65"/><rect class="cls-14" x="15.22" y="2.91" width=".02" height="3.65"/><rect class="cls-61" x="15.21" y="2.91" width=".02" height="3.65"/><rect class="cls-13" x="15.19" y="2.91" width=".02" height="3.65"/><rect class="cls-149" x="15.18" y="2.91" width=".02" height="3.65"/><rect class="cls-20" x="15.16" y="2.91" width=".02" height="3.65"/><rect class="cls-191" x="15.14" y="2.91" width=".02" height="3.65"/><rect class="cls-191" x="15.13" y="2.91" width=".02" height="3.65"/><rect class="cls-138" x="15.11" y="2.91" width=".02" height="3.65"/><rect class="cls-60" x="15.1" y="2.91" width=".02" height="3.65"/><rect class="cls-124" x="15.08" y="2.91" width=".02" height="3.65"/><rect class="cls-182" x="15.06" y="2.91" width=".02" height="3.65"/><rect class="cls-209" x="15.05" y="2.91" width=".02" height="3.65"/><rect class="cls-209" x="15.03" y="2.91" width=".02" height="3.65"/><rect class="cls-212" x="15.02" y="2.91" width=".02" height="3.65"/><rect class="cls-51" x="15" y="2.91" width=".02" height="3.65"/><rect class="cls-126" x="14.98" y="2.91" width=".02" height="3.65"/><rect class="cls-29" x="14.97" y="2.91" width=".02" height="3.65"/><rect class="cls-29" x="14.95" y="2.91" width=".02" height="3.65"/><rect class="cls-206" x="14.94" y="2.91" width=".02" height="3.65"/><rect class="cls-6" x="14.92" y="2.91" width=".02" height="3.65"/><rect class="cls-145" x="14.9" y="2.91" width=".02" height="3.65"/><rect class="cls-145" x="14.89" y="2.91" width=".02" height="3.65"/><rect class="cls-7" x="14.87" y="2.91" width=".02" height="3.65"/><rect class="cls-129" x="14.86" y="2.91" width=".02" height="3.65"/><rect class="cls-33" x="14.84" y="2.91" width=".02" height="3.65"/><rect class="cls-141" x="14.83" y="2.91" width=".02" height="3.65"/><rect class="cls-207" x="14.81" y="2.91" width=".02" height="3.65"/><rect class="cls-73" x="14.79" y="2.91" width=".02" height="3.65"/><rect class="cls-4" x="14.78" y="2.91" width=".02" height="3.65"/><rect class="cls-4" x="14.76" y="2.91" width=".02" height="3.65"/><rect class="cls-177" x="14.75" y="2.91" width=".02" height="3.65"/><rect class="cls-119" x="14.73" y="2.91" width=".02" height="3.65"/><rect class="cls-78" x="14.71" y="2.91" width=".02" height="3.65"/><rect class="cls-102" x="14.7" y="2.91" width=".02" height="3.65"/><rect class="cls-169" x="14.68" y="2.91" width=".02" height="3.65"/><rect class="cls-180" x="14.67" y="2.91" width=".02" height="3.65"/><rect class="cls-180" x="14.65" y="2.91" width=".02" height="3.65"/><rect class="cls-8" x="14.63" y="2.91" width=".02" height="3.65"/><rect class="cls-104" x="14.62" y="2.91" width=".02" height="3.65"/><rect class="cls-181" x="14.6" y="2.91" width=".02" height="3.65"/><rect class="cls-181" x="14.59" y="2.91" width=".02" height="3.65"/><rect class="cls-48" x="14.57" y="2.91" width=".02" height="3.65"/><rect class="cls-200" x="14.55" y="2.91" width=".02" height="3.65"/><rect class="cls-11" x="14.54" y="2.91" width=".02" height="3.65"/><rect class="cls-11" x="14.52" y="2.91" width=".02" height="3.65"/><rect class="cls-117" x="14.51" y="2.91" width=".02" height="3.65"/><rect class="cls-39" x="14.49" y="2.91" width=".02" height="3.65"/><rect class="cls-49" x="14.48" y="2.91" width=".02" height="3.65"/><rect class="cls-93" x="14.46" y="2.91" width=".02" height="3.65"/><rect class="cls-93" x="14.44" y="2.91" width=".02" height="3.65"/><rect class="cls-98" x="14.43" y="2.91" width=".02" height="3.65"/><rect class="cls-134" x="14.41" y="2.91" width=".02" height="3.65"/><rect class="cls-122" x="14.4" y="2.91" width=".02" height="3.65"/><rect class="cls-122" x="14.38" y="2.91" width=".02" height="3.65"/><rect class="cls-184" x="14.36" y="2.91" width=".02" height="3.65"/><rect class="cls-45" x="14.35" y="2.91" width=".02" height="3.65"/><rect class="cls-68" x="14.33" y="2.91" width=".02" height="3.65"/><rect class="cls-15" x="14.32" y="2.91" width=".02" height="3.65"/><rect class="cls-107" x="14.3" y="2.91" width=".02" height="3.65"/><rect class="cls-65" x="14.28" y="2.91" width=".02" height="3.65"/><rect class="cls-65" x="14.27" y="2.91" width=".02" height="3.65"/><rect class="cls-77" x="14.25" y="2.91" width=".02" height="3.65"/><rect class="cls-52" x="14.24" y="2.91" width=".02" height="3.65"/><rect class="cls-52" x="14.22" y="2.91" width=".02" height="3.65"/><rect class="cls-151" x="14.2" y="2.91" width=".02" height="3.65"/><rect class="cls-80" x="14.19" y="2.91" width=".02" height="3.65"/><rect class="cls-108" x="14.17" y="2.91" width=".02" height="3.65"/><rect class="cls-108" x="14.16" y="2.91" width=".02" height="3.65"/><rect class="cls-123" x="14.14" y="2.91" width=".02" height="3.65"/><rect class="cls-113" x="14.13" y="2.91" width=".02" height="3.65"/><rect class="cls-110" x="14.11" y="2.91" width=".02" height="3.65"/><rect class="cls-110" x="14.09" y="2.91" width=".02" height="3.65"/><rect class="cls-9" x="14.08" y="2.91" width=".02" height="3.65"/><rect class="cls-89" x="14.06" y="2.91" width=".02" height="3.65"/><rect class="cls-140" x="14.05" y="2.91" width=".02" height="3.65"/><rect class="cls-83" x="14.03" y="2.91" width=".02" height="3.65"/><rect class="cls-168" x="14.01" y="2.91" width=".02" height="3.65"/><rect class="cls-2" x="14" y="2.91" width=".02" height="3.65"/><rect class="cls-90" x="13.98" y="2.91" width=".02" height="3.65"/><rect class="cls-128" x="13.97" y="2.91" width=".02" height="3.65"/><rect class="cls-183" x="13.95" y="2.91" width=".02" height="3.65"/><rect class="cls-37" x="13.93" y="2.91" width=".02" height="3.65"/><rect class="cls-187" x="13.92" y="2.91" width=".02" height="3.65"/><rect class="cls-32" x="13.9" y="2.91" width=".02" height="3.65"/><rect class="cls-36" x="13.89" y="2.91" width=".02" height="3.65"/><rect class="cls-106" x="13.87" y="2.91" width=".02" height="3.65"/><rect class="cls-192" x="13.85" y="2.91" width=".02" height="3.65"/><rect class="cls-190" x="13.84" y="2.91" width=".02" height="3.65"/><rect class="cls-91" x="13.82" y="2.91" width=".02" height="3.65"/></g><path class="cls-3" d="M2,14.73v-3.64c1,0,1.82-.82,1.82-1.82v-.91c0-3.01,2.45-5.45,5.45-5.45h1.82v3.64h-1.82c-1,0-1.82,.82-1.82,1.82v.91c0,3.01-2.45,5.45-5.45,5.45Z"/></svg>