<svg width="32" height="32" viewBox="0 0 32 32" fill="none" xmlns="http://www.w3.org/2000/svg">
<path d="M28 2.66669H4C3.64638 2.66669 3.30724 2.80716 3.05719 3.05721C2.80714 3.30726 2.66667 3.6464 2.66667 4.00002V28C2.66667 28.3536 2.80714 28.6928 3.05719 28.9428C3.30724 29.1929 3.64638 29.3334 4 29.3334H28C28.3536 29.3334 28.6928 29.1929 28.9428 28.9428C29.1929 28.6928 29.3333 28.3536 29.3333 28V4.00002C29.3333 3.6464 29.1929 3.30726 28.9428 3.05721C28.6928 2.80716 28.3536 2.66669 28 2.66669V2.66669ZM14.6667 26.6667H5.33333V21.3334H14.6667V26.6667ZM14.6667 18.6667H5.33333V13.3334H14.6667V18.6667ZM26.6667 26.6667H17.3333V21.3334H26.6667V26.6667ZM26.6667 18.6667H17.3333V13.3334H26.6667V18.6667ZM26.6667 10.6667H5.33333V5.33335H26.6667V10.6667Z" fill="white"/>
</svg>
