<svg width="480" height="300" viewBox="0 0 480 300" fill="none" xmlns="http://www.w3.org/2000/svg">
<g clip-path="url(#clip0_42_110)">
<path d="M477.944 186.192C477.944 186.192 474.027 183.874 469.86 193.16C465.687 202.446 464.199 207.758 464.199 207.758C464.199 207.758 463.069 209.718 461.703 208.542C460.337 207.366 458.375 203.933 456.19 204.677C453.924 205.447 453.295 208.049 453.917 211.793C454.54 215.537 455.615 223.796 455.703 224.546C455.798 225.283 455.426 226.384 454.37 225.736C453.309 225.087 447.092 218.822 444.292 221.944C441.491 225.073 444.955 235.224 445.306 236.339C445.665 237.455 445.469 237.948 444.941 238.259C444.42 238.563 442.526 236.265 440.687 234.555C438.847 232.845 436.412 231.19 434.944 233.122C433.483 235.062 433.368 242.814 441.349 254.999L445.421 260.406L452.186 259.696C466.56 257.29 472.187 251.951 472.62 249.559C473.053 247.166 470.178 246.504 467.676 246.315C465.166 246.126 462.19 246.294 462.061 245.7C461.933 245.105 462.163 244.625 463.225 244.132C464.287 243.638 474.102 239.293 474.501 235.116C474.9 230.94 466.079 230.622 464.882 230.291C463.685 229.953 464.246 228.932 464.848 228.506C465.464 228.067 472.262 223.249 475.441 221.167C478.62 219.085 480.108 216.855 479.134 214.672C478.201 212.564 474.345 213.449 472.553 213.246C470.76 213.043 471.437 210.887 471.437 210.887C471.437 210.887 474.332 206.19 478.329 196.83C482.327 187.47 477.856 186.159 477.856 186.159" fill="#EBEBEB"/>
<path d="M444.407 261.676C447.37 254.817 452.849 242.706 457.496 232.284C462.143 221.87 466.336 212.435 469.34 205.582C470.835 202.162 472.045 199.392 472.884 197.472C473.303 196.519 473.628 195.783 473.851 195.269C473.96 195.026 474.048 194.836 474.108 194.694C474.169 194.566 474.203 194.505 474.203 194.505C474.203 194.505 474.183 194.573 474.129 194.708C474.075 194.843 473.993 195.039 473.892 195.289C473.676 195.803 473.364 196.553 472.965 197.513C472.154 199.439 470.963 202.223 469.482 205.65C466.519 212.509 462.339 221.958 457.692 232.372C453.045 242.794 447.545 254.891 444.549 261.737" fill="#E0E0E0"/>
<path d="M458.747 209.59C458.747 209.59 458.828 209.745 458.943 210.043C459.058 210.333 459.207 210.766 459.39 211.3C459.748 212.368 460.208 213.848 460.688 215.497C461.155 217.119 461.574 218.592 461.892 219.714C462.041 220.221 462.163 220.647 462.264 220.991C462.352 221.295 462.4 221.458 462.386 221.464C462.373 221.464 462.305 221.309 462.19 221.018C462.075 220.721 461.926 220.295 461.75 219.761C461.399 218.693 460.959 217.207 460.485 215.558C460.012 213.936 459.579 212.469 459.247 211.347C459.099 210.84 458.97 210.414 458.869 210.07C458.781 209.766 458.74 209.597 458.754 209.597L458.747 209.59Z" fill="#E0E0E0"/>
<path d="M463.002 221.545C462.981 221.491 466.005 220.41 469.746 219.133C473.486 217.855 476.537 216.862 476.557 216.916C476.577 216.97 473.561 218.051 469.813 219.329C466.073 220.606 463.022 221.599 463.002 221.545Z" fill="#E0E0E0"/>
<path d="M455.148 237.218C455.148 237.218 455.324 237.184 455.649 237.171C456.014 237.157 456.467 237.13 457.009 237.11C458.152 237.056 459.735 236.975 461.48 236.819C463.225 236.671 464.794 236.481 465.931 236.333C466.465 236.265 466.918 236.204 467.277 236.157C467.594 236.116 467.77 236.103 467.777 236.116C467.777 236.13 467.608 236.17 467.29 236.238C466.972 236.299 466.519 236.387 465.951 236.475C464.814 236.657 463.245 236.873 461.493 237.029C459.748 237.184 458.158 237.245 457.009 237.259C456.434 237.259 455.967 237.259 455.649 237.259C455.331 237.252 455.148 237.238 455.148 237.225V237.218Z" fill="#E0E0E0"/>
<path d="M448.912 227.256C448.912 227.256 449.027 227.378 449.196 227.621C449.385 227.905 449.622 228.25 449.906 228.655C450.495 229.534 451.3 230.757 452.172 232.122C453.045 233.481 453.829 234.717 454.384 235.623C454.641 236.049 454.858 236.407 455.033 236.698C455.182 236.954 455.263 237.096 455.25 237.11C455.236 237.117 455.135 236.988 454.966 236.745C454.776 236.461 454.54 236.116 454.256 235.711C453.667 234.832 452.862 233.609 451.99 232.244C451.117 230.885 450.332 229.649 449.778 228.743C449.521 228.317 449.304 227.959 449.128 227.668C448.979 227.412 448.898 227.27 448.912 227.256Z" fill="#E0E0E0"/>
<path d="M440.213 240.219C440.213 240.219 440.355 240.381 440.572 240.692C440.808 241.036 441.113 241.483 441.485 242.016C442.249 243.138 443.284 244.699 444.427 246.436C445.564 248.167 446.585 249.741 447.315 250.89C447.66 251.438 447.945 251.897 448.168 252.255C448.364 252.58 448.472 252.762 448.459 252.769C448.445 252.776 448.317 252.607 448.1 252.296C447.863 251.951 447.559 251.505 447.187 250.971C446.423 249.849 445.388 248.288 444.245 246.551C443.108 244.821 442.087 243.246 441.356 242.098C441.011 241.55 440.72 241.091 440.504 240.732C440.308 240.408 440.2 240.225 440.213 240.219Z" fill="#E0E0E0"/>
<path d="M448.344 252.404C448.344 252.404 448.567 252.363 448.973 252.33C449.412 252.296 449.994 252.249 450.691 252.188C452.138 252.066 454.141 251.89 456.346 251.64C458.551 251.39 460.539 251.106 461.98 250.897C462.67 250.796 463.245 250.708 463.685 250.647C464.091 250.586 464.314 250.566 464.314 250.579C464.314 250.593 464.097 250.647 463.698 250.728C463.299 250.809 462.718 250.924 462.001 251.046C460.567 251.296 458.578 251.6 456.366 251.85C454.161 252.107 452.152 252.255 450.698 252.343C449.974 252.384 449.379 252.411 448.973 252.418C448.567 252.431 448.337 252.424 448.337 252.418L448.344 252.404Z" fill="#E0E0E0"/>
<path d="M83.7812 70.0773C83.7812 70.0773 79.54 71.7263 84.2817 80.7352C89.0167 89.7441 92.277 94.1978 92.277 94.1978C92.277 94.1978 93.1225 96.2929 91.3571 96.6376C89.5848 96.989 85.6752 96.4078 84.9108 98.5908C84.1194 100.848 85.7766 102.95 89.1181 104.775C92.4529 106.593 99.6161 110.85 100.265 111.242C100.901 111.621 101.544 112.594 100.374 113.027C99.2035 113.459 90.4371 114.48 91.1677 118.609C91.8982 122.738 102.031 126.286 103.134 126.692C104.236 127.104 104.5 127.564 104.419 128.165C104.338 128.767 101.355 128.834 98.8721 129.226C96.3896 129.618 93.5825 130.51 94.2048 132.856C94.8271 135.201 100.861 140.08 115.383 141.324L122.148 141.459L125.76 135.708C132.74 122.921 132.003 115.203 130.393 113.392C128.777 111.574 126.483 113.425 124.786 115.277C123.088 117.129 121.383 119.575 120.842 119.312C120.294 119.048 120.058 118.568 120.321 117.426C120.585 116.284 123.223 105.89 120.186 102.997C117.149 100.105 111.447 106.849 110.446 107.579C109.444 108.316 108.985 107.241 109.018 106.505C109.052 105.755 109.458 97.4351 109.783 93.6504C110.107 89.8657 109.269 87.3246 106.949 86.7366C104.71 86.1689 103.032 89.7441 101.76 91.0282C100.495 92.3122 99.2103 90.4469 99.2103 90.4469C99.2103 90.4469 97.296 85.2701 92.3988 76.349C87.4947 67.428 83.7 70.1314 83.7 70.1314" fill="#EBEBEB"/>
<path d="M122.52 143.034C118.948 136.465 112.793 124.685 107.456 114.601C102.119 104.518 97.2825 95.394 93.7448 88.8114C91.9726 85.5269 90.5386 82.8641 89.5443 81.019C89.0505 80.1067 88.6717 79.3903 88.4011 78.8969C88.2726 78.6604 88.1779 78.4779 88.1103 78.3427C88.0426 78.2143 88.0156 78.1535 88.0156 78.1535C88.0156 78.1535 88.0561 78.2143 88.1306 78.336C88.205 78.4644 88.3064 78.6469 88.4417 78.8766C88.7123 79.3632 89.1114 80.0729 89.6187 80.9785C90.6401 82.8032 92.0944 85.4593 93.8801 88.7438C97.4516 95.3129 102.315 104.423 107.645 114.507C112.982 124.59 119.117 136.383 122.655 142.966" fill="#E0E0E0"/>
<path d="M90.3492 99.6113C90.3492 99.6113 90.5251 99.6451 90.8227 99.7397C91.1203 99.8343 91.5532 99.9762 92.0876 100.165C93.1496 100.537 94.5971 101.091 96.1935 101.733C97.7628 102.369 99.1765 102.95 100.259 103.389C100.746 103.585 101.158 103.747 101.497 103.883C101.787 103.997 101.95 104.065 101.943 104.079C101.936 104.092 101.767 104.052 101.47 103.957C101.172 103.862 100.739 103.714 100.211 103.524C99.1562 103.139 97.7086 102.565 96.1191 101.923C94.5498 101.294 93.1293 100.733 92.0403 100.301C91.5465 100.105 91.1339 99.9424 90.8024 99.814C90.5116 99.6991 90.3492 99.6248 90.356 99.6113H90.3492Z" fill="#E0E0E0"/>
<path d="M102.396 103.646C102.342 103.626 103.357 100.584 104.655 96.8539C105.961 93.1233 107.057 90.1158 107.118 90.1293C107.172 90.1496 106.157 93.1909 104.858 96.9215C103.553 100.652 102.457 103.66 102.396 103.639V103.646Z" fill="#E0E0E0"/>
<path d="M109.891 119.501C109.891 119.501 109.979 119.346 110.161 119.082C110.371 118.785 110.635 118.413 110.953 117.974C111.616 117.041 112.529 115.743 113.483 114.284C114.443 112.824 115.262 111.465 115.843 110.485C116.121 110.019 116.351 109.634 116.54 109.316C116.702 109.039 116.804 108.89 116.817 108.897C116.831 108.904 116.757 109.066 116.615 109.35C116.472 109.634 116.256 110.046 115.979 110.553C115.424 111.56 114.626 112.925 113.665 114.392C112.712 115.858 111.778 117.142 111.081 118.055C110.73 118.508 110.446 118.873 110.236 119.123C110.033 119.373 109.911 119.501 109.898 119.494L109.891 119.501Z" fill="#E0E0E0"/>
<path d="M98.1956 118.251C98.1956 118.251 98.3648 118.237 98.6556 118.251C98.9938 118.271 99.4132 118.305 99.907 118.332C100.962 118.413 102.423 118.535 104.033 118.69C105.643 118.839 107.104 118.987 108.153 119.109C108.646 119.17 109.059 119.217 109.397 119.258C109.688 119.298 109.85 119.325 109.85 119.339C109.85 119.352 109.681 119.352 109.39 119.339C109.052 119.319 108.633 119.285 108.139 119.258C107.084 119.177 105.623 119.055 104.013 118.9C102.403 118.751 100.949 118.602 99.8935 118.481C99.3997 118.42 98.9871 118.372 98.6488 118.332C98.358 118.291 98.1956 118.264 98.1956 118.251Z" fill="#E0E0E0"/>
<path d="M103.032 133.085C103.032 133.085 103.242 133.072 103.621 133.092C104.04 133.119 104.581 133.153 105.224 133.193C106.576 133.288 108.45 133.437 110.52 133.612C112.59 133.788 114.457 133.957 115.81 134.092C116.452 134.16 116.993 134.214 117.413 134.261C117.791 134.309 118.001 134.336 117.994 134.349C117.994 134.363 117.785 134.363 117.406 134.342C116.987 134.315 116.445 134.282 115.803 134.241C114.45 134.146 112.576 133.998 110.506 133.822C108.443 133.646 106.57 133.477 105.217 133.342C104.574 133.275 104.033 133.221 103.614 133.173C103.235 133.126 103.025 133.099 103.032 133.085Z" fill="#E0E0E0"/>
<path d="M117.649 134.214C117.649 134.214 117.758 134.011 117.981 133.673C118.224 133.302 118.542 132.822 118.928 132.234C119.726 131.017 120.829 129.341 121.985 127.449C123.149 125.557 124.157 123.82 124.874 122.563C125.219 121.954 125.509 121.454 125.726 121.069C125.929 120.718 126.051 120.522 126.057 120.535C126.071 120.542 125.976 120.745 125.794 121.11C125.611 121.474 125.34 121.995 124.995 122.637C124.305 123.921 123.318 125.671 122.154 127.564C120.991 129.456 119.875 131.132 119.043 132.322C118.623 132.916 118.285 133.396 118.035 133.721C117.791 134.045 117.649 134.221 117.643 134.214H117.649Z" fill="#E0E0E0"/>
<path d="M43.4463 120.211C45.2253 118.866 47.1531 117.784 49.1756 116.973L49.7844 110.904L59.8089 109.668L61.8787 115.405C64.0365 115.703 66.174 116.284 68.2235 117.156L72.9517 113.297L80.9132 119.508L78.3157 125.023C79.6618 126.8 80.744 128.726 81.5557 130.747L87.63 131.355L88.8678 141.371L83.125 143.439C82.8274 145.595 82.2457 147.731 81.3731 149.778L85.2355 154.503L79.0192 162.457L73.4996 159.862C71.7206 161.207 69.7928 162.288 67.7703 163.099L67.1616 169.168L57.137 170.405L55.0672 164.667C52.9094 164.37 50.7719 163.788 48.7224 162.917L43.9942 166.776L36.0328 160.565L38.6302 155.05C37.2842 153.273 36.2019 151.346 35.3834 149.326L29.3092 148.717L28.0714 138.702L33.8141 136.633C34.1118 134.478 34.6935 132.342 35.5661 130.294L31.7037 125.57L37.92 117.615L43.4396 120.211H43.4463ZM50.2105 133.011C46.5308 137.722 47.3696 144.527 52.0842 148.204C56.7988 151.88 63.6104 151.042 67.2901 146.332C70.9698 141.621 70.131 134.815 65.4164 131.139C60.7018 127.462 53.8902 128.3 50.2105 133.011Z" fill="#EBEBEB"/>
<path d="M332.372 6.34607C333.752 5.51479 335.226 4.87951 336.741 4.44698L337.641 0.121634L344.953 -0.0067749L346.008 4.27802C347.537 4.65648 349.032 5.2377 350.446 6.02167L354.139 3.60218L359.401 8.6777L357.108 12.4489C357.947 13.8276 358.576 15.3009 359.009 16.8147L363.338 17.7136L363.467 25.0194L359.171 26.0737C358.793 27.6011 358.211 29.0947 357.426 30.5072L359.848 34.1972L354.768 39.4552L350.994 37.1641C349.614 38.0022 348.139 38.6307 346.624 39.0632L345.724 43.3886L338.412 43.517L337.357 39.2254C335.828 38.847 334.333 38.2657 332.92 37.4818L329.226 39.9013L323.964 34.8257L326.257 31.0546C325.425 29.6759 324.789 28.2026 324.356 26.6887L320.027 25.7898L319.899 18.4841L324.194 17.4298C324.573 15.9024 325.154 14.4088 325.939 12.9963L323.517 9.30623L328.597 4.04823L332.372 6.33931V6.34607ZM336.268 16.0781C333.258 19.1937 333.346 24.1543 336.464 27.155C339.582 30.1625 344.547 30.0746 347.551 26.959C350.561 23.8434 350.473 18.8828 347.354 15.8753C344.236 12.8679 339.271 12.9557 336.268 16.0713V16.0781Z" fill="#F5F5F5"/>
<path d="M422.667 71.2397C423.539 70.7126 424.466 70.3138 425.42 70.0435L425.988 67.3199L430.594 67.2388L431.257 69.9421C432.225 70.1786 433.165 70.5436 434.051 71.0437L436.378 69.5163L439.692 72.713L438.251 75.092C438.779 75.9638 439.178 76.8897 439.449 77.8494L442.175 78.4171L442.256 83.0195L439.55 83.6818C439.313 84.6483 438.948 85.5877 438.448 86.473L439.976 88.7979L436.777 92.1095L434.396 90.67C433.523 91.1971 432.597 91.5958 431.636 91.8662L431.068 94.5898L426.461 94.6709L425.799 91.9676C424.831 91.731 423.891 91.3661 423.005 90.8659L420.678 92.3933L417.364 89.1966L418.804 86.8177C418.277 85.9459 417.878 85.02 417.607 84.0603L414.881 83.4926L414.8 78.8902L417.506 78.2278C417.742 77.2614 418.108 76.322 418.608 75.4366L417.08 73.1118L420.279 69.8002L422.66 71.2465L422.667 71.2397ZM425.122 77.3763C423.228 79.343 423.282 82.4653 425.244 84.3644C427.206 86.2568 430.337 86.2027 432.238 84.2428C434.132 82.2829 434.078 79.1537 432.116 77.2546C430.155 75.3623 427.023 75.4164 425.122 77.3763Z" fill="#F5F5F5"/>
<path d="M36.4995 50.424C38.1973 49.4035 39.9966 48.6263 41.8568 48.0991L42.9593 42.8006L51.9219 42.6451L53.2138 47.9031C55.0943 48.3627 56.9206 49.0791 58.6522 50.0388L63.1842 47.0719L69.6373 53.2963L66.8301 57.9258C67.8515 59.6221 68.6294 61.4198 69.157 63.2851L74.4601 64.3867L74.6157 73.3416L69.3532 74.6324C68.8932 76.5112 68.1762 78.336 67.2157 80.0661L70.1852 84.5942L63.9553 91.0417L59.3219 88.2369C57.6241 89.2575 55.8248 90.0347 53.9579 90.5618L52.8553 95.8604L43.8928 96.0158L42.6008 90.7578C40.7204 90.2982 38.894 89.5819 37.1624 88.6222L32.6304 91.5891L26.1774 85.3647L28.9845 80.7352C27.9631 79.0388 27.1852 77.2411 26.6576 75.3758L21.3545 74.2742L21.1989 65.3194L26.4615 64.0285C26.9214 62.1497 27.6384 60.325 28.599 58.5948L25.6295 54.0667L31.8593 47.6193L36.4928 50.424H36.4995ZM41.275 62.3525C37.5886 66.1709 37.69 72.2535 41.5118 75.9368C45.3336 79.6201 51.4213 79.5187 55.1078 75.7002C58.7943 71.8818 58.6928 65.7992 54.8711 62.1159C51.0493 58.4326 44.9615 58.534 41.275 62.3525Z" fill="#F5F5F5"/>
<path d="M426.002 112.216C427.381 111.384 428.856 110.749 430.371 110.316L431.271 105.991L438.583 105.863L439.638 110.148C441.167 110.526 442.662 111.107 444.075 111.891L447.769 109.472L453.031 114.547L450.738 118.318C451.577 119.697 452.206 121.17 452.639 122.684L456.968 123.583L457.096 130.889L452.801 131.943C452.422 133.471 451.841 134.964 451.056 136.377L453.478 140.067L448.398 145.325L444.623 143.034C443.243 143.865 441.769 144.5 440.254 144.933L439.354 149.258L432.042 149.386L430.987 145.095C429.458 144.716 427.963 144.135 426.549 143.351L422.856 145.771L417.594 140.695L419.887 136.924C419.055 135.545 418.419 134.072 417.986 132.558L413.657 131.659L413.528 124.354L417.824 123.299C418.202 121.772 418.784 120.278 419.569 118.866L417.147 115.176L422.227 109.918L426.002 112.209V112.216ZM429.898 121.948C426.888 125.063 426.976 130.024 430.094 133.031C433.212 136.039 438.177 135.951 441.18 132.835C444.19 129.72 444.102 124.759 440.984 121.758C437.866 118.751 432.901 118.839 429.898 121.954V121.948Z" fill="#EBEBEB"/>
<path d="M266.976 25.8575C269.106 24.5734 271.372 23.6002 273.706 22.9311L275.093 16.2741L286.355 16.0781L287.978 22.681C290.339 23.2622 292.639 24.1543 294.81 25.3641L300.499 21.6402L308.602 29.4529L305.078 35.2651C306.363 37.3939 307.337 39.658 308.007 41.9964L314.67 43.3818L314.866 54.6345L308.257 56.2565C307.676 58.6152 306.783 60.913 305.572 63.0824L309.299 68.7662L301.48 76.8627L295.662 73.3416C293.532 74.6257 291.266 75.5989 288.925 76.268L287.539 82.9249L276.276 83.1209L274.653 76.518C272.292 75.9368 269.992 75.0447 267.821 73.835L262.132 77.5588L254.029 69.7462L257.553 63.934C256.268 61.8051 255.294 59.541 254.624 57.2027L247.961 55.8172L247.765 44.5646L254.374 42.9426C254.956 40.5839 255.848 38.2861 257.059 36.1166L253.332 30.4329L261.152 22.3364L266.969 25.8642L266.976 25.8575ZM272.975 40.8475C268.342 45.6459 268.477 53.2828 273.273 57.9123C278.076 62.5418 285.719 62.4066 290.353 57.6149C294.986 52.8165 294.851 45.1796 290.055 40.5501C285.252 35.9206 277.609 36.0558 272.975 40.8475Z" fill="#EBEBEB"/>
<path d="M479.79 261.778C479.79 261.872 372.375 261.953 239.905 261.953C107.436 261.953 0 261.872 0 261.778C0 261.683 107.388 261.602 239.905 261.602C372.422 261.602 479.79 261.683 479.79 261.778Z" fill="black"/>
<path d="M369.48 53.7289H133.971C129.913 53.7289 126.619 57.0202 126.619 61.0752V227.276C126.619 231.331 129.913 234.623 133.971 234.623H224.361C224.361 234.623 230.111 252.384 212.287 261.575H296.806C296.806 261.575 276.682 254.682 281.857 234.623H369.487C373.545 234.623 376.839 231.331 376.839 227.276V61.0752C376.839 57.0202 373.545 53.7289 369.487 53.7289H369.48Z" fill="#455A64"/>
<path d="M254.868 217.139C258.074 221.714 253.055 226.722 248.476 223.526C248.327 223.417 248.185 223.282 248.083 223.134C244.891 218.558 249.896 213.557 254.475 216.747C254.624 216.855 254.766 216.99 254.868 217.139Z" fill="black"/>
<path d="M137.232 56.7769H366.213C369.832 56.7769 372.774 59.7168 372.774 63.3325V204.217H130.677V63.3325C130.677 59.7168 133.62 56.7769 137.239 56.7769H137.232Z" fill="white"/>
<path d="M136.866 56.7769H367.687C370.495 56.7769 372.774 59.0545 372.774 61.8592V69.0298H130.677V62.9676C130.677 59.5546 133.451 56.7837 136.866 56.7837V56.7769Z" fill="#EBEBEB"/>
<path d="M138.382 64.8531C139.319 64.8531 140.079 64.0937 140.079 63.1568C140.079 62.2199 139.319 61.4604 138.382 61.4604C137.444 61.4604 136.684 62.2199 136.684 63.1568C136.684 64.0937 137.444 64.8531 138.382 64.8531Z" fill="#E0E0E0"/>
<path d="M143.455 64.8531C144.393 64.8531 145.153 64.0937 145.153 63.1568C145.153 62.2199 144.393 61.4604 143.455 61.4604C142.517 61.4604 141.757 62.2199 141.757 63.1568C141.757 64.0937 142.517 64.8531 143.455 64.8531Z" fill="#E0E0E0"/>
<path d="M148.278 64.8531C149.215 64.8531 149.975 64.0937 149.975 63.1568C149.975 62.2199 149.215 61.4604 148.278 61.4604C147.34 61.4604 146.58 62.2199 146.58 63.1568C146.58 64.0937 147.34 64.8531 148.278 64.8531Z" fill="#E0E0E0"/>
<path d="M327.373 234.643C327.373 234.724 293.863 234.785 252.527 234.785C211.191 234.785 177.675 234.724 177.675 234.643C177.675 234.562 211.178 234.501 252.527 234.501C293.877 234.501 327.373 234.562 327.373 234.643Z" fill="black"/>
<path d="M372.226 88.852H130.758V142.709H372.226V88.852Z" fill="#F5F5F5"/>
<path d="M171.533 74.673H136.684V83.7832H171.533V74.673Z" fill="#F5F5F5"/>
<path d="M366.49 74.673H347.408V83.7832H366.49V74.673Z" fill="#F5F5F5"/>
<path d="M341.679 74.673H310.456V83.7832H341.679V74.673Z" fill="#F5F5F5"/>
<path d="M303.962 74.673H272.739V83.7832H303.962V74.673Z" fill="#F5F5F5"/>
<path d="M355.329 157.882H142.515V167.425H355.329V157.882Z" fill="#F5F5F5"/>
<path d="M355.329 175.649H142.515V185.192H355.329V175.649Z" fill="#F5F5F5"/>
<path d="M226.309 121.238L232.174 115.379L242.408 124.698L260.435 106.701L265.88 112.56L241.569 135.998L226.309 121.238Z" fill="#FF8E70"/>
<path d="M234.744 107.498C234.67 107.559 233.736 106.579 232.661 105.309C231.585 104.038 230.774 102.957 230.848 102.896C230.922 102.835 231.856 103.815 232.931 105.086C234.007 106.356 234.819 107.437 234.744 107.498Z" fill="black"/>
<path d="M242.611 106.64C242.516 106.64 242.3 103.714 242.137 100.091C241.968 96.4687 241.914 93.5288 242.016 93.5288C242.11 93.5288 242.327 96.4552 242.489 100.078C242.658 103.7 242.712 106.633 242.611 106.64Z" fill="black"/>
<path d="M254.766 102.626C254.841 102.686 253.995 103.883 252.865 105.302C251.743 106.721 250.769 107.823 250.687 107.762C250.613 107.701 251.459 106.505 252.588 105.086C253.711 103.666 254.685 102.565 254.766 102.626Z" fill="black"/>
<path d="M416.647 103.795H316.354C313.638 103.795 311.437 105.994 311.437 108.708V256.783C311.437 259.497 313.638 261.697 316.354 261.697H416.647C419.363 261.697 421.564 259.497 421.564 256.783V108.708C421.564 105.994 419.363 103.795 416.647 103.795Z" fill="#E0E0E0"/>
<path d="M416.64 261.69C416.64 261.69 416.755 261.676 416.985 261.663C417.208 261.649 417.553 261.602 417.979 261.48C418.818 261.244 420.137 260.595 420.969 259.027C421.172 258.642 421.321 258.203 421.422 257.723C421.517 257.243 421.517 256.729 421.51 256.189C421.51 255.107 421.51 253.918 421.503 252.634C421.503 250.066 421.497 247.099 421.49 243.767C421.476 230.419 421.456 211.11 421.436 187.254C421.436 175.325 421.422 162.254 421.415 148.224C421.415 141.209 421.415 133.957 421.409 126.482C421.409 122.745 421.409 118.954 421.409 115.115C421.409 113.196 421.409 111.263 421.409 109.31C421.409 108.816 421.429 108.343 421.334 107.877C421.246 107.417 421.111 106.958 420.888 106.539C420.462 105.694 419.758 104.991 418.926 104.525C418.507 104.302 418.054 104.139 417.58 104.045C417.107 103.95 416.633 103.95 416.133 103.957C415.138 103.957 414.144 103.957 413.143 103.957C411.147 103.957 409.138 103.957 407.116 103.957C403.071 103.957 398.985 103.957 394.852 103.957C386.587 103.957 378.152 103.957 369.561 103.957C352.38 103.957 334.59 103.957 316.374 103.957C315.272 103.957 314.183 104.349 313.337 105.045C312.492 105.748 311.91 106.741 311.707 107.809C311.592 108.343 311.633 108.897 311.619 109.465V111.155C311.619 112.283 311.619 113.405 311.619 114.534C311.619 119.028 311.619 123.495 311.619 127.929C311.619 136.796 311.619 145.534 311.619 154.117C311.619 171.284 311.612 187.848 311.606 203.622C311.606 219.396 311.592 234.393 311.592 248.417C311.592 250.167 311.592 251.911 311.592 253.634C311.592 254.492 311.592 255.351 311.592 256.209C311.565 257.067 311.646 257.885 311.978 258.649C312.627 260.163 314.088 261.284 315.698 261.487C316.097 261.548 316.503 261.541 316.922 261.541H318.16C318.985 261.541 319.804 261.541 320.616 261.541C327.136 261.541 333.386 261.548 339.359 261.555C363.237 261.575 382.562 261.595 395.921 261.609C402.597 261.622 407.779 261.636 411.296 261.643C413.048 261.649 414.387 261.656 415.294 261.663C416.193 261.663 416.653 261.683 416.653 261.683C416.653 261.683 416.193 261.697 415.294 261.703C414.387 261.703 413.048 261.71 411.296 261.724C407.779 261.731 402.591 261.744 395.921 261.758C382.562 261.771 363.237 261.791 339.359 261.812C333.386 261.812 327.136 261.818 320.616 261.825C319.804 261.825 318.985 261.825 318.16 261.825H316.922C316.516 261.825 316.09 261.839 315.664 261.771C313.96 261.562 312.411 260.379 311.727 258.77C311.376 257.973 311.288 257.06 311.315 256.216C311.315 255.364 311.315 254.506 311.315 253.641C311.315 251.917 311.315 250.18 311.315 248.423C311.315 234.393 311.301 219.403 311.301 203.629C311.301 187.855 311.301 171.29 311.288 154.124C311.288 145.541 311.288 136.802 311.288 127.936C311.288 123.502 311.288 119.035 311.288 114.54C311.288 113.419 311.288 112.29 311.288 111.161V109.472C311.294 108.918 311.254 108.33 311.376 107.748C311.592 106.599 312.221 105.525 313.128 104.775C314.034 104.024 315.211 103.605 316.388 103.605C334.604 103.605 352.394 103.605 369.575 103.605C378.165 103.605 386.6 103.605 394.866 103.605C398.999 103.605 403.084 103.605 407.129 103.605C409.152 103.605 411.161 103.605 413.156 103.605C414.157 103.605 415.152 103.605 416.146 103.605C416.633 103.605 417.154 103.605 417.661 103.707C418.162 103.815 418.649 103.984 419.095 104.22C419.988 104.714 420.732 105.464 421.185 106.37C421.429 106.816 421.571 107.309 421.666 107.802C421.767 108.303 421.74 108.809 421.747 109.289C421.747 111.236 421.747 113.169 421.747 115.095C421.747 118.94 421.747 122.732 421.747 126.462C421.747 133.937 421.747 141.189 421.74 148.204C421.733 162.234 421.727 175.298 421.72 187.233C421.7 211.09 421.679 230.399 421.666 243.747C421.666 247.085 421.652 250.045 421.652 252.613C421.652 253.898 421.652 255.08 421.645 256.168C421.645 256.709 421.645 257.236 421.544 257.723C421.436 258.203 421.287 258.655 421.077 259.041C420.225 260.622 418.886 261.264 418.04 261.501C417.607 261.622 417.262 261.656 417.032 261.663C416.802 261.67 416.687 261.67 416.687 261.67L416.64 261.69Z" fill="black"/>
<path d="M416.64 261.69C416.64 261.69 416.755 261.683 416.985 261.67C417.1 261.67 417.242 261.649 417.404 261.616C417.573 261.595 417.763 261.548 417.979 261.487C418.405 261.359 418.933 261.149 419.474 260.764C420.008 260.379 420.57 259.811 420.976 259.034C421.179 258.649 421.327 258.203 421.436 257.73C421.53 257.25 421.53 256.736 421.524 256.189C421.524 255.107 421.524 253.918 421.524 252.634C421.524 250.066 421.524 247.099 421.517 243.767C421.51 230.419 421.497 211.111 421.483 187.254C421.483 175.325 421.476 162.254 421.47 148.224C421.47 141.209 421.47 133.957 421.47 126.482C421.47 122.745 421.47 118.954 421.47 115.115C421.47 113.196 421.47 111.263 421.47 109.31C421.47 108.823 421.49 108.336 421.395 107.87C421.307 107.404 421.172 106.937 420.942 106.512C420.509 105.653 419.799 104.944 418.953 104.471C418.527 104.248 418.067 104.079 417.594 103.984C417.113 103.889 416.633 103.889 416.133 103.889C415.138 103.889 414.144 103.889 413.143 103.889C411.147 103.889 409.138 103.889 407.116 103.889C403.071 103.889 398.985 103.889 394.852 103.889C386.587 103.889 378.152 103.889 369.561 103.889C352.38 103.889 334.59 103.889 316.374 103.889C315.258 103.889 314.156 104.281 313.297 104.991C312.444 105.701 311.849 106.708 311.646 107.796C311.531 108.336 311.565 108.897 311.558 109.465V111.155C311.558 112.283 311.558 113.405 311.558 114.534C311.558 119.028 311.558 123.495 311.558 127.929C311.558 136.796 311.558 145.534 311.558 154.117C311.558 171.284 311.558 187.848 311.558 203.622C311.558 219.396 311.552 234.393 311.552 248.417C311.552 250.167 311.552 251.911 311.552 253.634C311.552 254.492 311.552 255.351 311.552 256.209C311.552 256.635 311.538 257.061 311.606 257.473C311.653 257.885 311.788 258.284 311.944 258.669C312.6 260.196 314.075 261.332 315.705 261.535C316.104 261.595 316.516 261.589 316.936 261.589C317.348 261.589 317.761 261.589 318.174 261.589C318.999 261.589 319.817 261.589 320.629 261.589C327.15 261.589 333.4 261.589 339.373 261.595C363.25 261.609 382.575 261.622 395.935 261.629C402.611 261.636 407.792 261.643 411.31 261.649C413.068 261.649 414.408 261.656 415.307 261.663C416.207 261.663 416.667 261.676 416.667 261.676C416.667 261.676 416.207 261.683 415.307 261.69C414.408 261.69 413.062 261.69 411.31 261.704C407.792 261.704 402.611 261.717 395.935 261.724C382.575 261.731 363.25 261.744 339.373 261.758C333.4 261.758 327.15 261.758 320.629 261.764C319.817 261.764 318.992 261.764 318.174 261.764C317.761 261.764 317.348 261.764 316.936 261.764C316.523 261.764 316.104 261.771 315.684 261.71C314 261.501 312.465 260.332 311.788 258.743C311.633 258.345 311.491 257.932 311.437 257.5C311.369 257.074 311.376 256.635 311.376 256.209C311.376 255.357 311.376 254.499 311.376 253.634C311.376 251.911 311.376 250.174 311.376 248.417C311.376 234.386 311.376 219.396 311.362 203.622C311.362 187.848 311.362 171.284 311.362 154.117C311.362 145.534 311.362 136.796 311.362 127.929C311.362 123.495 311.362 119.028 311.362 114.534C311.362 113.412 311.362 112.283 311.362 111.155V109.465C311.369 108.904 311.328 108.33 311.45 107.755C311.667 106.62 312.289 105.565 313.182 104.822C314.075 104.079 315.238 103.673 316.401 103.666C334.617 103.666 352.407 103.666 369.588 103.666C378.179 103.666 386.614 103.666 394.88 103.666C399.012 103.666 403.098 103.666 407.143 103.666C409.165 103.666 411.174 103.666 413.17 103.666C414.171 103.666 415.165 103.666 416.16 103.666C416.653 103.666 417.161 103.666 417.661 103.761C418.155 103.862 418.635 104.038 419.082 104.275C419.961 104.761 420.698 105.505 421.152 106.397C421.388 106.836 421.53 107.323 421.625 107.809C421.727 108.303 421.7 108.803 421.706 109.283C421.706 111.229 421.706 113.162 421.706 115.088C421.706 118.933 421.706 122.725 421.706 126.455C421.706 133.93 421.706 141.182 421.706 148.197C421.706 162.227 421.699 175.291 421.693 187.227C421.679 211.083 421.666 230.399 421.659 243.74C421.659 247.078 421.652 250.039 421.652 252.607C421.652 253.891 421.652 255.074 421.652 256.162C421.652 256.702 421.652 257.223 421.557 257.709C421.449 258.189 421.3 258.635 421.091 259.027C420.678 259.811 420.11 260.372 419.569 260.764C419.021 261.156 418.487 261.359 418.06 261.487C417.844 261.548 417.648 261.595 417.479 261.609C417.31 261.636 417.168 261.656 417.053 261.656C416.823 261.663 416.708 261.67 416.708 261.67L416.64 261.69Z" fill="black"/>
<path d="M370.725 253.756C370.725 256.087 368.831 257.98 366.497 257.98C364.163 257.98 362.269 256.087 362.269 253.756C362.269 251.424 364.163 249.532 366.497 249.532C368.831 249.532 370.725 251.424 370.725 253.756Z" fill="white"/>
<path d="M380.255 111.384H357.764C356.899 111.384 356.195 110.681 356.195 109.816C356.195 108.951 356.899 108.248 357.764 108.248H380.255C381.121 108.248 381.825 108.951 381.825 109.816C381.825 110.681 381.121 111.384 380.255 111.384Z" fill="#EBEBEB"/>
<path d="M416.349 115.054H316.456C315.548 115.054 314.812 115.789 314.812 116.696V245.281C314.812 246.188 315.548 246.923 316.456 246.923H416.349C417.257 246.923 417.993 246.188 417.993 245.281V116.696C417.993 115.789 417.257 115.054 416.349 115.054Z" fill="white"/>
<path d="M416.342 246.923C416.342 246.923 416.444 246.923 416.64 246.882C416.836 246.842 417.134 246.747 417.425 246.484C417.715 246.227 417.986 245.761 417.952 245.166C417.952 244.571 417.952 243.888 417.945 243.111C417.939 239.996 417.925 235.407 417.912 229.5C417.898 217.68 417.878 200.574 417.857 179.448C417.857 168.884 417.844 157.307 417.837 144.885C417.837 138.675 417.837 132.247 417.83 125.631C417.83 123.975 417.83 122.313 417.83 120.63C417.83 119.792 417.83 118.947 417.83 118.102V116.832C417.851 116.419 417.742 116.048 417.492 115.743C417.249 115.446 416.883 115.25 416.498 115.21C416.106 115.196 415.652 115.21 415.233 115.203C414.374 115.203 413.515 115.203 412.656 115.203C410.931 115.203 409.193 115.203 407.447 115.203C379.484 115.203 348.741 115.21 316.476 115.216C316.023 115.216 315.576 115.426 315.306 115.784C315.17 115.96 315.069 116.169 315.028 116.392C314.988 116.602 315.001 116.852 315.001 117.109C315.001 118.116 315.001 119.116 315.001 120.116C315.001 122.117 315.001 124.117 315.001 126.111C315.001 130.091 315.001 134.045 315.001 137.972C315.001 145.825 315.001 153.563 315.001 161.166C315.001 176.373 314.995 191.038 314.988 205.008C314.988 218.977 314.974 232.257 314.974 244.679V245.26C314.974 245.436 315.008 245.612 315.069 245.781C315.191 246.112 315.434 246.396 315.739 246.565C316.056 246.747 316.388 246.774 316.787 246.761H317.937C319.466 246.761 320.981 246.761 322.476 246.761C325.479 246.761 328.421 246.761 331.303 246.761C337.073 246.761 342.613 246.768 347.902 246.774C369.047 246.795 386.16 246.815 397.991 246.828C403.903 246.842 408.489 246.855 411.607 246.862C413.163 246.869 414.347 246.876 415.152 246.882C415.95 246.882 416.356 246.903 416.356 246.903C416.356 246.903 415.95 246.916 415.152 246.923C414.347 246.923 413.163 246.93 411.607 246.943C408.489 246.95 403.896 246.964 397.991 246.977C386.16 246.991 369.047 247.011 347.902 247.031C342.613 247.031 337.073 247.038 331.303 247.045C328.415 247.045 325.472 247.045 322.476 247.045C320.974 247.045 319.459 247.045 317.937 247.045H316.787C316.422 247.065 315.955 247.031 315.597 246.815C315.231 246.612 314.94 246.274 314.798 245.875C314.724 245.679 314.69 245.47 314.683 245.254V244.672C314.683 232.244 314.67 218.97 314.67 205.001C314.67 191.031 314.67 176.366 314.656 161.16C314.656 153.556 314.656 145.818 314.656 137.965C314.656 134.038 314.656 130.085 314.656 126.104C314.656 124.11 314.656 122.117 314.656 120.109V117.102C314.656 116.859 314.636 116.602 314.69 116.318C314.744 116.048 314.866 115.784 315.035 115.568C315.373 115.122 315.928 114.858 316.483 114.858C348.748 114.858 379.491 114.865 407.454 114.872C409.199 114.872 410.938 114.872 412.663 114.872C413.528 114.872 414.387 114.872 415.24 114.872C415.673 114.872 416.078 114.865 416.538 114.878C417.005 114.926 417.445 115.162 417.742 115.527C418.047 115.879 418.182 116.379 418.155 116.818V118.089C418.155 118.933 418.155 119.778 418.155 120.616C418.155 122.292 418.155 123.962 418.155 125.617C418.155 132.234 418.155 138.661 418.148 144.872C418.142 157.294 418.135 168.871 418.128 179.434C418.108 200.561 418.087 217.659 418.074 229.486C418.06 235.393 418.047 239.982 418.04 243.098C418.04 243.875 418.04 244.558 418.033 245.152C418.06 245.76 417.776 246.234 417.472 246.497C417.168 246.768 416.863 246.855 416.66 246.889C416.457 246.923 416.356 246.909 416.356 246.909L416.342 246.923Z" fill="black"/>
<path d="M417.567 133.836H315.427V171.196H417.567V133.836Z" fill="#F5F5F5"/>
<path d="M341.875 121.191H317.7V127.51H341.875V121.191Z" fill="#F5F5F5"/>
<path d="M415.551 121.191H393.892V127.51H415.551V121.191Z" fill="#F5F5F5"/>
<path d="M389.773 121.191H368.114V127.51H389.773V121.191Z" fill="#F5F5F5"/>
<path d="M408.976 190.443H321.772V197.067H408.976V190.443Z" fill="#F5F5F5"/>
<path d="M408.976 177.913H321.772V184.537H408.976V177.913Z" fill="#F5F5F5"/>
<path d="M408.976 216.091H321.772V222.715H408.976V216.091Z" fill="#F5F5F5"/>
<path d="M408.976 203.561H321.772V210.185H408.976V203.561Z" fill="#F5F5F5"/>
<path d="M346.712 166.722L352.576 160.862L362.804 170.175L380.837 152.184L386.282 158.044L361.965 181.482L346.712 166.722Z" fill="#FF8E70"/>
<path d="M449.852 261.879L407.19 261.852C402.056 261.852 397.903 257.702 397.903 252.593L397.923 146.034C397.923 140.918 402.09 136.775 407.224 136.775L449.886 136.802C455.02 136.802 459.173 140.952 459.173 146.061L459.153 252.62C459.153 257.736 454.986 261.879 449.852 261.879Z" fill="black"/>
<path d="M450.15 139.979L441.85 139.938C440.734 139.938 439.828 140.871 439.828 142.033V143.541C439.814 144.703 438.908 145.642 437.798 145.636L421.618 145.561C420.502 145.561 419.609 144.608 419.609 143.446V141.939C419.623 140.776 418.723 139.83 417.607 139.823L414.685 139.81L407.42 139.776C403.815 139.763 400.873 142.669 400.859 146.271L400.419 250.944C400.406 254.546 403.314 257.479 406.92 257.5L449.649 257.696C453.254 257.709 456.197 254.803 456.21 251.201L456.65 146.528C456.664 142.925 453.755 139.992 450.15 139.972V139.979Z" fill="white"/>
<path d="M456.339 158.612H400.737V178.947H456.339V158.612Z" fill="#F5F5F5"/>
<path d="M415.131 151.732H401.975V155.172H415.131V151.732Z" fill="#F5F5F5"/>
<path d="M455.236 151.732H443.446V155.172H455.236V151.732Z" fill="#F5F5F5"/>
<path d="M441.207 151.732H429.417V155.172H441.207V151.732Z" fill="#F5F5F5"/>
<path d="M451.665 189.423H404.194V193.025H451.665V189.423Z" fill="#F5F5F5"/>
<path d="M451.665 182.604H404.194V186.206H451.665V182.604Z" fill="#F5F5F5"/>
<path d="M451.665 203.386H404.194V206.988H451.665V203.386Z" fill="#F5F5F5"/>
<path d="M451.665 209.766H404.194V213.368H451.665V209.766Z" fill="#F5F5F5"/>
<path d="M451.665 217.051H404.194V220.653H451.665V217.051Z" fill="#F5F5F5"/>
<path d="M451.665 224.343H404.194V227.946H451.665V224.343Z" fill="#F5F5F5"/>
<path d="M451.665 231.629H404.194V235.231H451.665V231.629Z" fill="#F5F5F5"/>
<path d="M451.665 196.567H404.194V200.169H451.665V196.567Z" fill="#F5F5F5"/>
<path d="M413.481 203L418.074 198.412L426.928 206.272L444.305 189.565L448.567 194.154L426.272 215.118L413.481 203Z" fill="#FF8E70"/>
<path d="M187.632 136.904H22.5721C17.1291 136.904 12.7166 141.312 12.7166 146.751V249.14C12.7166 254.578 17.1291 258.987 22.5721 258.987H187.632C193.075 258.987 197.487 254.578 197.487 249.14V146.751C197.487 141.312 193.075 136.904 187.632 136.904Z" fill="black"/>
<path d="M5.49249 251.1H205.679V251.573C205.679 257.202 201.099 261.778 195.465 261.778H15.7064C10.0718 261.778 5.49249 257.202 5.49249 251.573V251.1Z" fill="black"/>
<path d="M192.008 141.75H17.6748V244.848H192.008V141.75Z" fill="black"/>
<path d="M86.8859 249.951L89.3684 253.904H124.326L126.632 249.951H86.8859Z" fill="#455A64"/>
<path d="M23.4784 145.244H186.563C187.787 145.244 188.775 146.237 188.775 147.454V242.307C188.775 243.53 187.78 244.517 186.563 244.517H23.4784C22.2541 244.517 21.2665 243.523 21.2665 242.307V147.454C21.2665 146.23 22.2609 145.244 23.4784 145.244Z" fill="#EBEBEB"/>
<path d="M188.599 244.666H21.0839L21.2666 152.664H188.599V244.666Z" fill="white"/>
<path d="M35.0046 149.076C35.0046 149.812 34.4026 150.414 33.6653 150.414C32.928 150.414 32.326 149.812 32.326 149.076C32.326 148.339 32.928 147.737 33.6653 147.737C34.4026 147.737 35.0046 148.339 35.0046 149.076Z" fill="black"/>
<path d="M26.8943 149.076C26.8943 149.812 26.2923 150.414 25.555 150.414C24.8177 150.414 24.2157 149.812 24.2157 149.076C24.2157 148.339 24.8177 147.737 25.555 147.737C26.2923 147.737 26.8943 148.339 26.8943 149.076Z" fill="black"/>
<path d="M30.7905 149.076C30.7905 149.812 30.1885 150.414 29.4512 150.414C28.7139 150.414 28.1119 149.812 28.1119 149.076C28.1119 148.339 28.7139 147.737 29.4512 147.737C30.1885 147.737 30.7905 148.339 30.7905 149.076Z" fill="black"/>
<path d="M195.898 249.951C195.898 250.018 154.886 250.072 104.31 250.072C53.7347 250.072 12.7166 250.018 12.7166 249.951C12.7166 249.883 53.7211 249.829 104.31 249.829C154.9 249.829 195.898 249.883 195.898 249.951Z" fill="#455A64"/>
<path d="M188.775 167.492H21.2666V204.852H188.775V167.492Z" fill="#F5F5F5"/>
<path d="M49.5544 157.652H25.3792V163.971H49.5544V157.652Z" fill="#F5F5F5"/>
<path d="M184.804 157.652H171.567V163.971H184.804V157.652Z" fill="#F5F5F5"/>
<path d="M167.583 157.652H145.924V163.971H167.583V157.652Z" fill="#F5F5F5"/>
<path d="M141.419 157.652H119.76V163.971H141.419V157.652Z" fill="#F5F5F5"/>
<path d="M177.086 226.898H29.4512V233.521H177.086V226.898Z" fill="#F5F5F5"/>
<path d="M177.086 214.375H29.4512V220.998H177.086V214.375Z" fill="#F5F5F5"/>
<path d="M83.7879 192.349L89.6524 186.49L100.969 196.539L123.176 175.183L128.621 181.049L100.13 207.839L83.7879 192.349Z" fill="#FF8E70"/>
<path d="M152.37 113.331C178.412 113.331 199.523 92.2377 199.523 66.2183C199.523 40.1988 178.412 19.1058 152.37 19.1058C126.328 19.1058 105.217 40.1988 105.217 66.2183C105.217 92.2377 126.328 113.331 152.37 113.331Z" fill="#FF8E70"/>
<path opacity="0.3" d="M152.37 113.331C178.412 113.331 199.523 92.2377 199.523 66.2183C199.523 40.1988 178.412 19.1058 152.37 19.1058C126.328 19.1058 105.217 40.1988 105.217 66.2183C105.217 92.2377 126.328 113.331 152.37 113.331Z" fill="black"/>
<path d="M151.105 110.316C177.147 110.316 198.258 89.2235 198.258 63.204C198.258 37.1846 177.147 16.0916 151.105 16.0916C125.063 16.0916 103.952 37.1846 103.952 63.204C103.952 89.2235 125.063 110.316 151.105 110.316Z" fill="#FF8E70"/>
<path d="M165.394 96.9734C184.053 89.0904 192.784 67.5865 184.894 48.9431C177.004 30.2997 155.482 21.5766 136.822 29.4595C118.163 37.3425 109.432 58.8464 117.322 77.4898C125.212 96.1333 146.734 104.856 165.394 96.9734Z" fill="white"/>
<path d="M169.356 81.4389C179.437 71.3674 179.437 55.0381 169.356 44.9666C159.276 34.895 142.933 34.895 132.853 44.9666C122.772 55.0381 122.772 71.3674 132.853 81.4389C142.933 91.5105 159.276 91.5105 169.356 81.4389Z" fill="#FF8E70"/>
<path d="M156.519 75.6863C163.419 72.6975 166.587 64.6862 163.595 57.7927C160.604 50.8991 152.586 47.7337 145.686 50.7225C138.787 53.7114 135.619 61.7226 138.61 68.6161C141.601 75.5097 149.62 78.6751 156.519 75.6863Z" fill="white"/>
<path d="M187.584 25.0464L186.306 14.99L196.547 4.0415L197.284 14.8886L187.584 25.0464Z" fill="#455A64"/>
<path d="M209.568 17.0446L199.178 16.1998L188.761 26.2089L199.178 27.324L209.568 17.0446Z" fill="#455A64"/>
<path opacity="0.3" d="M151.105 63.9948L189.817 36.2923C188.592 34.4608 186.631 32.0616 184.899 30.2233L151.734 62.2579L151.098 63.9948H151.105Z" fill="black"/>
<path d="M198.82 12.7935C197.203 14.4358 195.58 16.0713 193.963 17.7136C190.074 21.6537 186.184 25.5871 182.295 29.5272C177.607 34.2716 172.926 39.0092 168.239 43.7535C164.167 47.8761 160.101 51.9919 156.029 56.1145C154.054 58.115 151.984 60.0614 150.084 62.1295C150.057 62.1565 150.03 62.1903 149.996 62.2173C148.846 63.3798 150.638 65.1707 151.788 64.0083C153.405 62.366 155.028 60.7305 156.645 59.0882C160.534 55.1481 164.424 51.2147 168.313 47.2746C173.001 42.5303 177.682 37.7927 182.369 33.0483C186.441 28.9257 190.506 24.8099 194.579 20.6873C196.554 18.6868 198.624 16.7404 200.524 14.6724C200.551 14.6453 200.578 14.6115 200.612 14.5845C201.762 13.4221 199.97 11.6311 198.82 12.7935Z" fill="black"/>
<path d="M282.513 135.572C280.917 135.681 279.341 134.437 279.077 132.856C278.813 131.281 279.888 129.591 281.431 129.166C280.49 128.104 280.321 126.435 281.032 125.212C281.742 123.989 283.277 123.299 284.664 123.59C284.786 122.198 285.685 120.9 286.943 120.292C288.202 119.684 289.778 119.785 290.941 120.555C292.544 119.305 295.033 119.379 296.569 120.711C297.935 120.528 299.383 121.319 299.958 122.569C300.533 123.82 300.201 125.435 299.173 126.354" fill="black"/>
<path d="M282.019 136.005C282.932 128.848 289.196 123.597 296.407 123.935L297.124 123.968C304.828 124.779 308.447 131.774 307.419 139.445L305.099 165.1L304.49 171.148L286.977 169.08L287.309 162.532C287.309 162.532 279.936 161.031 280.193 153.604C280.315 150.015 281.174 142.655 282.026 135.998L282.019 136.005Z" fill="#99655C"/>
<path d="M287.248 162.518C287.248 162.518 291.976 163.025 297.11 160.126C297.11 160.126 294.573 165.357 287.194 164.343L287.248 162.518Z" fill="#744A45"/>
<path d="M283.649 142.844C283.602 143.405 284.042 143.906 284.623 143.96C285.205 144.02 285.712 143.615 285.76 143.054C285.807 142.493 285.367 141.993 284.786 141.939C284.204 141.878 283.69 142.284 283.649 142.844Z" fill="black"/>
<path d="M283.446 139.709C283.568 139.851 284.4 139.296 285.543 139.35C286.686 139.391 287.491 140.019 287.627 139.884C287.688 139.823 287.566 139.567 287.214 139.29C286.869 139.006 286.267 138.722 285.557 138.695C284.847 138.668 284.238 138.898 283.879 139.148C283.514 139.398 283.386 139.648 283.446 139.709Z" fill="black"/>
<path d="M294.046 143.365C293.999 143.926 294.438 144.426 295.02 144.48C295.602 144.541 296.109 144.135 296.156 143.574C296.204 143.013 295.764 142.513 295.182 142.459C294.601 142.398 294.086 142.804 294.046 143.365Z" fill="black"/>
<path d="M294.655 140.445C294.776 140.587 295.615 140.033 296.752 140.087C297.895 140.128 298.7 140.749 298.835 140.621C298.896 140.56 298.781 140.303 298.422 140.026C298.077 139.742 297.475 139.459 296.765 139.431C296.055 139.404 295.446 139.634 295.088 139.884C294.722 140.134 294.594 140.384 294.655 140.445Z" fill="black"/>
<path d="M290.116 148.711C290.123 148.643 289.419 148.488 288.276 148.292C287.985 148.251 287.715 148.177 287.674 147.974C287.613 147.758 287.748 147.454 287.911 147.122C288.215 146.433 288.54 145.703 288.878 144.946C290.224 141.844 291.212 139.29 291.083 139.235C290.955 139.181 289.764 141.655 288.425 144.757C288.1 145.521 287.789 146.251 287.498 146.947C287.37 147.271 287.167 147.636 287.295 148.082C287.363 148.305 287.573 148.474 287.755 148.528C287.938 148.596 288.1 148.603 288.249 148.623C289.406 148.738 290.123 148.778 290.129 148.711H290.116Z" fill="black"/>
<path d="M294.411 136.843C294.546 137.14 295.541 136.87 296.745 136.89C297.949 136.884 298.957 137.154 299.078 136.857C299.133 136.715 298.93 136.444 298.51 136.194C298.091 135.944 297.441 135.735 296.724 135.728C296.001 135.728 295.365 135.931 294.959 136.181C294.546 136.431 294.357 136.701 294.418 136.836L294.411 136.843Z" fill="black"/>
<path d="M283.609 135.005C283.839 135.275 284.792 135.052 285.922 135.093C287.058 135.099 288.005 135.363 288.242 135.106C288.344 134.978 288.208 134.714 287.796 134.451C287.397 134.187 286.713 133.957 285.936 133.937C285.158 133.923 284.468 134.126 284.062 134.37C283.649 134.62 283.507 134.876 283.609 135.012V135.005Z" fill="black"/>
<path d="M282.892 132.639C282.892 132.639 285.07 128.084 287.363 127.104C290.136 125.922 291.171 128.949 293.789 128.348C296.413 127.746 299.058 126.604 301.608 128.726C304.402 131.051 302.975 132.518 302.995 135.823C303.096 149.204 305.356 153.09 306.35 146.839C306.458 146.156 308.399 145.696 308.819 142.797C309.36 139.04 309.725 134.464 309.001 131.747C308.399 129.456 307.182 127.834 304.95 126.009C301.432 123.124 296.427 122.833 293.004 123.015C289.588 123.198 282.844 126.8 282.885 132.639H282.892Z" fill="black"/>
<path d="M305.883 146.616C305.985 145.473 307.013 144.615 308.149 144.777C309.529 144.973 311.031 145.832 310.807 148.684C310.408 153.746 305.403 152.306 305.403 152.157C305.403 152.056 305.694 148.731 305.883 146.616Z" fill="#99655C"/>
<path d="M306.661 150.339C306.661 150.339 306.742 150.407 306.891 150.488C307.033 150.569 307.277 150.63 307.547 150.556C308.095 150.4 308.616 149.589 308.711 148.677C308.758 148.217 308.697 147.771 308.562 147.393C308.433 147.008 308.217 146.731 307.953 146.663C307.689 146.582 307.486 146.724 307.412 146.866C307.331 147.001 307.358 147.102 307.331 147.109C307.317 147.123 307.229 147.014 307.283 146.812C307.31 146.71 307.378 146.595 307.507 146.508C307.635 146.42 307.818 146.379 308.007 146.42C308.393 146.48 308.717 146.866 308.866 147.278C309.035 147.697 309.116 148.197 309.062 148.711C308.947 149.731 308.352 150.644 307.601 150.799C307.236 150.867 306.945 150.731 306.803 150.603C306.654 150.468 306.641 150.353 306.654 150.339H306.661Z" fill="#744A45"/>
<path d="M306.248 136.782C305.565 137.201 304.848 137.634 304.05 137.674C303.252 137.715 302.366 137.215 302.264 136.424C302.224 136.066 302.325 135.66 302.109 135.376C301.845 135.039 301.331 135.113 300.905 135.14C299.423 135.228 297.956 134.113 297.651 132.66C297.245 133.207 296.373 133.139 295.818 132.747C295.263 132.355 294.925 131.734 294.506 131.207C294.086 130.673 293.478 130.193 292.801 130.254C292.422 130.287 292.064 130.497 291.685 130.443C291.022 130.355 290.731 129.558 290.664 128.888C290.596 128.219 290.549 127.449 290.001 127.064C289.494 126.706 288.804 126.868 288.188 126.929C287.573 126.989 286.781 126.807 286.653 126.205C286.585 125.888 286.734 125.563 286.923 125.293C287.769 124.083 289.521 123.617 290.86 124.232C291.435 122.576 293.065 121.346 294.817 121.245C296.569 121.143 298.328 122.177 299.092 123.752C300.208 122.826 301.791 122.495 303.184 122.88C304.584 123.266 305.761 124.367 306.242 125.739C307.493 125.475 308.88 126.016 309.61 127.057C310.348 128.104 310.388 129.591 309.712 130.673C310.598 131.234 311.342 132.18 311.308 133.227C311.281 134.282 310.205 135.275 309.204 134.951C309.576 135.789 309.191 136.884 308.379 137.303C307.567 137.722 306.451 137.404 305.985 136.613" fill="black"/>
<path d="M290.42 125.712C290.42 125.712 290.42 125.746 290.42 125.807C290.42 125.867 290.42 125.962 290.441 126.077C290.474 126.314 290.556 126.665 290.765 127.07C290.975 127.469 291.313 127.942 291.834 128.321C292.348 128.706 293.065 129.017 293.884 129.01L293.802 128.895C293.626 129.321 293.64 129.841 293.836 130.301C294.019 130.767 294.323 131.18 294.648 131.592C294.817 131.788 294.952 132.018 295.189 132.2C295.419 132.376 295.696 132.484 295.98 132.538C296.549 132.639 297.205 132.491 297.644 132.031L297.455 131.97C297.536 132.984 298.064 134.018 298.95 134.68C299.417 135.052 300.005 135.295 300.594 135.302C301.182 135.322 301.737 135.174 302.251 135.018L302.116 134.951C302.359 135.593 302.751 136.154 303.245 136.573C303.725 136.992 304.382 137.255 304.99 137.134C306.201 136.938 307.04 135.978 307.243 135.045L307.128 135.093C307.709 135.444 308.345 135.505 308.859 135.431C309.38 135.363 309.8 135.153 310.104 134.944C310.408 134.728 310.591 134.505 310.699 134.349C310.801 134.187 310.848 134.092 310.841 134.092C310.814 134.072 310.652 134.471 310.057 134.87C309.759 135.059 309.353 135.248 308.846 135.302C308.352 135.363 307.75 135.289 307.209 134.957L307.114 134.897L307.087 135.005C306.884 135.87 306.079 136.769 304.956 136.938C304.402 137.039 303.827 136.802 303.374 136.411C302.914 136.012 302.542 135.478 302.312 134.87L302.278 134.775L302.183 134.802C301.676 134.957 301.141 135.093 300.594 135.072C300.052 135.059 299.525 134.843 299.078 134.491C298.246 133.869 297.753 132.903 297.665 131.936L297.644 131.693L297.475 131.869C297.103 132.268 296.522 132.41 296.007 132.315C295.75 132.274 295.507 132.173 295.304 132.024C295.108 131.876 294.959 131.653 294.797 131.457C294.472 131.058 294.181 130.652 294.005 130.22C293.816 129.794 293.802 129.335 293.951 128.949L293.999 128.828H293.87C293.092 128.848 292.402 128.564 291.902 128.199C291.388 127.841 291.056 127.395 290.833 127.01C290.407 126.219 290.447 125.685 290.407 125.692L290.42 125.712Z" fill="#455A64"/>
<path d="M288.817 152.448C288.797 152.495 289.081 152.671 289.595 152.786C290.109 152.901 290.853 152.914 291.631 152.691C292.409 152.462 293.024 152.036 293.396 151.664C293.769 151.292 293.904 150.988 293.863 150.961C293.769 150.873 292.957 151.867 291.509 152.279C290.075 152.725 288.851 152.326 288.817 152.455V152.448Z" fill="black"/>
<path d="M272.076 235.495L317.058 236.11C317.058 236.11 329.639 230.852 333.095 230.71C336.552 230.568 343.411 231.007 346.583 236.11C349.864 241.381 350.324 250.687 340.211 257.452C330.37 264.035 285.361 270.124 279.185 269.563L267.814 254.31C267.814 254.31 267.693 241.807 267.814 241.212C267.936 240.617 269.837 235.258 269.837 235.258L272.076 235.495Z" fill="black"/>
<path d="M297.049 255.702L323.903 265.671L311.667 299.118C308.542 297.753 308.454 278.106 308.454 278.106L290.982 272.429L297.049 255.709V255.702Z" fill="#FF8E70"/>
<g opacity="0.6">
<path d="M310.78 267.232C311.193 266.651 312.086 266.468 312.688 266.86C313.29 267.252 313.479 268.151 313.073 268.746C312.668 269.334 311.606 269.584 311.051 269.131C310.496 268.678 310.334 267.604 310.862 267.124" fill="white"/>
</g>
<path d="M323.903 265.671L321.191 264.664L310.449 297.171C310.449 297.171 310.55 298.895 311.667 299.111L323.903 265.664V265.671Z" fill="black"/>
<path d="M308.082 278.586C308.244 278.64 308.623 277.849 309.441 277.241C310.246 276.606 311.105 276.45 311.092 276.281C311.112 276.119 310.05 276.004 309.069 276.761C308.082 277.511 307.919 278.566 308.082 278.586Z" fill="black"/>
<path d="M308.251 282.621C308.393 282.715 308.934 282.107 309.827 281.81C310.713 281.478 311.511 281.614 311.565 281.451C311.646 281.309 310.733 280.843 309.624 281.242C308.514 281.627 308.095 282.567 308.251 282.627V282.621Z" fill="black"/>
<path d="M311.721 286.148C311.809 286.013 311.078 285.486 310.03 285.581C308.981 285.669 308.345 286.304 308.454 286.426C308.555 286.567 309.218 286.243 310.077 286.182C310.936 286.101 311.646 286.304 311.721 286.148Z" fill="black"/>
<path d="M304.246 276.849C304.422 276.835 304.469 276.004 304.869 275.105C305.254 274.2 305.822 273.591 305.714 273.456C305.633 273.321 304.767 273.801 304.314 274.869C303.847 275.93 304.091 276.89 304.246 276.856V276.849Z" fill="black"/>
<path d="M300.56 274.598C300.627 274.625 300.966 274.017 301.162 272.922C301.263 272.375 301.311 271.713 301.263 270.976C301.236 270.604 301.189 270.219 301.108 269.827C301.067 269.638 301.033 269.415 300.898 269.178C300.797 268.935 300.397 268.671 300.059 268.786C299.741 268.861 299.518 269.124 299.423 269.367C299.322 269.611 299.302 269.827 299.281 270.03C299.234 270.435 299.234 270.827 299.254 271.199C299.308 271.942 299.491 272.598 299.701 273.112C300.134 274.152 300.648 274.639 300.702 274.592C300.783 274.538 300.411 273.97 300.107 272.963C299.958 272.463 299.836 271.848 299.809 271.158C299.802 270.814 299.809 270.456 299.863 270.091C299.897 269.705 300.005 269.401 300.201 269.367C300.276 269.354 300.296 269.367 300.377 269.476C300.445 269.584 300.485 269.766 300.526 269.955C300.614 270.32 300.668 270.679 300.709 271.023C300.783 271.713 300.776 272.341 300.736 272.868C300.654 273.923 300.465 274.571 300.553 274.598H300.56Z" fill="black"/>
<path d="M300.878 274.477C300.925 274.429 300.458 273.889 299.423 273.443C298.909 273.226 298.253 273.044 297.502 273.003C297.13 272.983 296.731 273.003 296.325 273.057C295.92 273.132 295.392 273.213 295.088 273.814C294.952 274.139 295.115 274.511 295.297 274.686C295.487 274.882 295.669 274.97 295.852 275.085C296.217 275.288 296.609 275.423 296.982 275.497C297.732 275.653 298.429 275.578 298.977 275.416C300.086 275.078 300.526 274.47 300.479 274.436C300.418 274.348 299.89 274.808 298.875 275.004C298.375 275.099 297.753 275.119 297.103 274.957C296.779 274.875 296.454 274.754 296.143 274.571C295.805 274.389 295.568 274.152 295.656 274.031C295.717 273.862 296.089 273.679 296.42 273.645C296.785 273.585 297.137 273.558 297.482 273.564C298.165 273.578 298.774 273.693 299.275 273.848C300.276 274.159 300.824 274.558 300.878 274.477Z" fill="black"/>
<path d="M282.229 255.006L258.162 266.157L271.893 296.144C274.68 294.657 273.327 276.511 273.327 276.511L289.04 269.996L282.222 254.999L282.229 255.006Z" fill="#FF8E70"/>
<g opacity="0.6">
<path d="M270.385 266.651C269.959 266.144 269.127 266.042 268.599 266.441C268.071 266.847 267.963 267.691 268.376 268.212C268.788 268.725 269.79 268.881 270.27 268.421C270.743 267.962 270.824 266.955 270.297 266.556" fill="white"/>
</g>
<path d="M258.162 266.164L260.59 265.035L272.874 294.265C272.874 294.265 272.901 295.867 271.893 296.144L258.162 266.157V266.164Z" fill="black"/>
<path d="M273.706 276.93C273.557 276.991 273.158 276.288 272.353 275.788C271.568 275.261 270.764 275.18 270.757 275.017C270.723 274.869 271.697 274.686 272.658 275.315C273.625 275.937 273.855 276.896 273.706 276.93Z" fill="black"/>
<path d="M273.848 280.674C273.719 280.776 273.185 280.255 272.333 280.039C271.494 279.802 270.764 279.978 270.703 279.829C270.615 279.701 271.426 279.208 272.475 279.491C273.523 279.769 273.983 280.6 273.841 280.667L273.848 280.674Z" fill="black"/>
<path d="M270.899 284.182C270.804 284.06 271.447 283.526 272.421 283.533C273.395 283.533 274.031 284.08 273.936 284.195C273.855 284.33 273.219 284.087 272.421 284.087C271.623 284.074 270.987 284.317 270.906 284.175L270.899 284.182Z" fill="black"/>
<path d="M277.129 275.051C276.966 275.051 276.858 274.288 276.425 273.483C276.006 272.672 275.431 272.159 275.526 272.023C275.593 271.888 276.425 272.274 276.926 273.22C277.433 274.166 277.277 275.065 277.135 275.051H277.129Z" fill="black"/>
<path d="M280.362 272.706C280.301 272.733 279.949 272.199 279.679 271.199C279.55 270.706 279.449 270.091 279.442 269.408C279.442 269.063 279.456 268.705 279.503 268.333C279.53 268.158 279.543 267.948 279.652 267.718C279.733 267.489 280.078 267.218 280.403 267.293C280.7 267.34 280.93 267.57 281.032 267.779C281.14 267.996 281.18 268.198 281.214 268.381C281.289 268.752 281.316 269.117 281.322 269.462C281.322 270.151 281.207 270.773 281.045 271.26C280.72 272.253 280.281 272.74 280.227 272.699C280.145 272.652 280.45 272.105 280.66 271.158C280.761 270.685 280.829 270.111 280.802 269.476C280.788 269.158 280.747 268.827 280.673 268.489C280.612 268.131 280.49 267.86 280.308 267.847C280.24 267.847 280.22 267.847 280.152 267.955C280.098 268.063 280.071 268.232 280.044 268.408C279.99 268.752 279.963 269.09 279.956 269.408C279.936 270.05 279.99 270.631 280.064 271.111C280.22 272.078 280.436 272.666 280.355 272.699L280.362 272.706Z" fill="black"/>
<path d="M280.064 272.611C280.017 272.571 280.409 272.037 281.336 271.55C281.796 271.307 282.391 271.098 283.074 271.003C283.419 270.956 283.785 270.942 284.163 270.969C284.542 271.01 285.036 271.044 285.361 271.577C285.509 271.868 285.388 272.219 285.232 272.395C285.077 272.584 284.907 272.686 284.752 272.801C284.427 273.017 284.082 273.166 283.737 273.267C283.054 273.463 282.405 273.449 281.891 273.335C280.842 273.105 280.389 272.571 280.436 272.537C280.49 272.456 281.004 272.834 281.958 272.943C282.425 272.997 283.007 272.97 283.588 272.774C283.879 272.679 284.17 272.537 284.447 272.348C284.745 272.152 284.948 271.915 284.86 271.814C284.792 271.665 284.441 271.523 284.13 271.517C283.791 271.483 283.46 271.49 283.142 271.517C282.513 271.577 281.958 271.733 281.512 271.909C280.612 272.267 280.132 272.679 280.078 272.605L280.064 272.611Z" fill="black"/>
<path d="M269.837 235.258C269.837 235.258 250.41 228.013 243.26 228.946C239.263 229.473 233.013 232.514 232.532 237.637C232.059 242.76 233.303 249.606 240.216 252.938C247.129 256.27 274.714 268.638 281.268 270.543C287.823 272.449 304.165 276.91 304.165 276.91L310.375 259.237C310.375 259.237 276.506 247.518 274.721 246.213C272.935 244.902 268.403 243.118 268.403 243.118L269.83 235.258H269.837Z" fill="black"/>
<path d="M337.364 237.657C337.364 237.657 337.316 237.651 337.228 237.624C337.127 237.596 336.998 237.556 336.836 237.502C336.491 237.4 335.984 237.252 335.328 237.096C334.665 236.941 333.853 236.765 332.893 236.671C331.932 236.576 330.829 236.569 329.625 236.671C328.421 236.779 327.102 236.995 325.736 237.407C325.06 237.617 324.363 237.867 323.686 238.205C323.003 238.536 322.293 238.881 321.569 239.239C318.661 240.624 315.421 242.05 311.964 243.409C305.044 246.18 298.402 247.497 293.66 248.572C291.286 249.099 289.365 249.532 288.039 249.843C287.39 249.998 286.876 250.12 286.517 250.201C286.348 250.241 286.22 250.268 286.118 250.289C286.03 250.309 285.983 250.316 285.983 250.316C285.983 250.316 286.024 250.295 286.118 250.268C286.22 250.241 286.348 250.208 286.511 250.16C286.856 250.066 287.363 249.924 288.026 249.761C289.345 249.424 291.259 248.971 293.633 248.423C298.361 247.308 304.99 245.977 311.89 243.213C315.339 241.847 318.586 240.435 321.488 239.063C322.212 238.712 322.915 238.374 323.605 238.043C324.295 237.705 324.999 237.448 325.689 237.245C327.069 236.833 328.394 236.623 329.612 236.522C330.829 236.427 331.939 236.441 332.906 236.549C333.873 236.657 334.685 236.84 335.348 237.008C336.011 237.177 336.511 237.34 336.85 237.455C337.012 237.515 337.134 237.556 337.235 237.59C337.323 237.623 337.364 237.644 337.364 237.644V237.657Z" fill="#455A64"/>
<path d="M336.342 235.103C336.342 235.103 335.754 235.028 334.8 234.927C333.846 234.826 332.527 234.744 331.073 234.819C329.619 234.893 328.313 235.109 327.373 235.305C326.44 235.501 325.865 235.67 325.858 235.637C325.858 235.623 325.993 235.569 326.243 235.481C326.5 235.393 326.872 235.278 327.339 235.163C328.273 234.927 329.592 234.684 331.059 234.609C332.527 234.535 333.867 234.636 334.814 234.778C335.287 234.846 335.673 234.92 335.936 234.981C336.2 235.042 336.342 235.082 336.342 235.096V235.103Z" fill="#455A64"/>
<path d="M261.666 240.388C261.666 240.388 261.104 240.002 260.178 239.421C259.251 238.847 257.905 238.137 256.336 237.576C254.759 237.022 253.271 236.731 252.182 236.596C251.093 236.461 250.417 236.448 250.417 236.414C250.417 236.4 250.586 236.393 250.897 236.387C251.208 236.387 251.655 236.4 252.203 236.448C253.298 236.542 254.814 236.813 256.41 237.373C258 237.934 259.346 238.678 260.266 239.286C260.725 239.59 261.084 239.854 261.321 240.057C261.557 240.253 261.686 240.367 261.679 240.374L261.666 240.388Z" fill="#455A64"/>
<path d="M271.413 266.752C271.413 266.752 271.467 266.772 271.562 266.813C271.663 266.853 271.812 266.921 272.001 266.995C272.394 267.151 272.955 267.421 273.719 267.712C275.235 268.313 277.467 269.131 280.335 270.077C286.071 271.949 294.323 274.335 304.192 276.822L304.077 276.883C305.917 271.78 307.946 266.15 310.084 260.23L310.145 260.359C307.764 259.379 305.254 258.351 302.711 257.311C286.321 250.573 271.589 244.51 261.564 240.388H261.551L261.537 240.374C259.86 238.603 258.324 237.042 256.877 235.785C255.429 234.528 254.103 233.555 252.967 232.845C251.837 232.122 250.911 231.669 250.288 231.352C249.977 231.203 249.734 231.095 249.571 231.014C249.409 230.94 249.328 230.892 249.328 230.892C249.328 230.892 249.416 230.926 249.578 230.994C249.747 231.068 249.991 231.176 250.309 231.311C250.938 231.615 251.878 232.061 253.014 232.778C254.157 233.481 255.497 234.447 256.951 235.697C258.405 236.954 259.961 238.509 261.639 240.273L261.612 240.259C271.643 244.368 286.382 250.404 302.785 257.115C305.335 258.162 307.838 259.189 310.219 260.169L310.314 260.21L310.28 260.305C308.136 266.225 306.1 271.855 304.26 276.95L304.233 277.031L304.152 277.011C294.283 274.511 286.037 272.098 280.308 270.192C277.447 269.232 275.214 268.394 273.706 267.779C272.948 267.482 272.387 267.205 272.001 267.036C271.812 266.948 271.67 266.887 271.568 266.84C271.474 266.793 271.426 266.766 271.426 266.766L271.413 266.752Z" fill="#455A64"/>
<path d="M319.425 173.406C319.425 173.406 325.019 176.623 326.149 180.407C326.839 182.705 332.054 212.084 332.879 217.876C333.711 223.722 331.966 227.959 329.49 229.878C327.014 231.798 319.52 234.359 319.52 234.359L308.974 237.772L305.951 230.088L315.989 215.679L315.015 205.974L319.412 173.406H319.425Z" fill="#FF8E70"/>
<path d="M308.433 168.33L304.233 165.931C304.233 165.931 300.404 170.405 295.189 169.858C289.967 169.31 286.876 165.316 286.876 165.316L271.311 168.486C270.27 168.695 268.362 169.357 266.543 171.953C264.513 174.852 254.881 187.72 254.881 187.72H248.137C246.277 187.72 244.573 188.747 243.707 190.389C242.557 192.579 241.17 195.512 241.306 196.722C241.535 198.776 241.136 204.406 243.889 206.17C244.762 206.731 247.887 208.4 250.315 208.285C253.894 208.117 258.054 206.258 260.448 204.582C262.477 203.163 267.192 198.27 269.005 196.357V196.384L270.168 237.184L310.983 236.022L319.439 173.406C319.439 173.406 308.859 168.33 308.447 168.33H308.433Z" fill="#FF8E70"/>
<path d="M268.849 179.265C268.91 179.265 269.012 184.32 269.086 190.558C269.16 196.796 269.174 201.858 269.113 201.858C269.052 201.858 268.951 196.803 268.876 190.565C268.802 184.327 268.788 179.272 268.849 179.272V179.265Z" fill="black"/>
<path d="M324.363 212.246C324.363 212.246 324.018 212.3 323.402 212.422C322.787 212.537 321.901 212.78 320.873 213.226C319.844 213.672 318.688 214.355 317.511 215.253C316.334 216.152 315.137 217.274 313.966 218.531C312.796 219.788 311.734 221.039 310.733 222.14C309.732 223.248 308.792 224.215 307.953 224.972C307.114 225.729 306.39 226.29 305.863 226.641C305.606 226.824 305.389 226.945 305.254 227.033C305.112 227.121 305.038 227.162 305.031 227.155C305.031 227.155 305.099 227.094 305.227 226.999C305.356 226.898 305.565 226.77 305.816 226.574C306.323 226.202 307.033 225.627 307.852 224.857C308.677 224.093 309.597 223.12 310.591 222.005C311.585 220.897 312.641 219.646 313.818 218.382C314.995 217.125 316.205 215.997 317.396 215.098C318.593 214.199 319.77 213.516 320.819 213.084C321.867 212.651 322.76 212.422 323.389 212.334C323.7 212.273 323.95 212.273 324.113 212.253C324.282 212.239 324.363 212.239 324.363 212.246Z" fill="black"/>
<path d="M325.29 209.482C325.29 209.522 324.674 209.603 323.7 209.874C322.726 210.137 321.414 210.631 320.088 211.415C318.769 212.205 317.707 213.124 317.01 213.854C316.307 214.577 315.942 215.084 315.908 215.064C315.894 215.057 315.982 214.922 316.144 214.692C316.307 214.456 316.564 214.131 316.902 213.753C317.578 212.989 318.64 212.036 319.98 211.239C321.326 210.441 322.665 209.968 323.659 209.732C324.153 209.617 324.559 209.543 324.843 209.509C325.127 209.475 325.283 209.461 325.283 209.482H325.29Z" fill="black"/>
<g opacity="0.3">
<path d="M249.328 202.318C251.486 202.906 254.083 199.797 256.045 197.857C257.066 196.844 258.128 195.769 258.5 194.384C258.811 193.241 258.608 192.005 258.162 190.903C257.715 189.801 257.398 189.092 256.728 188.112C256.911 189.788 257.323 192.356 256.755 194.465C256.281 196.222 255.172 197.621 253.988 198.945C252.737 200.351 251.256 201.824 249.328 202.318Z" fill="black"/>
</g>
<path d="M258.568 200.54C258.527 200.527 258.777 199.831 258.98 198.662C259.089 198.08 259.156 197.371 259.176 196.587C259.183 195.803 259.143 194.945 259.007 194.046C258.859 193.154 258.635 192.316 258.385 191.579C258.121 190.842 257.837 190.193 257.56 189.666C257.005 188.612 256.552 188.031 256.586 188.004C256.599 187.997 256.714 188.139 256.917 188.402C257.019 188.538 257.14 188.7 257.269 188.903C257.398 189.105 257.553 189.328 257.688 189.592C257.986 190.112 258.29 190.761 258.568 191.511C258.832 192.261 259.068 193.106 259.21 194.012C259.346 194.918 259.386 195.796 259.366 196.587C259.332 197.378 259.244 198.094 259.122 198.682C259.075 198.979 258.994 199.236 258.933 199.473C258.879 199.702 258.811 199.898 258.757 200.054C258.649 200.371 258.581 200.54 258.568 200.54Z" fill="black"/>
<path d="M288.567 166.891C288.594 166.945 288.114 167.222 287.613 167.675C287.106 168.121 286.774 168.56 286.727 168.526C286.68 168.499 286.943 167.985 287.478 167.519C288.005 167.046 288.547 166.843 288.567 166.891Z" fill="black"/>
<path d="M292.815 169.357C292.862 169.405 292.449 169.844 292.118 170.493C291.78 171.142 291.665 171.73 291.597 171.723C291.543 171.723 291.577 171.088 291.929 170.398C292.28 169.709 292.781 169.317 292.815 169.357Z" fill="black"/>
<path d="M300.086 171.919C300.025 171.932 299.863 171.371 299.62 170.702C299.376 170.033 299.153 169.493 299.2 169.466C299.247 169.439 299.565 169.945 299.816 170.628C300.066 171.317 300.14 171.905 300.086 171.912V171.919Z" fill="black"/>
<path d="M304.767 169.709C304.706 169.722 304.544 169.013 304.084 168.263C303.631 167.506 303.076 167.033 303.117 166.985C303.144 166.938 303.786 167.357 304.267 168.154C304.747 168.945 304.821 169.709 304.767 169.709Z" fill="black"/>
<path d="M318.208 182.921C318.262 182.928 317.572 188.504 316.665 195.37C315.752 202.237 314.974 207.799 314.913 207.792C314.852 207.785 315.549 202.21 316.456 195.343C317.362 188.477 318.147 182.915 318.208 182.921Z" fill="black"/>
<path d="M257.046 191.944C257.046 191.944 257.053 192.147 257.032 192.518C257.032 192.708 256.998 192.931 256.951 193.187C256.931 193.323 256.904 193.458 256.883 193.606C256.85 193.755 256.809 193.904 256.768 194.066C256.62 194.715 256.329 195.458 255.963 196.256C255.571 197.04 255.084 197.884 254.462 198.689C253.833 199.486 253.156 200.189 252.466 200.743C251.763 201.277 251.093 201.71 250.464 201.946C250.309 202.007 250.167 202.075 250.025 202.129C249.882 202.169 249.747 202.203 249.612 202.244C249.483 202.277 249.368 202.311 249.253 202.338C249.145 202.365 249.037 202.365 248.949 202.379C248.577 202.419 248.374 202.44 248.374 202.426C248.361 202.372 249.206 202.352 250.403 201.811C251.005 201.561 251.661 201.122 252.345 200.588C253.014 200.034 253.677 199.344 254.293 198.56C254.901 197.77 255.389 196.938 255.788 196.168C256.153 195.384 256.457 194.661 256.62 194.025C256.985 192.762 256.998 191.937 257.046 191.944Z" fill="black"/>
<g opacity="0.3">
<path d="M316.889 238.583C318.62 237.745 319.012 235.501 319.188 233.589C319.702 227.986 320.223 222.377 320.737 216.774C320.981 214.138 321.096 211.131 319.236 209.245C317.538 207.522 314.839 207.42 312.417 207.427C297.482 207.468 284.292 207.907 269.357 207.948L270.114 234.048L316.875 238.57L316.889 238.583Z" fill="black"/>
</g>
<path d="M262.937 211.996L264.527 242.266C264.588 243.436 265.562 244.348 266.746 244.348L315.008 244.429C316.192 244.429 317.173 243.51 317.227 242.341L319.067 212.584C319.127 211.347 318.248 209.705 316.997 209.678H265.197C263.905 209.657 262.863 210.719 262.931 211.989L262.937 211.996Z" fill="#E0E0E0"/>
<path d="M262.937 211.996C262.937 211.996 262.937 211.955 262.937 211.881C262.937 211.807 262.937 211.692 262.958 211.543C262.998 211.252 263.127 210.793 263.533 210.36C263.736 210.151 263.999 209.941 264.338 209.813C264.676 209.671 265.082 209.637 265.501 209.651C266.353 209.651 267.334 209.651 268.437 209.644C272.854 209.637 279.246 209.624 287.14 209.61C295.033 209.603 304.436 209.597 314.873 209.583C315.522 209.583 316.185 209.583 316.841 209.583C317.173 209.57 317.545 209.651 317.836 209.84C318.133 210.022 318.377 210.279 318.573 210.563C318.958 211.131 319.182 211.813 319.182 212.516C319.141 213.192 319.1 213.868 319.06 214.55C318.891 217.274 318.722 220.059 318.546 222.89C318.194 228.554 317.836 234.42 317.464 240.428L317.396 241.55C317.362 241.929 317.369 242.287 317.301 242.685C317.159 243.463 316.577 244.125 315.847 244.395C315.488 244.537 315.076 244.558 314.711 244.544H313.601C312.864 244.544 312.127 244.544 311.396 244.544C308.46 244.544 305.572 244.531 302.731 244.531C297.049 244.517 291.57 244.51 286.348 244.497C281.126 244.483 276.168 244.47 271.528 244.463C270.365 244.463 269.228 244.463 268.105 244.456C267.828 244.456 267.544 244.456 267.267 244.456C266.989 244.456 266.712 244.47 266.428 244.429C265.86 244.355 265.339 244.057 264.98 243.632C264.615 243.206 264.439 242.638 264.439 242.111C264.412 241.584 264.385 241.063 264.358 240.55C264.304 239.516 264.256 238.509 264.202 237.529C263.803 229.655 263.479 223.282 263.255 218.869C263.147 216.666 263.066 214.963 263.012 213.794C262.985 213.219 262.964 212.773 262.951 212.476C262.937 212.178 262.937 212.023 262.937 212.023C262.937 212.023 262.951 212.172 262.971 212.469C262.992 212.773 263.019 213.212 263.052 213.787C263.12 214.949 263.215 216.659 263.337 218.856C263.573 223.262 263.925 229.635 264.351 237.509C264.405 238.495 264.459 239.502 264.513 240.53C264.541 241.043 264.568 241.564 264.595 242.091C264.595 242.611 264.757 243.118 265.102 243.517C265.433 243.916 265.92 244.186 266.448 244.253C266.705 244.287 266.989 244.274 267.267 244.274C267.544 244.274 267.821 244.274 268.105 244.274C269.228 244.274 270.365 244.274 271.528 244.274C276.168 244.274 281.133 244.287 286.348 244.287C291.57 244.294 297.049 244.301 302.731 244.307C305.572 244.307 308.46 244.314 311.396 244.321C312.127 244.321 312.864 244.321 313.601 244.321H314.711C315.089 244.335 315.434 244.321 315.772 244.186C316.435 243.943 316.97 243.341 317.098 242.631C317.159 242.287 317.159 241.895 317.186 241.53L317.254 240.408C317.626 234.4 317.991 228.54 318.343 222.87C318.519 220.038 318.695 217.254 318.864 214.53C318.904 213.848 318.945 213.172 318.985 212.503C318.985 211.854 318.776 211.198 318.417 210.664C318.059 210.131 317.491 209.725 316.841 209.772C316.178 209.772 315.522 209.772 314.873 209.772C304.436 209.766 295.033 209.759 287.14 209.752C279.246 209.739 272.86 209.725 268.437 209.718C267.334 209.718 266.353 209.718 265.501 209.712C265.075 209.698 264.689 209.725 264.358 209.86C264.026 209.982 263.763 210.185 263.56 210.387C263.161 210.806 263.025 211.252 262.978 211.543C262.931 211.834 262.958 211.989 262.944 211.989L262.937 211.996Z" fill="black"/>
<path d="M294.208 226.763C294.208 228.331 292.937 229.601 291.367 229.601C289.798 229.601 288.526 228.331 288.526 226.763C288.526 225.195 289.798 223.924 291.367 223.924C292.937 223.924 294.208 225.195 294.208 226.763Z" fill="white"/>
<path d="M294.208 226.763C294.208 226.763 294.195 226.513 294.08 226.08C293.965 225.661 293.681 225.039 293.038 224.566C292.72 224.337 292.328 224.141 291.875 224.06C291.421 223.985 290.914 223.999 290.434 224.188C289.954 224.364 289.487 224.695 289.162 225.148C288.824 225.594 288.635 226.175 288.628 226.763C288.628 227.358 288.824 227.932 289.162 228.378C289.487 228.831 289.947 229.162 290.434 229.338C290.914 229.527 291.428 229.541 291.881 229.466C292.335 229.392 292.734 229.189 293.045 228.959C293.681 228.486 293.971 227.864 294.086 227.445C294.201 227.013 294.195 226.763 294.215 226.763C294.222 226.763 294.229 226.824 294.229 226.945C294.229 227.067 294.215 227.243 294.168 227.466C294.073 227.905 293.796 228.561 293.139 229.081C292.815 229.331 292.395 229.547 291.915 229.642C291.435 229.73 290.894 229.716 290.373 229.527C289.852 229.345 289.358 228.993 289 228.507C288.635 228.027 288.432 227.405 288.425 226.77C288.425 226.134 288.635 225.513 289 225.033C289.352 224.546 289.852 224.195 290.373 224.012C290.894 223.816 291.435 223.809 291.915 223.897C292.395 223.985 292.815 224.201 293.139 224.458C293.796 224.972 294.073 225.634 294.168 226.074C294.215 226.297 294.235 226.472 294.229 226.594C294.229 226.716 294.228 226.776 294.215 226.776L294.208 226.763Z" fill="black"/>
<path d="M264.561 215.348C264.622 215.348 264.858 220.43 265.095 226.709C265.332 232.987 265.474 238.076 265.42 238.076C265.359 238.076 265.122 232.994 264.885 226.716C264.649 220.437 264.507 215.348 264.561 215.348Z" fill="black"/>
<path d="M250.052 175.852C249.767 175.616 251.005 170.858 251.005 170.858C251.005 170.858 247.731 165.519 247.644 163.795C247.556 162.072 248.935 158.544 248.935 158.544L258.331 156.131C258.331 156.131 261.348 161.727 261.95 163.707C262.552 165.688 260.915 172.405 260.915 172.405L259.325 175.852C259.325 175.852 254.529 179.637 250.052 175.852Z" fill="#99655C"/>
<path d="M247.664 164.823C247.664 164.823 247.258 164.12 246.676 162.741C246.081 161.335 245.35 159.95 246.676 159.159C247.454 158.693 248.09 158.936 248.09 158.936C248.09 158.936 247.887 157.753 248.597 157.307C249.308 156.861 249.991 157.186 249.991 157.186C249.991 157.186 249.768 155.51 250.789 154.8C252.067 153.908 253.393 154.726 253.393 154.726C253.393 154.726 252.588 147.4 252.514 147.014C252.257 145.588 252.784 144.331 254.205 144.683C254.726 144.811 255.01 145.359 255.625 147.744C256.234 150.13 257.215 154.198 257.215 154.198C257.215 154.198 258.865 157.064 259.643 158.618C260.421 160.173 261.963 163.707 262.092 164.647C262.423 167.066 261.003 170.277 261.003 170.277L251.019 170.858C251.019 170.858 248.056 165.525 247.677 164.829L247.664 164.823Z" fill="#99655C"/>
<path d="M248.286 159.254C248.286 159.254 248.604 159.652 249.057 160.328C249.294 160.686 249.558 161.092 249.849 161.531C249.997 161.761 250.153 161.998 250.275 162.281C250.397 162.559 250.471 162.896 250.39 163.234C250.322 163.559 250.085 163.883 249.761 163.971C249.436 164.072 249.118 163.971 248.868 163.863C248.611 163.748 248.394 163.593 248.198 163.451C248.002 163.309 247.819 163.174 247.657 163.045C247.332 162.795 247.082 162.579 246.913 162.423C246.744 162.268 246.656 162.173 246.67 162.167C246.69 162.14 247.082 162.457 247.752 162.93C248.09 163.153 248.476 163.471 248.949 163.687C249.186 163.789 249.456 163.863 249.7 163.775C249.95 163.701 250.126 163.464 250.187 163.187C250.255 162.91 250.194 162.619 250.085 162.363C249.977 162.106 249.822 161.869 249.68 161.639C249.402 161.193 249.152 160.781 248.929 160.416C248.509 159.713 248.259 159.274 248.279 159.26L248.286 159.254Z" fill="#744A45"/>
<path d="M256.478 160.126C256.423 160.126 256.376 159.409 256.579 158.558C256.782 157.706 257.154 157.091 257.201 157.118C257.255 157.145 256.978 157.78 256.782 158.612C256.579 159.436 256.538 160.132 256.471 160.132L256.478 160.126Z" fill="#744A45"/>
<path d="M260.435 162.268C259.542 161.362 258.338 160.795 257.093 160.524C255.849 160.254 254.557 160.261 253.292 160.376C252.277 160.47 251.114 160.727 250.654 161.639C250.18 162.572 250.748 163.782 251.655 164.316C252.561 164.85 253.67 164.877 254.712 164.782C255.754 164.687 256.809 164.491 257.851 164.654" fill="#99655C"/>
<path d="M257.851 164.654C257.851 164.654 257.567 164.627 257.066 164.633C256.559 164.633 255.835 164.728 254.929 164.836C254.475 164.883 253.975 164.931 253.427 164.897C252.886 164.863 252.297 164.769 251.743 164.478C251.188 164.194 250.714 163.674 250.491 163.025C250.376 162.7 250.349 162.342 250.424 161.984C250.505 161.633 250.701 161.302 250.972 161.065C251.526 160.572 252.243 160.416 252.893 160.322C253.549 160.24 254.185 160.207 254.787 160.207C255.997 160.207 257.093 160.382 257.959 160.687C258.832 160.991 259.467 161.389 259.866 161.714C260.069 161.876 260.211 162.011 260.306 162.106C260.401 162.207 260.441 162.261 260.435 162.261C260.421 162.275 260.225 162.072 259.819 161.775C259.413 161.477 258.777 161.099 257.918 160.822C257.059 160.538 255.991 160.382 254.793 160.396C254.198 160.403 253.562 160.443 252.926 160.518C252.297 160.612 251.614 160.774 251.12 161.214C250.87 161.43 250.708 161.721 250.633 162.025C250.572 162.336 250.593 162.66 250.694 162.951C250.89 163.545 251.33 164.032 251.837 164.295C252.351 164.573 252.913 164.681 253.44 164.714C253.968 164.748 254.462 164.714 254.915 164.674C255.815 164.586 256.559 164.512 257.073 164.539C257.33 164.546 257.526 164.573 257.661 164.593C257.797 164.62 257.864 164.633 257.864 164.64L257.851 164.654Z" fill="#744A45"/>
<path d="M248.361 159.369C249.409 160.964 250.336 162.714 251.222 164.404C251.479 164.897 251.75 165.417 252.223 165.708C252.602 165.945 253.542 165.519 253.961 165.377L251.08 158.821" fill="#99655C"/>
<path d="M251.08 158.821C251.08 158.821 251.181 158.99 251.337 159.308C251.499 159.666 251.716 160.126 251.973 160.68C252.507 161.849 253.238 163.484 254.056 165.336L254.103 165.438L253.995 165.478C253.684 165.586 253.353 165.728 252.987 165.823C252.845 165.857 252.696 165.884 252.548 165.89C252.473 165.89 252.392 165.89 252.311 165.863C252.23 165.843 252.149 165.796 252.094 165.755C251.851 165.586 251.668 165.363 251.513 165.133C251.215 164.667 251.005 164.201 250.775 163.768C250.322 162.896 249.91 162.113 249.544 161.464C249.186 160.815 248.881 160.295 248.672 159.936C248.462 159.578 248.347 159.382 248.354 159.369C248.367 159.362 248.503 159.544 248.739 159.889C248.969 160.234 249.294 160.741 249.673 161.389C250.052 162.031 250.478 162.809 250.944 163.674C251.181 164.099 251.404 164.579 251.682 165.012C251.824 165.228 252 165.431 252.209 165.573C252.392 165.721 252.669 165.667 252.933 165.607C253.271 165.519 253.596 165.384 253.921 165.269L253.86 165.411C253.048 163.559 252.338 161.91 251.837 160.727C251.601 160.159 251.404 159.693 251.256 159.328C251.12 158.997 251.059 158.814 251.066 158.808L251.08 158.821Z" fill="#744A45"/>
<path d="M250.302 156.868C251.229 159.193 252.156 161.511 253.082 163.836C253.278 164.329 253.481 164.829 253.833 165.235C254.178 165.634 254.706 165.924 255.233 165.843C255.957 165.735 256.431 164.965 256.471 164.235C256.505 163.505 256.221 162.802 255.95 162.119C255.118 160.004 254.449 157.821 253.955 155.597" fill="#99655C"/>
<path d="M253.955 155.604C253.955 155.604 253.988 155.679 254.022 155.814C254.063 155.976 254.124 156.179 254.185 156.429C254.327 156.963 254.536 157.733 254.834 158.679C255.125 159.626 255.504 160.741 255.984 161.957C256.214 162.565 256.518 163.208 256.566 163.951C256.593 164.316 256.525 164.715 256.356 165.059C256.187 165.404 255.909 165.728 255.517 165.877C255.132 166.032 254.692 165.965 254.347 165.782C254.002 165.6 253.725 165.316 253.528 165.012C253.136 164.383 252.94 163.721 252.69 163.12C252.216 161.91 251.783 160.808 251.418 159.882C251.073 158.977 250.789 158.233 250.579 157.693C250.491 157.449 250.417 157.253 250.363 157.091C250.315 156.956 250.295 156.882 250.302 156.875C250.302 156.875 250.342 156.943 250.403 157.071C250.471 157.226 250.552 157.422 250.66 157.659C250.884 158.2 251.188 158.929 251.56 159.828C251.939 160.754 252.378 161.842 252.872 163.052C253.129 163.654 253.332 164.323 253.704 164.904C253.894 165.194 254.137 165.445 254.448 165.607C254.753 165.769 255.125 165.823 255.443 165.688C255.767 165.559 256.018 165.282 256.166 164.971C256.322 164.654 256.383 164.309 256.356 163.971C256.315 163.282 256.031 162.647 255.801 162.038C255.328 160.815 254.962 159.686 254.685 158.733C254.408 157.781 254.218 156.997 254.103 156.456C254.042 156.186 254.002 155.976 253.975 155.827C253.948 155.685 253.941 155.604 253.948 155.604H253.955Z" fill="#744A45"/>
<path d="M250.525 173.21C250.525 173.21 244.153 191.964 243.903 192.89C243.653 193.816 245.161 200.507 247.928 202.102C250.694 203.69 256.058 197.08 256.728 194.647C257.397 192.221 256.728 188.119 256.728 188.119L261.023 171.959" fill="#99655C"/>
<path d="M256.728 170.297C256.728 170.297 256.491 170.324 256.126 170.216C255.767 170.114 255.287 169.878 254.861 169.486C254.435 169.094 254.157 168.634 254.022 168.29C253.887 167.938 253.867 167.702 253.894 167.702C253.955 167.675 254.178 168.594 255.003 169.337C255.815 170.094 256.748 170.236 256.728 170.297Z" fill="#744A45"/>
</g>
<defs>
<clipPath id="clip0_42_110">
<rect width="480" height="299.118" fill="white"/>
</clipPath>
</defs>
</svg>
