<?xml version="1.0" encoding="UTF-8" standalone="no"?><!DOCTYPE svg PUBLIC "-//W3C//DTD SVG 1.1//EN" "http://www.w3.org/Graphics/SVG/1.1/DTD/svg11.dtd"><svg width="100%" height="100%" viewBox="0 0 100 100" version="1.1" xmlns="http://www.w3.org/2000/svg" xmlns:xlink="http://www.w3.org/1999/xlink" xml:space="preserve" xmlns:serif="http://www.serif.com/" style="fill-rule:evenodd;clip-rule:evenodd;stroke-linejoin:round;stroke-miterlimit:2;"><rect id="isotype-gradient" x="0" y="0" width="100" height="100" style="fill:none;"/><g id="isotype-gradient1" serif:id="isotype-gradient"><g><rect x="9.1" y="36.417" width="18.2" height="59.1" style="fill:url(#_Linear1);fill-rule:nonzero;"/><path d="M68.2,95.517c-17.55,0 -31.8,-14.25 -31.8,-31.8c0,-17.55 14.25,-31.8 31.8,-31.8c17.55,0 31.8,14.25 31.8,31.8c0,17.55 -14.25,31.8 -31.8,31.8Zm0,-45.45c-7.5,0 -13.65,6.1 -13.65,13.65c0,7.55 6.1,13.65 13.65,13.65c7.55,0 13.65,-6.1 13.65,-13.65c0,-7.55 -6.1,-13.65 -13.65,-13.65Z" style="fill:url(#_Linear2);fill-rule:nonzero;"/><path d="M0,63.717l0,-18.2c5,0 9.1,-4.1 9.1,-9.1l0,-4.55c0,-15 12.2,-27.25 27.25,-27.25l9.1,0l0,18.2l-9.1,0c-5,0 -9.1,4.1 -9.1,9.1l0,4.55c0,15.05 -12.25,27.25 -27.25,27.25Z" style="fill:url(#_Linear3);fill-rule:nonzero;"/><rect x="59.1" y="4.483" width="18.05" height="18.385" style="fill:url(#_Linear4);"/></g></g><defs><linearGradient id="_Linear1" x1="0" y1="0" x2="1" y2="0" gradientUnits="userSpaceOnUse" gradientTransform="matrix(3.61883e-15,-59.1,59.1,3.61883e-15,18.2,95.5173)"><stop offset="0" style="stop-color:#3c63ad;stop-opacity:1"/><stop offset="1" style="stop-color:#025d31;stop-opacity:1"/></linearGradient><linearGradient id="_Linear2" x1="0" y1="0" x2="1" y2="0" gradientUnits="userSpaceOnUse" gradientTransform="matrix(44.95,45,-45,44.95,45.7,41.2173)"><stop offset="0" style="stop-color:#ba9ac8;stop-opacity:1"/><stop offset="1" style="stop-color:#28af87;stop-opacity:1"/></linearGradient><linearGradient id="_Linear3" x1="0" y1="0" x2="1" y2="0" gradientUnits="userSpaceOnUse" gradientTransform="matrix(45.45,0,0,45.45,5.32907e-15,34.1673)"><stop offset="0" style="stop-color:#2e55a0;stop-opacity:1"/><stop offset="1" style="stop-color:#f4b0cf;stop-opacity:1"/></linearGradient><linearGradient id="_Linear4" x1="0" y1="0" x2="1" y2="0" gradientUnits="userSpaceOnUse" gradientTransform="matrix(14.3315,-2.44745,2.44745,14.3315,61.017,10.572)"><stop offset="0" style="stop-color:#faa5c6;stop-opacity:1"/><stop offset="1" style="stop-color:#006fd8;stop-opacity:1"/></linearGradient></defs></svg>