<svg width="32" height="32" viewBox="0 0 32 32" fill="none" xmlns="http://www.w3.org/2000/svg">
<path d="M6.68458 0.0686084C6.11948 0.246725 5.71423 0.602959 5.46243 1.1434L5.33333 1.42595V11.6202V21.8145L5.46243 22.0971C5.65272 22.5084 5.99678 22.8586 6.39595 23.0553L6.74609 23.227H14.7296H22.7132L23.0633 23.0614C23.5115 22.8525 23.8738 22.478 24.0337 22.0542C24.1564 21.7165 24.1564 21.6736 24.1442 11.51L24.1259 1.30357L23.9847 1.0396C23.794 0.683368 23.4074 0.302788 23.0572 0.142931L22.7747 0.0138276L14.8526 0.00165475C8.58204 -0.00507268 6.88096 0.00742081 6.68458 0.0686084ZM22.6023 1.32151C22.9461 1.51789 22.9278 0.916264 22.9278 11.6202C22.9278 18.7622 22.9095 21.5198 22.8602 21.6179C22.8234 21.6915 22.7311 21.8021 22.6574 21.8575C22.5347 21.9558 22.0251 21.968 14.7415 21.968H6.94856L6.77044 21.7899L6.59232 21.6118V11.6324V1.65917L6.72143 1.49322C6.78902 1.40737 6.93638 1.30902 7.04082 1.27826C7.15743 1.24142 10.2956 1.22316 14.8523 1.22925C20.9134 1.24174 22.4979 1.26 22.6023 1.32151Z" fill="white"/>
<path d="M8.80949 2.58661C8.51476 2.69105 8.14636 3.02262 7.9865 3.31734C7.85131 3.56914 7.85131 3.60598 7.85131 5.97019V8.36516L8.01725 8.6538C8.23221 9.01612 8.61279 9.29258 9.01195 9.37844C9.233 9.42136 11.1244 9.43994 14.9504 9.42745L20.5633 9.40919L20.8151 9.274C21.1098 9.12055 21.4353 8.76432 21.5519 8.48177C21.6195 8.32223 21.6381 7.78179 21.6381 5.92086V3.56882L21.4417 3.23725C21.3065 3.01012 21.1409 2.84418 20.9381 2.7154L20.6373 2.53119L14.8277 2.51902C10.3754 2.51293 8.96902 2.52511 8.80949 2.58661ZM20.3118 3.82702C20.3977 3.90679 20.4101 4.18934 20.4101 5.96411C20.4101 7.61617 20.3916 8.0275 20.3243 8.08293C20.2628 8.13194 18.7398 8.14443 14.6928 8.13835L9.14138 8.11977L9.12312 6.00095C9.11094 4.06665 9.11703 3.87604 9.21538 3.80236C9.29515 3.74694 10.5051 3.72868 14.7668 3.72868C19.6423 3.72868 20.2256 3.74117 20.3118 3.82702Z" fill="white"/>
<path d="M8.13386 10.8155C7.87598 10.9628 7.82696 11.1349 7.82056 11.9393C7.82056 13.1983 7.80198 13.1858 9.68758 13.1858C10.5718 13.1858 11.1247 13.1611 11.2166 13.1182C11.487 12.9955 11.536 12.8049 11.536 11.9207C11.536 11.1038 11.536 11.0977 11.364 10.9321L11.198 10.7601L9.73659 10.7479C8.6067 10.7357 8.25047 10.7479 8.13386 10.8155Z" fill="white"/>
<path d="M13.231 10.8155C12.9731 10.9629 12.9241 11.1349 12.9177 11.9454C12.9177 12.7806 12.9853 13.0202 13.2618 13.1246C13.4889 13.2169 16.1482 13.2044 16.3138 13.1125C16.5778 12.9773 16.5963 12.8853 16.6024 11.9518C16.6024 10.6867 16.719 10.7665 14.8337 10.7482C13.7039 10.7357 13.3476 10.7479 13.231 10.8155Z" fill="white"/>
<path d="M18.2545 10.8216C17.9905 10.9629 17.9412 11.1839 17.9658 12.0745C17.9905 13.223 17.8675 13.1493 19.7592 13.1736L21.2514 13.1922L21.4478 13.0327L21.6381 12.8667V11.964C21.6381 10.6867 21.7547 10.7665 19.8694 10.7479C18.6966 10.7357 18.3833 10.7479 18.2545 10.8216Z" fill="white"/>
<path d="M7.99867 14.6969C7.8574 14.8504 7.85131 14.8872 7.85131 15.7349C7.85131 16.5825 7.8574 16.6194 7.99867 16.7728L8.14604 16.9324H9.66291C11.3518 16.9324 11.3887 16.9263 11.5053 16.515C11.585 16.2202 11.585 15.2499 11.5053 14.9551C11.3887 14.5438 11.3518 14.5374 9.66291 14.5374H8.14604L7.99867 14.6969Z" fill="white"/>
<path d="M13.0958 14.6969C12.9546 14.8504 12.9485 14.8872 12.9485 15.7349C12.9485 16.5825 12.9546 16.6194 13.0958 16.7728L13.2432 16.9324H14.7722H16.3013L16.4487 16.7789C16.596 16.6376 16.6021 16.6069 16.6021 15.7349C16.6021 14.8629 16.596 14.8321 16.4487 14.6909L16.3013 14.5374H14.7722H13.2432L13.0958 14.6969Z" fill="white"/>
<path d="M18.1132 14.7273C17.9598 14.9115 17.9537 14.9423 17.9537 15.7345C17.9537 16.5268 17.9598 16.5575 18.1132 16.7417L18.2731 16.932H19.8021H21.3372L21.4846 16.7786C21.632 16.6373 21.6381 16.6065 21.6381 15.7345C21.6381 14.8625 21.632 14.8318 21.4846 14.6905L21.3372 14.537H19.8021H18.2731L18.1132 14.7273Z" fill="white"/>
<path d="M8.13387 18.3691C7.87598 18.5104 7.82697 18.6885 7.82056 19.499C7.82056 20.3464 7.88207 20.5491 8.17679 20.6718C8.29949 20.7273 8.77265 20.7394 9.77344 20.7273L11.1981 20.7087L11.364 20.5367C11.536 20.3707 11.536 20.3646 11.536 19.548C11.536 18.6639 11.487 18.4733 11.2166 18.3506C10.9895 18.2464 8.32416 18.2647 8.13387 18.3691Z" fill="white"/>
<path d="M13.231 18.3691C12.9731 18.5104 12.9241 18.6885 12.9177 19.499C12.9177 20.3464 12.9792 20.5491 13.2739 20.6718C13.3966 20.7273 13.8698 20.7394 14.8706 20.7273C16.7129 20.7026 16.6024 20.7827 16.6024 19.5051V18.6027L16.4121 18.4428L16.2218 18.2833H14.8033C13.7407 18.2894 13.3415 18.3076 13.231 18.3691Z" fill="white"/>
<path d="M18.2606 18.363C18.0088 18.4922 17.9537 18.6824 17.9537 19.499C17.9537 20.3464 18.0152 20.5491 18.3099 20.6718C18.4326 20.7273 18.9054 20.7394 19.9065 20.7273C21.7489 20.7026 21.6384 20.7827 21.6384 19.5051V18.6027L21.4481 18.4428L21.2578 18.2833H19.8393C18.8193 18.2833 18.3711 18.3076 18.2606 18.363Z" fill="white"/>
<path d="M25.9 8.8322C25.7956 8.86295 25.6604 8.94272 25.5931 9.0164C25.4826 9.14551 25.4765 9.3233 25.4765 15.4645V21.7774L25.6056 21.9126C25.6854 21.9923 25.8453 22.0538 26.0109 22.0724C26.238 22.0971 26.3117 22.0785 26.4652 21.9497L26.6433 21.7963L26.6615 15.5016C26.6737 9.28678 26.6737 9.2131 26.551 9.05965C26.3976 8.85655 26.1458 8.77069 25.9 8.8322Z" fill="white"/>
<path d="M8.31198 26.4324C8.31198 27.9 8.34274 29.1654 8.37349 29.3925C8.50868 30.203 9.09204 30.9523 9.83494 31.2531L10.1851 31.3944H14.7296H19.2742L19.6304 31.2288C20.1154 31.0017 20.4166 30.7499 20.6744 30.3629C21.0797 29.7548 21.0858 29.6872 21.0858 26.6231V23.8719H20.4717H19.8572V26.4635C19.8572 28.1768 19.8325 29.1471 19.7896 29.3067C19.6237 29.8961 19.2678 30.1236 18.4387 30.1787L17.8922 30.2155V27.0405V23.8715H16.3263H14.7604L14.7482 27.0158L14.73 30.1662H12.6419C11.4934 30.1662 10.4801 30.1479 10.3882 30.1172C10.155 30.0556 9.78625 29.718 9.68822 29.4784C9.62063 29.3188 9.60237 28.7108 9.60237 26.5737V23.8715H8.95749H8.31262V26.4324H8.31198Z" fill="white"/>
</svg>
