<svg width="32" height="32" viewBox="0 0 32 32" fill="none" xmlns="http://www.w3.org/2000/svg">
<path d="M8 8.00002C8 7.29278 8.28095 6.6145 8.78105 6.1144C9.28115 5.61431 9.95942 5.33335 10.6667 5.33335C11.0203 5.33335 11.3594 5.19288 11.6095 4.94283C11.8595 4.69278 12 4.35364 12 4.00002C12 3.6464 11.8595 3.30726 11.6095 3.05721C11.3594 2.80716 11.0203 2.66669 10.6667 2.66669C9.25218 2.66669 7.89562 3.22859 6.89543 4.22878C5.89524 5.22898 5.33333 6.58553 5.33333 8.00002V12C5.33333 12.7073 5.05238 13.3855 4.55228 13.8856C4.05219 14.3857 3.37391 14.6667 2.66667 14.6667C2.31304 14.6667 1.9739 14.8072 1.72386 15.0572C1.47381 15.3073 1.33333 15.6464 1.33333 16C1.33333 16.3536 1.47381 16.6928 1.72386 16.9428C1.9739 17.1929 2.31304 17.3334 2.66667 17.3334C3.37391 17.3334 4.05219 17.6143 4.55228 18.1144C5.05238 18.6145 5.33333 19.2928 5.33333 20V24C5.33333 25.4145 5.89524 26.7711 6.89543 27.7713C7.89562 28.7714 9.25218 29.3334 10.6667 29.3334C11.0203 29.3334 11.3594 29.1929 11.6095 28.9428C11.8595 28.6928 12 28.3536 12 28C12 27.6464 11.8595 27.3073 11.6095 27.0572C11.3594 26.8072 11.0203 26.6667 10.6667 26.6667C9.95942 26.6667 9.28115 26.3857 8.78105 25.8856C8.28095 25.3855 8 24.7073 8 24V20C7.99572 19.2407 7.82935 18.4911 7.51203 17.8013C7.19472 17.1115 6.73376 16.4974 6.16 16C6.73376 15.5027 7.19472 14.8886 7.51203 14.1988C7.82935 13.5089 7.99572 12.7593 8 12V8.00002ZM29.3333 14.6667C28.6261 14.6667 27.9478 14.3857 27.4477 13.8856C26.9476 13.3855 26.6667 12.7073 26.6667 12V8.00002C26.6667 6.58553 26.1048 5.22898 25.1046 4.22878C24.1044 3.22859 22.7478 2.66669 21.3333 2.66669C20.9797 2.66669 20.6406 2.80716 20.3905 3.05721C20.1405 3.30726 20 3.6464 20 4.00002C20 4.35364 20.1405 4.69278 20.3905 4.94283C20.6406 5.19288 20.9797 5.33335 21.3333 5.33335C22.0406 5.33335 22.7189 5.61431 23.219 6.1144C23.719 6.6145 24 7.29278 24 8.00002V12C24.0043 12.7593 24.1707 13.5089 24.488 14.1988C24.8053 14.8886 25.2662 15.5027 25.84 16C25.2662 16.4974 24.8053 17.1115 24.488 17.8013C24.1707 18.4911 24.0043 19.2407 24 20V24C24 24.7073 23.719 25.3855 23.219 25.8856C22.7189 26.3857 22.0406 26.6667 21.3333 26.6667C20.9797 26.6667 20.6406 26.8072 20.3905 27.0572C20.1405 27.3073 20 27.6464 20 28C20 28.3536 20.1405 28.6928 20.3905 28.9428C20.6406 29.1929 20.9797 29.3334 21.3333 29.3334C22.7478 29.3334 24.1044 28.7714 25.1046 27.7713C26.1048 26.7711 26.6667 25.4145 26.6667 24V20C26.6667 19.2928 26.9476 18.6145 27.4477 18.1144C27.9478 17.6143 28.6261 17.3334 29.3333 17.3334C29.687 17.3334 30.0261 17.1929 30.2761 16.9428C30.5262 16.6928 30.6667 16.3536 30.6667 16C30.6667 15.6464 30.5262 15.3073 30.2761 15.0572C30.0261 14.8072 29.687 14.6667 29.3333 14.6667Z" fill="white"/>
</svg>
