<svg width="32" height="32" viewBox="0 0 32 32" fill="none" xmlns="http://www.w3.org/2000/svg">
<path d="M25.3333 6H6.66667C5.6058 6 4.58839 6.42143 3.83824 7.17157C3.0881 7.92172 2.66667 8.93913 2.66667 10V22C2.66667 23.0609 3.0881 24.0783 3.83824 24.8284C4.58839 25.5786 5.6058 26 6.66667 26H25.3333C26.3942 26 27.4116 25.5786 28.1618 24.8284C28.9119 24.0783 29.3333 23.0609 29.3333 22V10C29.3333 8.93913 28.9119 7.92172 28.1618 7.17157C27.4116 6.42143 26.3942 6 25.3333 6ZM26.6667 22C26.6667 22.3536 26.5262 22.6928 26.2761 22.9428C26.0261 23.1929 25.687 23.3333 25.3333 23.3333H6.66667C6.31305 23.3333 5.97391 23.1929 5.72386 22.9428C5.47381 22.6928 5.33333 22.3536 5.33333 22V10C5.33333 9.64638 5.47381 9.30724 5.72386 9.05719C5.97391 8.80714 6.31305 8.66667 6.66667 8.66667H25.3333C25.687 8.66667 26.0261 8.80714 26.2761 9.05719C26.5262 9.30724 26.6667 9.64638 26.6667 10V22ZM21.3333 14C20.6245 14.005 19.9296 14.1982 19.32 14.56C18.7127 14.1996 18.0208 14.0065 17.3146 14.0002C16.6084 13.9938 15.9132 14.1746 15.2995 14.524C14.6858 14.8735 14.1756 15.3792 13.8207 15.9897C13.4658 16.6002 13.2788 17.2938 13.2788 18C13.2788 18.7062 13.4658 19.3998 13.8207 20.0103C14.1756 20.6208 14.6858 21.1265 15.2995 21.476C15.9132 21.8254 16.6084 22.0062 17.3146 21.9998C18.0208 21.9935 18.7127 21.8004 19.32 21.44C19.8504 21.7547 20.4464 21.9425 21.0614 21.9887C21.6764 22.0349 22.2937 21.9382 22.8652 21.7063C23.4366 21.4744 23.9467 21.1135 24.3556 20.6518C24.7645 20.1901 25.061 19.6401 25.2221 19.0448C25.3832 18.4494 25.4045 17.8249 25.2843 17.2201C25.164 16.6152 24.9055 16.0463 24.529 15.5578C24.1525 15.0694 23.6681 14.6746 23.1138 14.4044C22.5594 14.1341 21.95 13.9957 21.3333 14V14ZM17.56 19.3333C17.4846 19.3398 17.4088 19.3398 17.3333 19.3333C16.9797 19.3333 16.6406 19.1929 16.3905 18.9428C16.1405 18.6928 16 18.3536 16 18C16 17.6464 16.1405 17.3072 16.3905 17.0572C16.6406 16.8071 16.9797 16.6667 17.3333 16.6667C17.4088 16.6602 17.4846 16.6602 17.56 16.6667C17.2583 17.4933 17.2583 18.4 17.56 19.2267V19.3333ZM21.3333 19.3333C21.0696 19.3333 20.8118 19.2551 20.5926 19.1086C20.3733 18.9621 20.2024 18.7539 20.1015 18.5102C20.0006 18.2666 19.9742 17.9985 20.0256 17.7399C20.0771 17.4812 20.2041 17.2437 20.3905 17.0572C20.577 16.8707 20.8146 16.7437 21.0732 16.6923C21.3319 16.6408 21.5999 16.6672 21.8436 16.7682C22.0872 16.8691 22.2955 17.04 22.442 17.2592C22.5885 17.4785 22.6667 17.7363 22.6667 18C22.6667 18.3536 22.5262 18.6928 22.2761 18.9428C22.0261 19.1929 21.687 19.3333 21.3333 19.3333Z" fill="white"/>
</svg>
