<svg width="32" height="32" viewBox="0 0 32 32" fill="none" xmlns="http://www.w3.org/2000/svg">
<path d="M8.82667 17.44C8.66121 17.4999 8.51094 17.5954 8.38651 17.7199C8.26209 17.8443 8.16655 17.9946 8.10667 18.16C8.00968 18.4023 7.98594 18.6678 8.03838 18.9234C8.09083 19.1791 8.21716 19.4138 8.40171 19.5983C8.58626 19.7829 8.82092 19.9092 9.07659 19.9616C9.33226 20.0141 9.5977 19.9903 9.84 19.8933C10.0016 19.8258 10.1504 19.7311 10.28 19.6133C10.3978 19.4837 10.4925 19.3349 10.56 19.1733C10.6346 19.0151 10.6712 18.8416 10.6667 18.6667C10.6618 18.3137 10.5236 17.9755 10.28 17.72C10.0925 17.535 9.85441 17.4097 9.59575 17.3598C9.3371 17.31 9.06948 17.3379 8.82667 17.44ZM26.3467 12.1067L24.5333 6.73335C24.2567 5.95099 23.7437 5.27402 23.0652 4.79623C22.3867 4.31844 21.5765 4.06348 20.7467 4.06668H11.2533C10.4235 4.06348 9.61326 4.31844 8.9348 4.79623C8.25634 5.27402 7.74327 5.95099 7.46667 6.73335L5.65333 12.1467C4.80044 12.37 4.04522 12.8689 3.50511 13.5657C2.96499 14.2626 2.67024 15.1184 2.66667 16V21.3333C2.66899 22.1586 2.92651 22.9629 3.40392 23.6361C3.88133 24.3093 4.55527 24.8183 5.33333 25.0933V26.6667C5.33333 27.0203 5.47381 27.3594 5.72386 27.6095C5.97391 27.8595 6.31305 28 6.66667 28C7.02029 28 7.35943 27.8595 7.60948 27.6095C7.85953 27.3594 8 27.0203 8 26.6667V25.3333H24V26.6667C24 27.0203 24.1405 27.3594 24.3905 27.6095C24.6406 27.8595 24.9797 28 25.3333 28C25.687 28 26.0261 27.8595 26.2761 27.6095C26.5262 27.3594 26.6667 27.0203 26.6667 26.6667V25.0933C27.4447 24.8183 28.1187 24.3093 28.5961 23.6361C29.0735 22.9629 29.331 22.1586 29.3333 21.3333V16C29.3298 15.1184 29.035 14.2626 28.4949 13.5657C27.9548 12.8689 27.1996 12.37 26.3467 12.1467V12.1067ZM9.98667 7.57335C10.0761 7.30852 10.2465 7.0785 10.4738 6.9158C10.7011 6.75311 10.9738 6.66596 11.2533 6.66668H20.7467C21.0374 6.6515 21.3252 6.73192 21.5659 6.89563C21.8067 7.05935 21.9872 7.29737 22.08 7.57335L23.48 12H8.52L9.98667 7.57335ZM26.6667 21.3333C26.6667 21.687 26.5262 22.0261 26.2761 22.2762C26.0261 22.5262 25.687 22.6667 25.3333 22.6667H6.66667C6.31305 22.6667 5.97391 22.5262 5.72386 22.2762C5.47381 22.0261 5.33333 21.687 5.33333 21.3333V16C5.33333 15.6464 5.47381 15.3073 5.72386 15.0572C5.97391 14.8072 6.31305 14.6667 6.66667 14.6667H25.3333C25.687 14.6667 26.0261 14.8072 26.2761 15.0572C26.5262 15.3073 26.6667 15.6464 26.6667 16V21.3333ZM22.16 17.44C21.9945 17.4999 21.8443 17.5954 21.7198 17.7199C21.5954 17.8443 21.4999 17.9946 21.44 18.16C21.343 18.4023 21.3193 18.6678 21.3717 18.9234C21.4242 19.1791 21.5505 19.4138 21.735 19.5983C21.9196 19.7829 22.1543 19.9092 22.4099 19.9616C22.6656 20.0141 22.931 19.9903 23.1733 19.8933C23.3388 19.8335 23.4891 19.7379 23.6135 19.6135C23.7379 19.4891 23.8335 19.3388 23.8933 19.1733C23.968 19.0151 24.0045 18.8416 24 18.6667C23.9951 18.3137 23.857 17.9755 23.6133 17.72C23.4258 17.535 23.1877 17.4097 22.9291 17.3598C22.6704 17.31 22.4028 17.3379 22.16 17.44V17.44ZM17.3333 17.3333H14.6667C14.313 17.3333 13.9739 17.4738 13.7239 17.7239C13.4738 17.9739 13.3333 18.3131 13.3333 18.6667C13.3333 19.0203 13.4738 19.3594 13.7239 19.6095C13.9739 19.8595 14.313 20 14.6667 20H17.3333C17.687 20 18.0261 19.8595 18.2761 19.6095C18.5262 19.3594 18.6667 19.0203 18.6667 18.6667C18.6667 18.3131 18.5262 17.9739 18.2761 17.7239C18.0261 17.4738 17.687 17.3333 17.3333 17.3333Z" fill="white"/>
</svg>
