<svg width="32" height="32" viewBox="0 0 32 32" fill="none" xmlns="http://www.w3.org/2000/svg">
<path d="M9.33333 3H4C3.73586 3.00345 3.4835 3.10992 3.29671 3.29671C3.10992 3.4835 3.00345 3.73586 3 4V9.33333C3.00345 9.59748 3.10992 9.84983 3.29671 10.0366C3.4835 10.2234 3.73586 10.3299 4 10.3333H9.33333C9.59748 10.3299 9.84983 10.2234 10.0366 10.0366C10.2234 9.84983 10.3299 9.59748 10.3333 9.33333V4C10.3299 3.73586 10.2234 3.4835 10.0366 3.29671C9.84983 3.10992 9.59748 3.00345 9.33333 3V3ZM8.33333 8.33333H5V5H8.33333V8.33333ZM28 3H22.6667C22.4025 3.00345 22.1502 3.10992 21.9634 3.29671C21.7766 3.4835 21.6701 3.73586 21.6667 4V9.33333C21.6701 9.59748 21.7766 9.84983 21.9634 10.0366C22.1502 10.2234 22.4025 10.3299 22.6667 10.3333H28C28.2641 10.3299 28.5165 10.2234 28.7033 10.0366C28.8901 9.84983 28.9965 9.59748 29 9.33333V4C28.9965 3.73586 28.8901 3.4835 28.7033 3.29671C28.5165 3.10992 28.2641 3.00345 28 3ZM27 8.33333H23.6667V5H27V8.33333ZM18.6667 3H13.3333C13.0692 3.00345 12.8168 3.10992 12.63 3.29671C12.4433 3.4835 12.3368 3.73586 12.3333 4V9.33333C12.3368 9.59748 12.4433 9.84983 12.63 10.0366C12.8168 10.2234 13.0692 10.3299 13.3333 10.3333H18.6667C18.9308 10.3299 19.1832 10.2234 19.37 10.0366C19.5567 9.84983 19.6632 9.59748 19.6667 9.33333V4C19.6632 3.73586 19.5567 3.4835 19.37 3.29671C19.1832 3.10992 18.9308 3.00345 18.6667 3ZM17.6667 8.33333H14.3333V5H17.6667V8.33333ZM9.33333 12.3333H4C3.73586 12.3368 3.4835 12.4433 3.29671 12.63C3.10992 12.8168 3.00345 13.0692 3 13.3333V18.6667C3.00345 18.9308 3.10992 19.1832 3.29671 19.37C3.4835 19.5567 3.73586 19.6632 4 19.6667H9.33333C9.59748 19.6632 9.84983 19.5567 10.0366 19.37C10.2234 19.1832 10.3299 18.9308 10.3333 18.6667V13.3333C10.3299 13.0692 10.2234 12.8168 10.0366 12.63C9.84983 12.4433 9.59748 12.3368 9.33333 12.3333V12.3333ZM8.33333 17.6667H5V14.3333H8.33333V17.6667ZM18.6667 12.3333H13.3333C13.0692 12.3368 12.8168 12.4433 12.63 12.63C12.4433 12.8168 12.3368 13.0692 12.3333 13.3333V18.6667C12.3368 18.9308 12.4433 19.1832 12.63 19.37C12.8168 19.5567 13.0692 19.6632 13.3333 19.6667H18.6667C18.9308 19.6632 19.1832 19.5567 19.37 19.37C19.5567 19.1832 19.6632 18.9308 19.6667 18.6667V13.3333C19.6632 13.0692 19.5567 12.8168 19.37 12.63C19.1832 12.4433 18.9308 12.3368 18.6667 12.3333ZM17.6667 17.6667H14.3333V14.3333H17.6667V17.6667ZM28 12.3333H22.6667C22.4025 12.3368 22.1502 12.4433 21.9634 12.63C21.7766 12.8168 21.6701 13.0692 21.6667 13.3333V18.6667C21.6701 18.9308 21.7766 19.1832 21.9634 19.37C22.1502 19.5567 22.4025 19.6632 22.6667 19.6667H28C28.2641 19.6632 28.5165 19.5567 28.7033 19.37C28.8901 19.1832 28.9965 18.9308 29 18.6667V13.3333C28.9965 13.0692 28.8901 12.8168 28.7033 12.63C28.5165 12.4433 28.2641 12.3368 28 12.3333ZM27 17.6667H23.6667V14.3333H27V17.6667ZM18.6667 21.6667H13.3333C13.0692 21.6701 12.8168 21.7766 12.63 21.9634C12.4433 22.1502 12.3368 22.4025 12.3333 22.6667V28C12.3368 28.2641 12.4433 28.5165 12.63 28.7033C12.8168 28.8901 13.0692 28.9965 13.3333 29H18.6667C18.9308 28.9965 19.1832 28.8901 19.37 28.7033C19.5567 28.5165 19.6632 28.2641 19.6667 28V22.6667C19.6632 22.4025 19.5567 22.1502 19.37 21.9634C19.1832 21.7766 18.9308 21.6701 18.6667 21.6667ZM17.6667 27H14.3333V23.6667H17.6667V27Z" fill="white"/>
</svg>
