<svg width="32" height="32" viewBox="0 0 32 32" fill="none" xmlns="http://www.w3.org/2000/svg">
<path d="M29.3333 2.66666H2.66667C2.31304 2.66666 1.9739 2.80713 1.72386 3.05718C1.47381 3.30723 1.33333 3.64637 1.33333 3.99999V14.6667C1.33333 15.0203 1.47381 15.3594 1.72386 15.6095C1.9739 15.8595 2.31304 16 2.66667 16H6.66667V28C6.66667 28.3536 6.80714 28.6928 7.05719 28.9428C7.30724 29.1928 7.64638 29.3333 8 29.3333H24C24.3536 29.3333 24.6928 29.1928 24.9428 28.9428C25.1929 28.6928 25.3333 28.3536 25.3333 28V16H29.3333C29.687 16 30.0261 15.8595 30.2761 15.6095C30.5262 15.3594 30.6667 15.0203 30.6667 14.6667V3.99999C30.6667 3.64637 30.5262 3.30723 30.2761 3.05718C30.0261 2.80713 29.687 2.66666 29.3333 2.66666V2.66666ZM9.33333 26.6667V24C10.0406 24 10.7189 24.2809 11.2189 24.781C11.719 25.2811 12 25.9594 12 26.6667H9.33333ZM22.6667 26.6667H20C20 25.9594 20.2809 25.2811 20.781 24.781C21.2811 24.2809 21.9594 24 22.6667 24V26.6667ZM22.6667 21.3333C21.2522 21.3333 19.8956 21.8952 18.8954 22.8954C17.8952 23.8956 17.3333 25.2522 17.3333 26.6667H14.6667C14.6667 25.2522 14.1048 23.8956 13.1046 22.8954C12.1044 21.8952 10.7478 21.3333 9.33333 21.3333V10.6667H22.6667V21.3333ZM28 13.3333H25.3333V9.33332C25.3333 8.9797 25.1929 8.64056 24.9428 8.39051C24.6928 8.14047 24.3536 7.99999 24 7.99999H8C7.64638 7.99999 7.30724 8.14047 7.05719 8.39051C6.80714 8.64056 6.66667 8.9797 6.66667 9.33332V13.3333H4V5.33332H28V13.3333ZM16 20C16.7911 20 17.5645 19.7654 18.2223 19.3259C18.8801 18.8863 19.3928 18.2616 19.6955 17.5307C19.9983 16.7998 20.0775 15.9956 19.9231 15.2196C19.7688 14.4437 19.3878 13.731 18.8284 13.1716C18.269 12.6122 17.5563 12.2312 16.7804 12.0768C16.0044 11.9225 15.2002 12.0017 14.4693 12.3045C13.7384 12.6072 13.1136 13.1199 12.6741 13.7777C12.2346 14.4355 12 15.2089 12 16C12 17.0609 12.4214 18.0783 13.1716 18.8284C13.9217 19.5786 14.9391 20 16 20ZM16 14.6667C16.2637 14.6667 16.5215 14.7449 16.7408 14.8914C16.96 15.0379 17.1309 15.2461 17.2318 15.4897C17.3328 15.7334 17.3592 16.0015 17.3077 16.2601C17.2563 16.5188 17.1293 16.7563 16.9428 16.9428C16.7563 17.1293 16.5188 17.2563 16.2601 17.3077C16.0015 17.3592 15.7334 17.3327 15.4898 17.2318C15.2461 17.1309 15.0379 16.96 14.8914 16.7408C14.7449 16.5215 14.6667 16.2637 14.6667 16C14.6667 15.6464 14.8071 15.3072 15.0572 15.0572C15.3072 14.8071 15.6464 14.6667 16 14.6667V14.6667Z" fill="white"/>
</svg>
