<svg width="32" height="32" viewBox="0 0 32 32" fill="none" xmlns="http://www.w3.org/2000/svg">
<path d="M9.33332 13.3333C9.06961 13.3333 8.81183 13.4115 8.59256 13.558C8.3733 13.7045 8.2024 13.9127 8.10148 14.1564C8.00057 14.4 7.97416 14.6681 8.02561 14.9267C8.07706 15.1854 8.20404 15.423 8.39051 15.6094C8.57698 15.7959 8.81456 15.9229 9.0732 15.9743C9.33184 16.0258 9.59993 15.9994 9.84357 15.8985C10.0872 15.7975 10.2954 15.6267 10.4419 15.4074C10.5885 15.1881 10.6667 14.9303 10.6667 14.6666C10.6667 14.313 10.5262 13.9739 10.2761 13.7238C10.0261 13.4738 9.68695 13.3333 9.33332 13.3333ZM25.3333 7.99996H24V3.99996C24 3.64634 23.8595 3.3072 23.6095 3.05715C23.3594 2.8071 23.0203 2.66663 22.6667 2.66663H9.33332C8.9797 2.66663 8.64056 2.8071 8.39051 3.05715C8.14047 3.3072 7.99999 3.64634 7.99999 3.99996V7.99996H6.66666C5.60579 7.99996 4.58838 8.42139 3.83823 9.17153C3.08808 9.92168 2.66666 10.9391 2.66666 12V20C2.66666 21.0608 3.08808 22.0782 3.83823 22.8284C4.58838 23.5785 5.60579 24 6.66666 24H7.99999V28C7.99999 28.3536 8.14047 28.6927 8.39051 28.9428C8.64056 29.1928 8.9797 29.3333 9.33332 29.3333H22.6667C23.0203 29.3333 23.3594 29.1928 23.6095 28.9428C23.8595 28.6927 24 28.3536 24 28V24H25.3333C26.3942 24 27.4116 23.5785 28.1618 22.8284C28.9119 22.0782 29.3333 21.0608 29.3333 20V12C29.3333 10.9391 28.9119 9.92168 28.1618 9.17153C27.4116 8.42139 26.3942 7.99996 25.3333 7.99996ZM10.6667 5.33329H21.3333V7.99996H10.6667V5.33329ZM21.3333 26.6666H10.6667V21.3333H21.3333V26.6666ZM26.6667 20C26.6667 20.3536 26.5262 20.6927 26.2761 20.9428C26.0261 21.1928 25.6869 21.3333 25.3333 21.3333H24V20C24 19.6463 23.8595 19.3072 23.6095 19.0572C23.3594 18.8071 23.0203 18.6666 22.6667 18.6666H9.33332C8.9797 18.6666 8.64056 18.8071 8.39051 19.0572C8.14047 19.3072 7.99999 19.6463 7.99999 20V21.3333H6.66666C6.31303 21.3333 5.9739 21.1928 5.72385 20.9428C5.4738 20.6927 5.33332 20.3536 5.33332 20V12C5.33332 11.6463 5.4738 11.3072 5.72385 11.0572C5.9739 10.8071 6.31303 10.6666 6.66666 10.6666H25.3333C25.6869 10.6666 26.0261 10.8071 26.2761 11.0572C26.5262 11.3072 26.6667 11.6463 26.6667 12V20Z" fill="black"/>
</svg>
