<svg width="32" height="32" viewBox="0 0 32 32" fill="none" xmlns="http://www.w3.org/2000/svg">
<path d="M20 22.6667C19.7363 22.6667 19.4785 22.7449 19.2592 22.8914C19.04 23.0379 18.8691 23.2461 18.7682 23.4898C18.6672 23.7334 18.6408 24.0015 18.6923 24.2601C18.7437 24.5188 18.8707 24.7564 19.0572 24.9428C19.2437 25.1293 19.4812 25.2563 19.7399 25.3077C19.9985 25.3592 20.2666 25.3328 20.5102 25.2319C20.7539 25.1309 20.9621 24.96 21.1086 24.7408C21.2551 24.5215 21.3333 24.2637 21.3333 24C21.3333 23.6464 21.1929 23.3073 20.9428 23.0572C20.6928 22.8072 20.3536 22.6667 20 22.6667ZM12 22.6667H8C7.64638 22.6667 7.30724 22.8072 7.05719 23.0572C6.80714 23.3073 6.66667 23.6464 6.66667 24C6.66667 24.3536 6.80714 24.6928 7.05719 24.9428C7.30724 25.1929 7.64638 25.3334 8 25.3334H12C12.3536 25.3334 12.6928 25.1929 12.9428 24.9428C13.1929 24.6928 13.3333 24.3536 13.3333 24C13.3333 23.6464 13.1929 23.3073 12.9428 23.0572C12.6928 22.8072 12.3536 22.6667 12 22.6667ZM24 22.6667C23.7363 22.6667 23.4785 22.7449 23.2592 22.8914C23.04 23.0379 22.8691 23.2461 22.7682 23.4898C22.6672 23.7334 22.6408 24.0015 22.6923 24.2601C22.7437 24.5188 22.8707 24.7564 23.0572 24.9428C23.2437 25.1293 23.4812 25.2563 23.7399 25.3077C23.9985 25.3592 24.2666 25.3328 24.5102 25.2319C24.7539 25.1309 24.9621 24.96 25.1086 24.7408C25.2551 24.5215 25.3333 24.2637 25.3333 24C25.3333 23.6464 25.1929 23.3073 24.9428 23.0572C24.6928 22.8072 24.3536 22.6667 24 22.6667ZM20 14.6667C19.7363 14.6667 19.4785 14.7449 19.2592 14.8914C19.04 15.0379 18.8691 15.2461 18.7682 15.4898C18.6672 15.7334 18.6408 16.0015 18.6923 16.2601C18.7437 16.5188 18.8707 16.7564 19.0572 16.9428C19.2437 17.1293 19.4812 17.2563 19.7399 17.3077C19.9985 17.3592 20.2666 17.3328 20.5102 17.2319C20.7539 17.1309 20.9621 16.96 21.1086 16.7408C21.2551 16.5215 21.3333 16.2637 21.3333 16C21.3333 15.6464 21.1929 15.3073 20.9428 15.0572C20.6928 14.8072 20.3536 14.6667 20 14.6667ZM12 14.6667H8C7.64638 14.6667 7.30724 14.8072 7.05719 15.0572C6.80714 15.3073 6.66667 15.6464 6.66667 16C6.66667 16.3536 6.80714 16.6928 7.05719 16.9428C7.30724 17.1929 7.64638 17.3334 8 17.3334H12C12.3536 17.3334 12.6928 17.1929 12.9428 16.9428C13.1929 16.6928 13.3333 16.3536 13.3333 16C13.3333 15.6464 13.1929 15.3073 12.9428 15.0572C12.6928 14.8072 12.3536 14.6667 12 14.6667ZM24 6.66669C23.7363 6.66669 23.4785 6.74489 23.2592 6.89139C23.04 7.0379 22.8691 7.24614 22.7682 7.48978C22.6672 7.73341 22.6408 8.0015 22.6923 8.26014C22.7437 8.51878 22.8707 8.75636 23.0572 8.94283C23.2437 9.1293 23.4812 9.25629 23.7399 9.30773C23.9985 9.35918 24.2666 9.33278 24.5102 9.23186C24.7539 9.13094 24.9621 8.96005 25.1086 8.74078C25.2551 8.52152 25.3333 8.26373 25.3333 8.00002C25.3333 7.6464 25.1929 7.30726 24.9428 7.05721C24.6928 6.80716 24.3536 6.66669 24 6.66669ZM24 14.6667C23.7363 14.6667 23.4785 14.7449 23.2592 14.8914C23.04 15.0379 22.8691 15.2461 22.7682 15.4898C22.6672 15.7334 22.6408 16.0015 22.6923 16.2601C22.7437 16.5188 22.8707 16.7564 23.0572 16.9428C23.2437 17.1293 23.4812 17.2563 23.7399 17.3077C23.9985 17.3592 24.2666 17.3328 24.5102 17.2319C24.7539 17.1309 24.9621 16.96 25.1086 16.7408C25.2551 16.5215 25.3333 16.2637 25.3333 16C25.3333 15.6464 25.1929 15.3073 24.9428 15.0572C24.6928 14.8072 24.3536 14.6667 24 14.6667ZM29.3333 6.66669C29.3333 5.60582 28.9119 4.58841 28.1618 3.83826C27.4116 3.08811 26.3942 2.66669 25.3333 2.66669H6.66667C5.6058 2.66669 4.58839 3.08811 3.83824 3.83826C3.0881 4.58841 2.66667 5.60582 2.66667 6.66669V9.33335C2.67255 10.3201 3.04295 11.2698 3.70667 12C3.04295 12.7302 2.67255 13.6799 2.66667 14.6667V17.3334C2.67255 18.3201 3.04295 19.2698 3.70667 20C3.04295 20.7302 2.67255 21.6799 2.66667 22.6667V25.3334C2.66667 26.3942 3.0881 27.4116 3.83824 28.1618C4.58839 28.9119 5.6058 29.3334 6.66667 29.3334H25.3333C26.3942 29.3334 27.4116 28.9119 28.1618 28.1618C28.9119 27.4116 29.3333 26.3942 29.3333 25.3334V22.6667C29.3275 21.6799 28.9571 20.7302 28.2933 20C28.9571 19.2698 29.3275 18.3201 29.3333 17.3334V14.6667C29.3275 13.6799 28.9571 12.7302 28.2933 12C28.9571 11.2698 29.3275 10.3201 29.3333 9.33335V6.66669ZM26.6667 25.3334C26.6667 25.687 26.5262 26.0261 26.2761 26.2762C26.0261 26.5262 25.687 26.6667 25.3333 26.6667H6.66667C6.31305 26.6667 5.97391 26.5262 5.72386 26.2762C5.47381 26.0261 5.33333 25.687 5.33333 25.3334V22.6667C5.33333 22.3131 5.47381 21.9739 5.72386 21.7239C5.97391 21.4738 6.31305 21.3334 6.66667 21.3334H25.3333C25.687 21.3334 26.0261 21.4738 26.2761 21.7239C26.5262 21.9739 26.6667 22.3131 26.6667 22.6667V25.3334ZM26.6667 17.3334C26.6667 17.687 26.5262 18.0261 26.2761 18.2762C26.0261 18.5262 25.687 18.6667 25.3333 18.6667H6.66667C6.31305 18.6667 5.97391 18.5262 5.72386 18.2762C5.47381 18.0261 5.33333 17.687 5.33333 17.3334V14.6667C5.33333 14.3131 5.47381 13.9739 5.72386 13.7239C5.97391 13.4738 6.31305 13.3334 6.66667 13.3334H25.3333C25.687 13.3334 26.0261 13.4738 26.2761 13.7239C26.5262 13.9739 26.6667 14.3131 26.6667 14.6667V17.3334ZM26.6667 9.33335C26.6667 9.68698 26.5262 10.0261 26.2761 10.2762C26.0261 10.5262 25.687 10.6667 25.3333 10.6667H6.66667C6.31305 10.6667 5.97391 10.5262 5.72386 10.2762C5.47381 10.0261 5.33333 9.68698 5.33333 9.33335V6.66669C5.33333 6.31307 5.47381 5.97393 5.72386 5.72388C5.97391 5.47383 6.31305 5.33335 6.66667 5.33335H25.3333C25.687 5.33335 26.0261 5.47383 26.2761 5.72388C26.5262 5.97393 26.6667 6.31307 26.6667 6.66669V9.33335ZM20 6.66669C19.7363 6.66669 19.4785 6.74489 19.2592 6.89139C19.04 7.0379 18.8691 7.24614 18.7682 7.48978C18.6672 7.73341 18.6408 8.0015 18.6923 8.26014C18.7437 8.51878 18.8707 8.75636 19.0572 8.94283C19.2437 9.1293 19.4812 9.25629 19.7399 9.30773C19.9985 9.35918 20.2666 9.33278 20.5102 9.23186C20.7539 9.13094 20.9621 8.96005 21.1086 8.74078C21.2551 8.52152 21.3333 8.26373 21.3333 8.00002C21.3333 7.6464 21.1929 7.30726 20.9428 7.05721C20.6928 6.80716 20.3536 6.66669 20 6.66669ZM12 6.66669H8C7.64638 6.66669 7.30724 6.80716 7.05719 7.05721C6.80714 7.30726 6.66667 7.6464 6.66667 8.00002C6.66667 8.35364 6.80714 8.69278 7.05719 8.94283C7.30724 9.19288 7.64638 9.33335 8 9.33335H12C12.3536 9.33335 12.6928 9.19288 12.9428 8.94283C13.1929 8.69278 13.3333 8.35364 13.3333 8.00002C13.3333 7.6464 13.1929 7.30726 12.9428 7.05721C12.6928 6.80716 12.3536 6.66669 12 6.66669Z" fill="white"/>
</svg>
