<svg width="32" height="32" viewBox="0 0 32 32" fill="none" xmlns="http://www.w3.org/2000/svg">
<path d="M29.3333 6.66665H2.66667C2.31304 6.66665 1.9739 6.80712 1.72386 7.05717C1.47381 7.30722 1.33333 7.64636 1.33333 7.99998V13.3333C1.33565 14.1586 1.59317 14.9629 2.07058 15.6361C2.548 16.3092 3.22193 16.8182 4 17.0933V29.3333C4 29.6869 4.14047 30.0261 4.39052 30.2761C4.64057 30.5262 4.97971 30.6666 5.33333 30.6666H26.6667C27.0203 30.6666 27.3594 30.5262 27.6095 30.2761C27.8595 30.0261 28 29.6869 28 29.3333V17.0933C28.7781 16.8182 29.452 16.3092 29.9294 15.6361C30.4068 14.9629 30.6643 14.1586 30.6667 13.3333V7.99998C30.6667 7.64636 30.5262 7.30722 30.2761 7.05717C30.0261 6.80712 29.687 6.66665 29.3333 6.66665ZM20 9.33331H22.6667V13.3333C22.6667 13.6869 22.5262 14.0261 22.2761 14.2761C22.0261 14.5262 21.687 14.6666 21.3333 14.6666C20.9797 14.6666 20.6406 14.5262 20.3905 14.2761C20.1405 14.0261 20 13.6869 20 13.3333V9.33331ZM14.6667 9.33331H17.3333V13.3333C17.3333 13.6869 17.1929 14.0261 16.9428 14.2761C16.6928 14.5262 16.3536 14.6666 16 14.6666C15.6464 14.6666 15.3072 14.5262 15.0572 14.2761C14.8071 14.0261 14.6667 13.6869 14.6667 13.3333V9.33331ZM9.33333 9.33331H12V13.3333C12 13.6869 11.8595 14.0261 11.6095 14.2761C11.3594 14.5262 11.0203 14.6666 10.6667 14.6666C10.313 14.6666 9.9739 14.5262 9.72386 14.2761C9.47381 14.0261 9.33333 13.6869 9.33333 13.3333V9.33331ZM5.33333 14.6666C4.97971 14.6666 4.64057 14.5262 4.39052 14.2761C4.14047 14.0261 4 13.6869 4 13.3333V9.33331H6.66667V13.3333C6.66667 13.6869 6.52619 14.0261 6.27614 14.2761C6.02609 14.5262 5.68695 14.6666 5.33333 14.6666ZM18.6667 28H13.3333V25.3333C13.3333 24.6261 13.6143 23.9478 14.1144 23.4477C14.6145 22.9476 15.2928 22.6666 16 22.6666C16.7072 22.6666 17.3855 22.9476 17.8856 23.4477C18.3857 23.9478 18.6667 24.6261 18.6667 25.3333V28ZM25.3333 28H21.3333V25.3333C21.3333 23.9188 20.7714 22.5623 19.7712 21.5621C18.771 20.5619 17.4145 20 16 20C14.5855 20 13.229 20.5619 12.2288 21.5621C11.2286 22.5623 10.6667 23.9188 10.6667 25.3333V28H6.66667V17.0933C7.15676 16.9114 7.60885 16.6401 8 16.2933C8.73336 16.9493 9.68276 17.3119 10.6667 17.3119C11.6506 17.3119 12.6 16.9493 13.3333 16.2933C14.0667 16.9493 15.0161 17.3119 16 17.3119C16.9839 17.3119 17.9333 16.9493 18.6667 16.2933C19.4 16.9493 20.3494 17.3119 21.3333 17.3119C22.3172 17.3119 23.2666 16.9493 24 16.2933C24.3911 16.6401 24.8432 16.9114 25.3333 17.0933V28ZM28 13.3333C28 13.6869 27.8595 14.0261 27.6095 14.2761C27.3594 14.5262 27.0203 14.6666 26.6667 14.6666C26.313 14.6666 25.9739 14.5262 25.7239 14.2761C25.4738 14.0261 25.3333 13.6869 25.3333 13.3333V9.33331H28V13.3333ZM5.73333 3.99998H26.6667C27.0203 3.99998 27.3594 3.8595 27.6095 3.60946C27.8595 3.35941 28 3.02027 28 2.66665C28 2.31302 27.8595 1.97389 27.6095 1.72384C27.3594 1.47379 27.0203 1.33331 26.6667 1.33331H5.73333C5.37971 1.33331 5.04057 1.47379 4.79052 1.72384C4.54047 1.97389 4.4 2.31302 4.4 2.66665C4.4 3.02027 4.54047 3.35941 4.79052 3.60946C5.04057 3.8595 5.37971 3.99998 5.73333 3.99998V3.99998Z" fill="white"/>
</svg>
