<svg width="32" height="32" viewBox="0 0 32 32" fill="none" xmlns="http://www.w3.org/2000/svg">
<path d="M22.6667 4.66663H9.33332C8.09565 4.66663 6.90866 5.15829 6.03349 6.03346C5.15832 6.90863 4.66666 8.09562 4.66666 9.33329V22.6666C4.66666 23.9043 5.15832 25.0913 6.03349 25.9665C6.90866 26.8416 8.09565 27.3333 9.33332 27.3333H22.6667C23.9043 27.3333 25.0913 26.8416 25.9665 25.9665C26.8417 25.0913 27.3333 23.9043 27.3333 22.6666V9.33329C27.3333 8.09562 26.8417 6.90863 25.9665 6.03346C25.0913 5.15829 23.9043 4.66663 22.6667 4.66663V4.66663ZM14 7.33329H18V11.3333H14V7.33329ZM11.3333 24.6666H9.33332C8.80289 24.6666 8.29418 24.4559 7.91911 24.0808C7.54404 23.7058 7.33332 23.1971 7.33332 22.6666V20.6666H11.3333V24.6666ZM18 24.6666H14V20.6666H18V24.6666ZM24.6667 22.6666C24.6667 23.1971 24.4559 23.7058 24.0809 24.0808C23.7058 24.4559 23.1971 24.6666 22.6667 24.6666H20.6667V20.6666H24.6667V22.6666ZM24.6667 18H7.33332V9.33329C7.33332 8.80286 7.54404 8.29415 7.91911 7.91908C8.29418 7.54401 8.80289 7.33329 9.33332 7.33329H11.3333V12.6666C11.3333 13.0202 11.4738 13.3594 11.7238 13.6094C11.9739 13.8595 12.313 14 12.6667 14H24.6667V18ZM24.6667 11.3333H20.6667V7.33329H22.6667C23.1971 7.33329 23.7058 7.54401 24.0809 7.91908C24.4559 8.29415 24.6667 8.80286 24.6667 9.33329V11.3333Z" fill="black"/>
</svg>
