<svg width="32" height="32" viewBox="0 0 32 32" fill="none" xmlns="http://www.w3.org/2000/svg">
<path d="M18.7084 12.2446V8.97539H26.1834V4H5.83445V8.98136H13.3095V12.2446C7.23639 12.525 2.66667 13.7241 2.66667 15.1678C2.66667 16.6115 7.23639 17.8106 13.3095 18.091V28.5608H18.7144V18.091C24.7755 17.8106 29.3333 16.6115 29.3333 15.1678C29.3333 13.7241 24.7755 12.525 18.7144 12.2446M18.7144 17.2021C18.5593 17.2081 17.7778 17.2558 16.0358 17.2558C14.6398 17.2558 13.6614 17.214 13.3154 17.1961C7.95228 16.9635 3.94333 16.0268 3.94333 14.9113C3.94333 13.7957 7.94631 12.8591 13.3154 12.6204V16.2714C13.6674 16.2953 14.6697 16.355 16.0597 16.355C17.7241 16.355 18.5653 16.2834 18.7204 16.2714V12.6204C24.0776 12.8591 28.0746 13.7957 28.0746 14.9113C28.0746 16.0268 24.0776 16.9635 18.7204 17.2021" fill="white"/>
</svg>
